<svg width="139" height="174" viewBox="0 0 139 174" fill="none" xmlns="http://www.w3.org/2000/svg">
<g filter="url(#filter0_di_116_23206)">
<path d="M62.6238 171.88C37.6638 171.88 11.7438 160.12 4.30375 139.48L37.1838 117.4C41.7438 128.2 51.5838 134.44 62.6238 134.44C74.8638 134.44 79.4238 124.84 79.4238 117.64C79.4238 110.2 72.2238 106.84 64.0638 106.84C59.9838 106.84 56.6238 106.84 53.7438 107.08L62.1438 69.4C63.8238 69.64 73.6638 69.64 75.8238 69.64C87.1038 69.64 91.9038 62.2 91.9038 54.76C91.9038 47.56 84.9438 43.96 74.6238 43.96C67.4238 43.96 58.5438 47.08 52.5438 53.56L31.1838 28.12C44.1438 15.64 61.1838 6.51999 81.8238 6.51999C112.064 6.51999 134.864 19.96 134.864 45.4C134.864 69.64 114.704 85.24 96.9438 87.88C114.224 93.4 120.464 107.32 120.464 119.8C120.464 149.56 94.7838 171.88 62.6238 171.88Z" fill="#F3F3F3"/>
</g>
<defs>
<filter id="filter0_di_116_23206" x="0.303772" y="0.52002" width="138.56" height="173.36" filterUnits="userSpaceOnUse" color-interpolation-filters="sRGB">
<feFlood flood-opacity="0" result="BackgroundImageFix"/>
<feColorMatrix in="SourceAlpha" type="matrix" values="0 0 0 0 0 0 0 0 0 0 0 0 0 0 0 0 0 0 127 0" result="hardAlpha"/>
<feOffset dy="-2"/>
<feGaussianBlur stdDeviation="2"/>
<feComposite in2="hardAlpha" operator="out"/>
<feColorMatrix type="matrix" values="0 0 0 0 0.976471 0 0 0 0 0.745098 0 0 0 0 0.0313726 0 0 0 0.6 0"/>
<feBlend mode="normal" in2="BackgroundImageFix" result="effect1_dropShadow_116_23206"/>
<feBlend mode="normal" in="SourceGraphic" in2="effect1_dropShadow_116_23206" result="shape"/>
<feColorMatrix in="SourceAlpha" type="matrix" values="0 0 0 0 0 0 0 0 0 0 0 0 0 0 0 0 0 0 127 0" result="hardAlpha"/>
<feOffset dx="1" dy="1"/>
<feComposite in2="hardAlpha" operator="arithmetic" k2="-1" k3="1"/>
<feColorMatrix type="matrix" values="0 0 0 0 0.976471 0 0 0 0 0.745098 0 0 0 0 0.0313726 0 0 0 1 0"/>
<feBlend mode="normal" in2="shape" result="effect2_innerShadow_116_23206"/>
</filter>
</defs>
</svg>
