<svg width="19" height="19" viewBox="0 0 19 19" fill="none" xmlns="http://www.w3.org/2000/svg">
<path fill-rule="evenodd" clip-rule="evenodd" d="M6.74047 3.82836C6.90767 3.71616 7.13647 3.7609 7.2494 3.92957L7.86173 4.84549C8.2504 4.67683 8.66546 4.55584 9.10767 4.51696C9.80273 4.45662 10.5021 4.56401 11.1471 4.8301L11.7469 3.9303C11.8584 3.76089 12.0857 3.71616 12.2551 3.82836C12.4238 3.94057 12.4693 4.16863 12.3571 4.33656L11.8005 5.17183C11.9904 5.29429 12.173 5.42776 12.3402 5.58103C13.1095 6.28576 13.5333 7.2259 13.5333 8.22763V12.9943C13.5333 13.567 13.0398 14.0334 12.4333 14.0334H11.3333V16.2334H10.6V14.0334H8.4V16.2334H7.66666V14.0334H6.56667C5.96021 14.0334 5.46667 13.567 5.46667 12.9943V8.37209C5.46667 7.07043 6.16334 5.90296 7.21494 5.19749L6.64 4.3373C6.52706 4.16936 6.57254 3.9413 6.74047 3.82836ZM9.49633 5.23343C9.38853 5.23343 9.28 5.23856 9.17147 5.2481C7.50533 5.39403 6.2 6.76609 6.2 8.37209V12.9943C6.2 13.1622 6.36427 13.3001 6.56667 13.3001H12.4333C12.6357 13.3001 12.8 13.1622 12.8 12.9943V8.22763C12.8 7.43343 12.4612 6.68543 11.8445 6.12149C11.2204 5.54877 10.3785 5.23343 9.49633 5.23343ZM4 12.2001H4.73334V8.53343H4V12.2001ZM14.2667 12.2001H15V8.53343H14.2667V12.2001ZM8.03333 6.84691C7.7092 6.84691 7.44667 7.10944 7.44667 7.43358C7.44667 7.75698 7.7092 8.02024 8.03333 8.02024C8.35747 8.02024 8.62 7.75698 8.62 7.43358C8.62 7.10944 8.35747 6.84691 8.03333 6.84691ZM10.9667 6.84691C10.6425 6.84691 10.38 7.10944 10.38 7.43358C10.38 7.75698 10.6425 8.02024 10.9667 8.02024C11.2908 8.02024 11.5533 7.75698 11.5533 7.43358C11.5533 7.10944 11.2908 6.84691 10.9667 6.84691Z" fill="white"/>
</svg>
