<svg width="39" height="40" viewBox="0 0 39 40" fill="none" xmlns="http://www.w3.org/2000/svg">
<path d="M29.25 13.5C29.25 10.9141 28.2228 8.43419 26.3943 6.60571C24.5658 4.77723 22.0859 3.75 19.5 3.75C16.9141 3.75 14.4342 4.77723 12.6057 6.60571C10.7772 8.43419 9.75 10.9141 9.75 13.5C9.75 24.875 4.875 28.125 4.875 28.125H34.125C34.125 28.125 29.25 24.875 29.25 13.5Z" stroke="#E52412" stroke-width="4" stroke-linecap="round" stroke-linejoin="round"/>
<path d="M22.3115 34.625C22.0258 35.1175 21.6157 35.5263 21.1223 35.8105C20.629 36.0947 20.0696 36.2442 19.5002 36.2442C18.9308 36.2442 18.3715 36.0947 17.8781 35.8105C17.3847 35.5263 16.9747 35.1175 16.689 34.625" stroke="#E52412" stroke-width="4" stroke-linecap="round" stroke-linejoin="round"/>
</svg>
