<svg width="89" height="88" viewBox="0 0 89 88" fill="none" xmlns="http://www.w3.org/2000/svg">
<path fill-rule="evenodd" clip-rule="evenodd" d="M44.5 17.8182C30.0402 17.8182 18.3182 29.5402 18.3182 44C18.3182 58.4598 30.0402 70.1818 44.5 70.1818C58.9598 70.1818 70.6818 58.4598 70.6818 44C70.6818 29.5402 58.9598 17.8182 44.5 17.8182ZM12.5 44C12.5 26.3269 26.8269 12 44.5 12C62.1731 12 76.5 26.3269 76.5 44C76.5 61.6731 62.1731 76 44.5 76C26.8269 76 12.5 61.6731 12.5 44Z" fill="#1A1A19"/>
<g clip-path="url(#clip0_235_5197)">
<path fill-rule="evenodd" clip-rule="evenodd" d="M47.862 33.7086C51.7004 34.0765 54.7103 35.2154 55.0439 38.6079C55.2704 41.0811 54.1964 42.5527 52.4203 43.382C55.2876 44.0768 57.0319 45.7104 56.6714 49.3339C56.2326 53.876 52.7326 55.0557 47.7286 55.3045L47.7364 59.9936L44.7893 59.9973L44.7816 55.3082C44.4595 55.3035 44.1226 55.3084 43.7772 55.313C43.3157 55.3194 42.8389 55.3262 42.3609 55.3113L42.3689 60.0004L39.4271 60.0041L39.4193 55.315L33.5256 55.2018L34.0223 51.7749C34.0223 51.7749 36.2482 51.8224 36.2069 51.7976C37.0264 51.7933 37.2696 51.2294 37.3302 50.859L37.3155 43.342L37.3387 37.9922C37.2482 37.4345 36.8573 36.7654 35.6525 36.7451C35.7181 36.688 33.4948 36.7478 33.4948 36.7478L33.4873 33.6061L39.5268 33.5986L39.5191 29.0055L42.5617 29.0017L42.5694 33.5948C43.1568 33.579 43.7362 33.5835 44.322 33.5881C44.5144 33.5896 44.7075 33.5911 44.9016 33.5919L44.8939 28.9988L47.8543 28.9951L47.862 33.7086ZM42.2072 42.3505L42.3567 42.3567C44.1478 42.4325 49.4588 42.6573 49.4669 39.5314C49.4588 36.5635 44.9388 36.6593 42.8387 36.7038C42.5907 36.709 42.3764 36.7136 42.2072 36.7123V42.3505ZM42.4581 51.5579C42.364 51.5542 42.2775 51.5507 42.1989 51.5478V45.9096C42.3861 45.9113 42.6213 45.9084 42.8933 45.9051C45.3753 45.8751 50.919 45.808 50.8927 48.8C50.9206 51.8947 44.6633 51.6457 42.4581 51.5579Z" fill="#1A1A19"/>
</g>
<defs>
<clipPath id="clip0_235_5197">
<rect x="29" y="29" width="31" height="31" rx="15.5" fill="white"/>
</clipPath>
</defs>
</svg>
