<svg width="48" height="48" viewBox="0 0 48 48" fill="none" xmlns="http://www.w3.org/2000/svg">
<g clip-path="url(#clip0_235_4911)">
<path d="M10.9584 12.5336V9.54657C10.9584 8.87266 10.4121 8.32631 9.73815 8.32631C9.06425 8.32631 8.5179 8.87266 8.5179 9.54657V12.5336C7.02936 12.7423 5.87988 14.0234 5.87988 15.5687V31.9563C5.87988 33.5016 7.02928 34.7827 8.5179 34.9915V37.9785C8.5179 38.6524 9.06425 39.1987 9.73815 39.1987C10.4121 39.1987 10.9584 38.6524 10.9584 37.9785V34.9915C12.4469 34.7827 13.5964 33.5016 13.5964 31.9563V15.5687C13.5964 14.0234 12.4469 12.7423 10.9584 12.5336ZM11.1559 31.9563C11.1559 32.3009 10.8755 32.5814 10.5308 32.5814H8.94548C8.60088 32.5814 8.32038 32.301 8.32038 31.9563V15.5687C8.32038 15.2241 8.6008 14.9436 8.94548 14.9436H10.5308C10.8754 14.9436 11.1559 15.224 11.1559 15.5687V31.9563Z" fill="#1A1A19"/>
<path d="M29.7835 10.5362V7.54918C29.7835 6.87527 29.2371 6.32893 28.5632 6.32893C27.8893 6.32893 27.343 6.87527 27.343 7.54918V10.5362C25.8543 10.7449 24.7049 12.0261 24.7049 13.5714V25.1627C24.7049 26.7079 25.8543 27.989 27.343 28.1979V40.6246C27.343 41.2985 27.8893 41.8448 28.5632 41.8448C29.2371 41.8448 29.7835 41.2985 29.7835 40.6246V28.1979C31.2721 27.9891 32.4216 26.7079 32.4216 25.1627V13.5714C32.4216 12.0262 31.2721 10.745 29.7835 10.5362ZM29.9811 25.1627C29.9811 25.5073 29.7006 25.7878 29.356 25.7878H27.7705C27.4259 25.7878 27.1454 25.5074 27.1454 25.1627V13.5714C27.1454 13.2268 27.4259 12.9463 27.7705 12.9463H29.356C29.7006 12.9463 29.9811 13.2267 29.9811 13.5714V25.1627Z" fill="#1A1A19"/>
<path d="M20.3709 8.41564V5.42862C20.3709 4.75472 19.8246 4.20837 19.1507 4.20837C18.4768 4.20837 17.9304 4.75472 17.9304 5.42862V8.41564C16.4419 8.62438 15.2924 9.90556 15.2924 11.4508V24.515C15.2924 26.0602 16.4418 27.3413 17.9304 27.5501V30.5372C17.9304 31.2111 18.4768 31.7574 19.1507 31.7574C19.8246 31.7574 20.3709 31.2111 20.3709 30.5372V27.5501C21.8595 27.3414 23.009 26.0603 23.009 24.515V11.4507C23.009 9.90556 21.8596 8.62438 20.3709 8.41564ZM20.5685 24.515C20.5685 24.8596 20.288 25.1401 19.9434 25.1401H18.358C18.0134 25.1401 17.7329 24.8597 17.7329 24.515V11.4507C17.7329 11.1061 18.0133 10.8256 18.358 10.8256H19.9434C20.288 10.8256 20.5685 11.106 20.5685 11.4507V24.515Z" fill="#1A1A19"/>
<path d="M39.196 16.2632V7.09459C39.196 6.42069 38.6496 5.87434 37.9757 5.87434C37.3018 5.87434 36.7555 6.42069 36.7555 7.09459V16.2632C35.2669 16.4719 34.1175 17.7531 34.1175 19.2983V32.3626C34.1175 33.9078 35.2669 35.1889 36.7555 35.3977V38.3848C36.7555 39.0587 37.3018 39.605 37.9757 39.605C38.6496 39.605 39.196 39.0587 39.196 38.3848V35.3977C40.6846 35.1891 41.8341 33.9079 41.8341 32.3626V19.2983C41.8341 17.7532 40.6847 16.4719 39.196 16.2632ZM39.3936 32.3626C39.3936 32.7072 39.1132 32.9877 38.7685 32.9877H37.1831C36.8385 32.9877 36.558 32.7073 36.558 32.3626V19.2983C36.558 18.9537 36.8384 18.6732 37.1831 18.6732H38.7685C39.1131 18.6732 39.3936 18.9536 39.3936 19.2983V32.3626Z" fill="#1A1A19"/>
</g>
<defs>
<clipPath id="clip0_235_4911">
<rect width="37.6364" height="37.6364" fill="white" transform="translate(5.03906 4.2085)"/>
</clipPath>
</defs>
</svg>
