<svg width="88" height="88" viewBox="0 0 88 88" fill="none" xmlns="http://www.w3.org/2000/svg">
<path fill-rule="evenodd" clip-rule="evenodd" d="M73.4171 24.0569H57C55.3431 24.0569 54 25.4 54 27.0569C54 28.7137 55.3431 30.0569 57 30.0569H66.811L47.6591 49.6274L35.9396 37.6517C35.3752 37.075 34.6024 36.75 33.7955 36.75C32.9886 36.75 32.2157 37.075 31.6513 37.6517L10.8559 58.9017C9.69703 60.0859 9.71757 61.9853 10.9017 63.1441C12.0859 64.303 13.9853 64.2824 15.1441 63.0983L33.7955 44.0393L45.515 56.0149C46.0793 56.5916 46.8522 56.9167 47.6591 56.9167C48.466 56.9167 49.2389 56.5916 49.8032 56.0149L71 34.3548V44.0569C71 45.7137 72.3431 47.0569 74 47.0569C75.6569 47.0569 77 45.7137 77 44.0569V27.0569C77 27.0474 77 27.038 76.9999 27.0285C77.0073 26.2404 76.706 25.4506 76.0983 24.8559C75.3639 24.1372 74.3544 23.8721 73.4171 24.0569Z" fill="#1A1A19"/>
</svg>
