<svg width="88" height="88" viewBox="0 0 88 88" fill="none" xmlns="http://www.w3.org/2000/svg">
<path fill-rule="evenodd" clip-rule="evenodd" d="M73.4171 63.9431H57C55.3431 63.9431 54 62.6 54 60.9431C54 59.2863 55.3431 57.9431 57 57.9431H66.811L47.6591 38.3726L35.9396 50.3483C35.3752 50.925 34.6024 51.25 33.7955 51.25C32.9886 51.25 32.2157 50.925 31.6513 50.3483L10.8559 29.0983C9.69703 27.9141 9.71757 26.0147 10.9017 24.8559C12.0859 23.697 13.9853 23.7176 15.1441 24.9017L33.7955 43.9607L45.515 31.9851C46.0793 31.4084 46.8522 31.0833 47.6591 31.0833C48.466 31.0833 49.2389 31.4084 49.8032 31.9851L71 53.6452V43.9431C71 42.2863 72.3431 40.9431 74 40.9431C75.6569 40.9431 77 42.2863 77 43.9431V60.9431C77 60.9526 77 60.962 76.9999 60.9715C77.0073 61.7596 76.706 62.5494 76.0983 63.1441C75.3639 63.8628 74.3544 64.1279 73.4171 63.9431Z" fill="#1A1A19"/>
</svg>
