<svg width="18" height="19" viewBox="0 0 18 19" fill="none" xmlns="http://www.w3.org/2000/svg">
<path d="M7.3125 9.5L8.4375 10.625L10.9688 8.09375M12.3194 5.56166C12.4352 5.8418 12.6576 6.06447 12.9375 6.18073L13.9192 6.58736C14.1993 6.70341 14.4219 6.926 14.538 7.20616C14.654 7.48632 14.654 7.80111 14.538 8.08127L14.1316 9.06226C14.0155 9.34255 14.0154 9.65765 14.132 9.9378L14.5376 10.9185C14.5952 11.0573 14.6248 11.206 14.6248 11.3562C14.6248 11.5064 14.5953 11.6552 14.5378 11.794C14.4803 11.9327 14.396 12.0588 14.2898 12.165C14.1836 12.2712 14.0575 12.3555 13.9187 12.4129L12.9377 12.8192C12.6576 12.9351 12.4349 13.1574 12.3187 13.4374L11.912 14.4191C11.796 14.6992 11.5734 14.9218 11.2933 15.0379C11.0131 15.1539 10.6983 15.1539 10.4182 15.0379L9.43722 14.6315C9.15706 14.5158 8.8424 14.516 8.56242 14.6322L7.58075 15.0382C7.30076 15.154 6.98626 15.1539 6.70633 15.038C6.42641 14.922 6.20395 14.6997 6.08783 14.4198L5.68109 13.4378C5.56526 13.1577 5.34293 12.935 5.06298 12.8188L4.08131 12.4121C3.80128 12.2961 3.57877 12.0737 3.46268 11.7937C3.3466 11.5137 3.34644 11.199 3.46225 10.9189L3.86857 9.93793C3.98433 9.65777 3.98409 9.34309 3.86792 9.0631L3.46217 8.08069C3.40465 7.94193 3.37502 7.79319 3.375 7.64298C3.37498 7.49277 3.40455 7.34402 3.46203 7.20524C3.51951 7.06646 3.60378 6.94037 3.71001 6.83417C3.81624 6.72797 3.94235 6.64375 4.08114 6.58631L5.0621 6.17997C5.34199 6.06423 5.56452 5.84218 5.68086 5.56253L6.08748 4.58083C6.20352 4.30067 6.4261 4.07808 6.70625 3.96204C6.9864 3.84599 7.30118 3.84599 7.58133 3.96204L8.56229 4.36838C8.84245 4.48414 9.15711 4.4839 9.43709 4.36772L10.4192 3.96267C10.6993 3.84668 11.014 3.84671 11.2941 3.96273C11.5742 4.07875 11.7967 4.30128 11.9128 4.58137L12.3195 5.56336L12.3194 5.56166Z" stroke="#1A1A19" stroke-width="1.3" stroke-linecap="round" stroke-linejoin="round"/>
</svg>
