<svg width="22" height="22" viewBox="0 0 22 22" fill="none" xmlns="http://www.w3.org/2000/svg">
<path fill-rule="evenodd" clip-rule="evenodd" d="M11 4.45455C7.38505 4.45455 4.45455 7.38505 4.45455 11C4.45455 14.615 7.38505 17.5455 11 17.5455C14.615 17.5455 17.5455 14.615 17.5455 11C17.5455 7.38505 14.615 4.45455 11 4.45455ZM3 11C3 6.58172 6.58172 3 11 3C15.4183 3 19 6.58172 19 11C19 15.4183 15.4183 19 11 19C6.58172 19 3 15.4183 3 11ZM11 5.54545C11.4017 5.54545 11.7273 5.87107 11.7273 6.27273V6.63636H11.8485C13.1874 6.63636 14.2727 7.72173 14.2727 9.06061C14.2727 9.46227 13.9471 9.78788 13.5455 9.78788C13.1438 9.78788 12.8182 9.46227 12.8182 9.06061C12.8182 8.52506 12.384 8.09091 11.8485 8.09091H10.2727C9.67023 8.09091 9.18182 8.57933 9.18182 9.18182C9.18182 9.78431 9.67023 10.2727 10.2727 10.2727H11.7273C13.1331 10.2727 14.2727 11.4124 14.2727 12.8182C14.2727 14.224 13.1331 15.3636 11.7273 15.3636V15.7273C11.7273 16.1289 11.4017 16.4545 11 16.4545C10.5983 16.4545 10.2727 16.1289 10.2727 15.7273V15.3636H10.1515C8.81264 15.3636 7.72727 14.2783 7.72727 12.9394C7.72727 12.5377 8.05288 12.2121 8.45455 12.2121C8.85621 12.2121 9.18182 12.5377 9.18182 12.9394C9.18182 13.4749 9.61597 13.9091 10.1515 13.9091H11.7273C12.3298 13.9091 12.8182 13.4207 12.8182 12.8182C12.8182 12.2157 12.3298 11.7273 11.7273 11.7273H10.2727C8.86691 11.7273 7.72727 10.5876 7.72727 9.18182C7.72727 7.776 8.86691 6.63636 10.2727 6.63636V6.27273C10.2727 5.87107 10.5983 5.54545 11 5.54545Z" fill="#F9BE08"/>
</svg>
