<svg width="16" height="15" viewBox="0 0 16 15" fill="none" xmlns="http://www.w3.org/2000/svg">
<path d="M15.8683 11.4632C15.8683 12.4528 15.539 13.2678 14.8806 13.9081C14.2508 14.5484 13.4349 14.8686 12.4329 14.8686C11.2878 14.8686 10.3717 14.432 9.68461 13.5588C8.99754 12.6566 8.654 11.4632 8.654 9.97885C8.654 8.40715 9.0548 6.83544 9.85638 5.26374C10.6866 3.69203 11.9033 2.13488 13.5065 0.592285C16.1825 3.21399 15.2899 2.89945 13.4635 5.8313C12.9196 6.67536 12.5045 7.60674 12.2182 8.62544L11.3594 8.23251C11.4739 8.1743 11.617 8.11609 11.7888 8.05788C11.9892 7.99967 12.2468 7.97056 12.5617 7.97056C13.4778 7.97056 14.2508 8.30528 14.8806 8.97471C15.539 9.64414 15.8683 10.4736 15.8683 11.4632Z" fill="#1A1A19"/>
<path d="M7.88513 11.4632C7.88513 12.4528 7.5559 13.2678 6.89746 13.9081C6.26764 14.5484 5.45174 14.8686 4.44976 14.8686C3.30464 14.8686 2.38854 14.432 1.70147 13.5588C1.0144 12.6566 0.670863 11.4632 0.670863 9.97885C0.670863 8.40715 1.07166 6.83544 1.87324 5.26374C2.70345 3.69203 3.92015 2.13488 5.52331 0.592285C8.19931 3.21399 7.30674 2.89945 5.48037 5.8313C4.93644 6.67536 4.52133 7.60674 4.23505 8.62544L3.37621 8.23251C3.49072 8.1743 3.63386 8.11609 3.80563 8.05788C4.00603 7.99967 4.26368 7.97056 4.57859 7.97056C5.49469 7.97056 6.26764 8.30528 6.89746 8.97471C7.5559 9.64414 7.88513 10.4736 7.88513 11.4632Z" fill="#1A1A19"/>
</svg>
