<svg width="20" height="20" viewBox="0 0 20 20" fill="none" xmlns="http://www.w3.org/2000/svg">
<path d="M4.58317 16.6666H6.6665M14.1665 7.49992H14.1748M6.6665 4.99992H4.33317C3.39975 4.99992 2.93304 4.99992 2.57652 5.18157C2.26292 5.34136 2.00795 5.59633 1.84816 5.90993C1.6665 6.26645 1.6665 6.73316 1.6665 7.66659V10.6666C1.6665 11.6 1.6665 12.0667 1.84816 12.4232C2.00795 12.7368 2.26292 12.9918 2.57652 13.1516C2.93304 13.3333 3.39975 13.3333 4.33317 13.3333H6.6665M12.6665 16.6666H15.6665C16.5999 16.6666 17.0666 16.6666 17.4232 16.4849C17.7368 16.3251 17.9917 16.0702 18.1515 15.7566C18.3332 15.4 18.3332 14.9333 18.3332 13.9999V5.99992C18.3332 5.0665 18.3332 4.59979 18.1515 4.24327C17.9917 3.92966 17.7368 3.6747 17.4232 3.51491C17.0666 3.33325 16.5999 3.33325 15.6665 3.33325H12.6665C11.7331 3.33325 11.2664 3.33325 10.9099 3.51491C10.5963 3.6747 10.3413 3.92966 10.1815 4.24327C9.99984 4.59979 9.99984 5.0665 9.99984 5.99992V13.9999C9.99984 14.9333 9.99984 15.4 10.1815 15.7566C10.3413 16.0702 10.5963 16.3251 10.9099 16.4849C11.2664 16.6666 11.7331 16.6666 12.6665 16.6666ZM14.9998 12.4999C14.9998 12.9602 14.6267 13.3333 14.1665 13.3333C13.7063 13.3333 13.3332 12.9602 13.3332 12.4999C13.3332 12.0397 13.7063 11.6666 14.1665 11.6666C14.6267 11.6666 14.9998 12.0397 14.9998 12.4999Z" stroke="white" stroke-width="1.3" stroke-linecap="round" stroke-linejoin="round"/>
</svg>
