<svg width="89" height="88" viewBox="0 0 89 88" fill="none" xmlns="http://www.w3.org/2000/svg">
<path fill-rule="evenodd" clip-rule="evenodd" d="M17 33.5L17 54.5C17 57.8137 19.6863 60.5 23 60.5L65 60.5C68.3137 60.5 71 57.8137 71 54.5L71 33.5C71 30.1863 68.3137 27.5 65 27.5L23 27.5C19.6863 27.5 17 30.1863 17 33.5ZM11 54.5C11 61.1274 16.3726 66.5 23 66.5L65 66.5C71.6274 66.5 77 61.1274 77 54.5L77 33.5C77 26.8726 71.6274 21.5 65 21.5L23 21.5C16.3726 21.5 11 26.8726 11 33.5L11 54.5Z" fill="#1A1A19"/>
<path d="M15 37.5H73.5" stroke="#1A1A19" stroke-width="7" stroke-linecap="round"/>
</svg>
