<svg width="125" height="77" viewBox="0 0 125 77" fill="none" xmlns="http://www.w3.org/2000/svg">
<path d="M96.9291 31.8039L96.9244 31.8084C95.4576 33.2113 93.2754 33.6543 91.3325 33.1023C89.6554 32.6259 88.5128 31.1203 87.3289 29.5251L68.7885 4.54363L68.7678 4.51573L68.3663 4.81369L68.7678 4.51572L68.7231 4.45547C67.6863 3.05802 66.4669 1.41446 64.6017 0.823482C63.3075 0.413425 61.8951 0.393539 60.5816 0.762006C58.5266 1.33845 57.1884 3.14695 56.0576 4.67519L56.0158 4.73167L37.556 29.6741L37.5372 29.6995C36.4363 31.1871 35.3849 32.5786 33.8418 33.0617C31.8873 33.6736 29.6193 33.247 28.0709 31.804L12.2719 17.0802C9.96607 14.9313 7.73916 13.8359 5.83118 13.879C3.85826 13.9235 2.37771 15.1758 1.61231 17.3357C0.657956 20.0288 1.35889 22.9447 2.01874 25.5177L8.829 52.0734C12.5154 66.448 25.4705 76.5 40.3103 76.5H84.0872C98.7058 76.5 111.526 66.7397 115.415 52.6481L122.828 25.7946C123.585 23.0528 124.418 19.8912 123.276 17.0383C122.873 16.0327 122.303 15.2364 121.576 14.6922C120.845 14.145 119.982 13.8724 119.033 13.8779C117.156 13.8886 114.981 14.981 112.728 17.0802L96.9291 31.8039Z" fill="url(#paint0_linear_55_2172)" stroke="url(#paint1_linear_55_2172)" stroke-linecap="round" stroke-linejoin="round"/>
<defs>
<linearGradient id="paint0_linear_55_2172" x1="62.5" y1="-14.1351" x2="62.5" y2="76" gradientUnits="userSpaceOnUse">
<stop stop-color="#F9BE08"/>
<stop offset="1" stop-color="#F9BE08" stop-opacity="0"/>
</linearGradient>
<linearGradient id="paint1_linear_55_2172" x1="62.5" y1="10.0984" x2="62.5" y2="76.0002" gradientUnits="userSpaceOnUse">
<stop stop-color="#F9BE08"/>
<stop offset="1" stop-color="#F9BE08" stop-opacity="0"/>
</linearGradient>
</defs>
</svg>
