<svg width="20" height="20" viewBox="0 0 20 20" fill="none" xmlns="http://www.w3.org/2000/svg">
<path d="M1.6665 11.6667L18.3332 11.6667M6.6665 17.5H13.3332M5.6665 15H14.3332C15.7333 15 16.4334 15 16.9681 14.7275C17.4386 14.4878 17.821 14.1054 18.0607 13.635C18.3332 13.1002 18.3332 12.4001 18.3332 11V6.5C18.3332 5.09987 18.3332 4.3998 18.0607 3.86502C17.821 3.39462 17.4386 3.01217 16.9681 2.77248C16.4334 2.5 15.7333 2.5 14.3332 2.5H5.6665C4.26637 2.5 3.56631 2.5 3.03153 2.77248C2.56112 3.01217 2.17867 3.39462 1.93899 3.86502C1.6665 4.3998 1.6665 5.09987 1.6665 6.5V11C1.6665 12.4001 1.6665 13.1002 1.93899 13.635C2.17867 14.1054 2.56112 14.4878 3.03153 14.7275C3.56631 15 4.26637 15 5.6665 15Z" stroke="white" stroke-width="1.3" stroke-linecap="round" stroke-linejoin="round"/>
</svg>
