<svg width="88" height="88" viewBox="0 0 88 88" fill="none" xmlns="http://www.w3.org/2000/svg">
<path fill-rule="evenodd" clip-rule="evenodd" d="M44 17.8182C29.5402 17.8182 17.8182 29.5402 17.8182 44C17.8182 58.4598 29.5402 70.1818 44 70.1818C58.4598 70.1818 70.1818 58.4598 70.1818 44C70.1818 29.5402 58.4598 17.8182 44 17.8182ZM12 44C12 26.3269 26.3269 12 44 12C61.6731 12 76 26.3269 76 44C76 61.6731 61.6731 76 44 76C26.3269 76 12 61.6731 12 44ZM44 22.1818C45.6066 22.1818 46.9091 23.4843 46.9091 25.0909V26.5455H47.3939C52.7494 26.5455 57.0909 30.8869 57.0909 36.2424C57.0909 37.8491 55.7885 39.1515 54.1818 39.1515C52.5752 39.1515 51.2727 37.8491 51.2727 36.2424C51.2727 34.1002 49.5361 32.3636 47.3939 32.3636H41.0909C38.6809 32.3636 36.7273 34.3173 36.7273 36.7273C36.7273 39.1372 38.6809 41.0909 41.0909 41.0909H46.9091C52.5324 41.0909 57.0909 45.6495 57.0909 51.2727C57.0909 56.896 52.5324 61.4545 46.9091 61.4545V62.9091C46.9091 64.5157 45.6066 65.8182 44 65.8182C42.3934 65.8182 41.0909 64.5157 41.0909 62.9091V61.4545H40.6061C35.2506 61.4545 30.9091 57.1131 30.9091 51.7576C30.9091 50.1509 32.2115 48.8485 33.8182 48.8485C35.4248 48.8485 36.7273 50.1509 36.7273 51.7576C36.7273 53.8998 38.4639 55.6364 40.6061 55.6364H46.9091C49.3191 55.6364 51.2727 53.6827 51.2727 51.2727C51.2727 48.8628 49.3191 46.9091 46.9091 46.9091H41.0909C35.4676 46.9091 30.9091 42.3505 30.9091 36.7273C30.9091 31.104 35.4676 26.5455 41.0909 26.5455V25.0909C41.0909 23.4843 42.3934 22.1818 44 22.1818Z" fill="#1A1A19"/>
</svg>
