<svg width="18" height="19" viewBox="0 0 18 19" fill="none" xmlns="http://www.w3.org/2000/svg">
<path d="M12.5633 3.11969C9.49503 6.63673 6.12512 10.0031 2.60411 13.0679C2.00051 13.6206 2.20171 14.7259 2.95621 15.5298C3.71071 16.3337 4.86762 16.4845 5.42092 15.8815C8.48922 12.3645 11.8592 8.99817 15.3802 5.93332M7.58382 8.09379C8.28802 9.24939 10.5012 11.0079 10.5012 11.0079M9.99813 14.0225V10.5055C11.2556 11.1084 11.5071 12.3645 11.5071 13.7713V16.0323M15.0386 3.46065C15.8243 4.24549 15.9835 5.35892 15.3942 5.94755C14.8049 6.53619 13.6902 6.37713 12.9045 5.59228C12.1188 4.80743 11.9596 3.69401 12.5488 3.10538C13.1381 2.51674 14.2528 2.6758 15.0386 3.46065Z" stroke="#1A1A19" stroke-width="1.3" stroke-miterlimit="10" stroke-linecap="round" stroke-linejoin="round"/>
</svg>
