<svg width="160" height="160" viewBox="0 0 160 160" fill="none" xmlns="http://www.w3.org/2000/svg">
<path d="M80 160C124.183 160 160 124.183 160 80C160 35.8172 124.183 0 80 0C35.8172 0 0 35.8172 0 80C0 124.183 35.8172 160 80 160Z" fill="#0052B4"/>
<path d="M79.9973 31.3057L82.5876 39.2772H90.9688L84.1879 44.2038L86.7782 52.1753L79.9973 47.2485L73.216 52.1753L75.8063 44.2038L69.0254 39.2772H77.407L79.9973 31.3057Z" fill="#FFDA44"/>
<path d="M45.5633 45.569L53.0321 49.374L58.9586 43.4478L57.6471 51.7259L65.1155 55.5312L56.8371 56.8424L55.5258 65.1212L51.7205 57.6528L43.4424 58.9643L49.3689 53.0378L45.5633 45.569Z" fill="#FFDA44"/>
<path d="M31.3008 80.0012L39.2723 77.4109V69.0293L44.1986 75.8105L52.1705 73.2202L47.2433 80.0012L52.1705 86.7821L44.1986 84.1921L39.2723 90.973V82.5915L31.3008 80.0012Z" fill="#FFDA44"/>
<path d="M45.5633 114.435L49.3686 106.966L43.4424 101.039L51.7208 102.351L55.5255 94.8828L56.8371 103.161L65.1152 104.473L57.6477 108.278L58.9586 116.556L53.0321 110.629L45.5633 114.435Z" fill="#FFDA44"/>
<path d="M79.9973 128.697L77.4066 120.726H69.0254L75.8066 115.799L73.216 107.828L79.9973 112.754L86.7782 107.828L84.1879 115.799L90.9688 120.726H82.5873L79.9973 128.697Z" fill="#FFDA44"/>
<path d="M114.429 114.435L106.961 110.63L101.034 116.556L102.346 108.278L94.8779 104.473L103.156 103.161L104.467 94.8828L108.272 102.351L116.55 101.039L110.624 106.967L114.429 114.435Z" fill="#FFDA44"/>
<path d="M128.691 80.0012L120.72 82.5915V90.973L115.793 84.1918L107.822 86.7821L112.749 80.0012L107.822 73.2202L115.794 75.8105L120.72 69.0293V77.4112L128.691 80.0012Z" fill="#FFDA44"/>
<path d="M114.429 45.5687L110.624 53.0374L116.551 58.964L108.272 57.6521L104.467 65.1206L103.156 56.8421L94.8779 55.5306L102.346 51.7256L101.034 43.4478L106.961 49.374L114.429 45.5687Z" fill="#FFDA44"/>
</svg>
