<svg width="363" height="359" viewBox="0 0 363 359" fill="none" xmlns="http://www.w3.org/2000/svg">
<path fill-rule="evenodd" clip-rule="evenodd" d="M14.7709 32.3399H13.1205V30.6984H14.7709V32.3399ZM21.3724 32.3399H18.0716V30.6984H21.3724V32.3399ZM27.9739 32.3399H24.6731V30.6984H27.9739V32.3399ZM34.5754 32.3399H31.2746V30.6984H34.5754V32.3399ZM41.1769 32.3399H37.8761V30.6984H41.1769V32.3399ZM47.7784 32.3399H44.4776V30.6984H47.7784V32.3399ZM54.3799 32.3399H51.0791V30.6984H54.3799V32.3399ZM60.9814 32.3399H57.6806V30.6984H60.9814V32.3399ZM67.5829 32.3399H64.2821V30.6984H67.5829V32.3399ZM74.1844 32.3399H70.8836V30.6984H74.1844V32.3399ZM80.7859 32.3399H77.4851V30.6984H80.7859V32.3399ZM87.3874 32.3399H84.0866V30.6984H87.3874V32.3399ZM93.9889 32.3399H90.6881V30.6984H93.9889V32.3399ZM100.59 32.3399H97.2896V30.6984H100.59V32.3399ZM107.192 32.3399H103.891V30.6984H107.192V32.3399ZM113.793 32.3399H110.493V30.6984H113.793V32.3399ZM120.395 32.3399H117.094V30.6984H120.395V32.3399ZM126.996 32.3399H123.696V30.6984H126.996V32.3399ZM133.598 32.3399H130.297V30.6984H133.598V32.3399ZM140.199 32.3399H136.899V30.6984H140.199V32.3399ZM146.801 32.3399H143.5V30.6984H146.801V32.3399ZM153.402 32.3399H150.102V30.6984H153.402V32.3399ZM160.004 32.3399H156.703V30.6984H160.004V32.3399ZM166.605 32.3399H163.305V30.6984H166.605V32.3399ZM173.207 32.3399H169.906V30.6984H173.207V32.3399ZM179.808 32.3399H176.508V30.6984H179.808V32.3399ZM186.41 32.3399H183.109V30.6984H186.41V32.3399ZM193.011 32.3399H189.711V30.6984H193.011V32.3399ZM199.613 32.3399H196.312V30.6984H199.613V32.3399ZM206.214 32.3399H202.914V30.6984H206.214V32.3399ZM212.816 32.3399H209.515V30.6984H212.816V32.3399ZM219.418 32.3399H216.117V30.6984H219.418V32.3399ZM226.019 32.3399H222.718V30.6984H226.019V32.3399ZM232.621 32.3399H229.32V30.6984H232.621V32.3399ZM239.222 32.3399H235.921V30.6984H239.222V32.3399ZM245.824 32.3399H242.523V30.6984H245.824V32.3399ZM252.425 32.3399H249.124V30.6984H252.425V32.3399ZM259.027 32.3399H255.726V30.6984H259.027V32.3399ZM265.628 32.3399H262.327V30.6984H265.628V32.3399ZM272.23 32.3399H268.929V30.6984H272.23V32.3399ZM278.831 32.3399H275.53V30.6984H278.831V32.3399ZM285.433 32.3399H282.132V30.6984H285.433V32.3399ZM292.034 32.3399H288.733V30.6984H292.034V32.3399ZM298.636 32.3399H295.335V30.6984H298.636V32.3399ZM305.237 32.3399H301.936V30.6984H305.237V32.3399ZM311.839 32.3399H308.538V30.6984H311.839V32.3399ZM318.44 32.3399H315.139V30.6984H318.44V32.3399ZM325.042 32.3399H321.741V30.6984H325.042V32.3399ZM331.643 32.3399H328.342V30.6984H331.643V32.3399ZM338.245 32.3399H334.944V30.6984H338.245V32.3399ZM344.846 32.3399H341.545V30.6984H344.846V32.3399ZM351.448 32.3399H348.147V30.6984H351.448V32.3399ZM358.049 32.3399H354.748V30.6984H358.049V32.3399ZM363 32.3399H361.35V30.6984H363V32.3399Z" fill="#1A1A19"/>
<path fill-rule="evenodd" clip-rule="evenodd" d="M4.9305 118.793H3.28012V117.151H4.9305V118.793ZM11.532 118.793H8.23125V117.151H11.532V118.793ZM18.1335 118.793H14.8327V117.151H18.1335V118.793ZM24.735 118.793H21.4342V117.151H24.735V118.793ZM31.3365 118.793H28.0357V117.151H31.3365V118.793ZM37.938 118.793H34.6372V117.151H37.938V118.793ZM44.5395 118.793H41.2387V117.151H44.5395V118.793ZM51.141 118.793H47.8402V117.151H51.141V118.793ZM57.7425 118.793H54.4417V117.151H57.7425V118.793ZM64.344 118.793H61.0432V117.151H64.344V118.793ZM70.9455 118.793H67.6447V117.151H70.9455V118.793ZM77.547 118.793H74.2462V117.151H77.547V118.793ZM84.1485 118.793H80.8477V117.151H84.1485V118.793ZM90.75 118.793H87.4492V117.151H90.75V118.793ZM97.3515 118.793H94.0507V117.151H97.3515V118.793ZM103.953 118.793H100.652V117.151H103.953V118.793ZM110.554 118.793H107.254V117.151H110.554V118.793ZM117.156 118.793H113.855V117.151H117.156V118.793ZM123.757 118.793H120.457V117.151H123.757V118.793ZM130.359 118.793H127.058V117.151H130.359V118.793ZM136.96 118.793H133.66V117.151H136.96V118.793ZM143.562 118.793H140.261V117.151H143.562V118.793ZM150.164 118.793H146.863V117.151H150.164V118.793ZM156.765 118.793H153.464V117.151H156.765V118.793ZM163.367 118.793H160.066V117.151H163.367V118.793ZM169.968 118.793H166.667V117.151H169.968V118.793ZM176.57 118.793H173.269V117.151H176.57V118.793ZM183.171 118.793H179.87V117.151H183.171V118.793ZM189.773 118.793H186.472V117.151H189.773V118.793ZM196.374 118.793H193.073V117.151H196.374V118.793ZM202.976 118.793H199.675V117.151H202.976V118.793ZM209.577 118.793H206.276V117.151H209.577V118.793ZM216.179 118.793H212.878V117.151H216.179V118.793ZM222.78 118.793H219.479V117.151H222.78V118.793ZM229.382 118.793H226.081V117.151H229.382V118.793ZM235.983 118.793H232.682V117.151H235.983V118.793ZM242.585 118.793H239.284V117.151H242.585V118.793ZM249.186 118.793H245.886V117.151H249.186V118.793ZM255.788 118.793H252.487V117.151H255.788V118.793ZM262.389 118.793H259.089V117.151H262.389V118.793ZM268.991 118.793H265.69V117.151H268.991V118.793ZM275.592 118.793H272.292V117.151H275.592V118.793ZM282.194 118.793H278.893V117.151H282.194V118.793ZM288.795 118.793H285.495V117.151H288.795V118.793ZM295.397 118.793H292.096V117.151H295.397V118.793ZM301.998 118.793H298.698V117.151H301.998V118.793ZM308.6 118.793H305.299V117.151H308.6V118.793ZM315.201 118.793H311.901V117.151H315.201V118.793ZM321.803 118.793H318.502V117.151H321.803V118.793ZM328.404 118.793H325.103V117.151H328.404V118.793ZM335.006 118.793H331.705V117.151H335.006V118.793ZM341.607 118.793H338.306V117.151H341.607V118.793ZM348.209 118.793H344.908V117.151H348.209V118.793ZM353.16 118.793H351.509V117.151H353.16V118.793Z" fill="#00B2FD"/>
<path fill-rule="evenodd" clip-rule="evenodd" d="M12.0374 249.566H10.387V247.925H12.0374V249.566ZM18.6389 249.566H15.3382V247.925H18.6389V249.566ZM25.2404 249.566H21.9397V247.925H25.2404V249.566ZM31.8419 249.566H28.5412V247.925H31.8419V249.566ZM38.4434 249.566H35.1427V247.925H38.4434V249.566ZM45.0449 249.566H41.7442V247.925H45.0449V249.566ZM51.6464 249.566H48.3457V247.925H51.6464V249.566ZM58.2479 249.566H54.9472V247.925H58.2479V249.566ZM64.8494 249.566H61.5487V247.925H64.8494V249.566ZM71.4509 249.566H68.1502V247.925H71.4509V249.566ZM78.0524 249.566H74.7517V247.925H78.0524V249.566ZM84.6539 249.566H81.3532V247.925H84.6539V249.566ZM91.2554 249.566H87.9547V247.925H91.2554V249.566ZM97.8569 249.566H94.5562V247.925H97.8569V249.566ZM104.458 249.566H101.158V247.925H104.458V249.566ZM111.06 249.566H107.759V247.925H111.06V249.566ZM117.661 249.566H114.361V247.925H117.661V249.566ZM124.263 249.566H120.962V247.925H124.263V249.566ZM130.864 249.566H127.564V247.925H130.864V249.566ZM137.466 249.566H134.165V247.925H137.466V249.566ZM144.067 249.566H140.767V247.925H144.067V249.566ZM150.669 249.566H147.368V247.925H150.669V249.566ZM157.27 249.566H153.97V247.925H157.27V249.566ZM163.872 249.566H160.571V247.925H163.872V249.566ZM170.473 249.566H167.173V247.925H170.473V249.566ZM177.075 249.566H173.774V247.925H177.075V249.566ZM183.677 249.566H180.376V247.925H183.677V249.566ZM190.278 249.566H186.977V247.925H190.278V249.566ZM196.88 249.566H193.579V247.925H196.88V249.566ZM203.481 249.566H200.18V247.925H203.481V249.566ZM210.083 249.566H206.782V247.925H210.083V249.566ZM216.684 249.566H213.383V247.925H216.684V249.566ZM223.286 249.566H219.985V247.925H223.286V249.566ZM229.887 249.566H226.586V247.925H229.887V249.566ZM236.489 249.566H233.188V247.925H236.489V249.566ZM243.09 249.566H239.789V247.925H243.09V249.566ZM249.692 249.566H246.391V247.925H249.692V249.566ZM256.293 249.566H252.992V247.925H256.293V249.566ZM262.895 249.566H259.594V247.925H262.895V249.566ZM269.496 249.566H266.195V247.925H269.496V249.566ZM276.098 249.566H272.797V247.925H276.098V249.566ZM282.699 249.566H279.399V247.925H282.699V249.566ZM289.301 249.566H286V247.925H289.301V249.566ZM295.902 249.566H292.602V247.925H295.902V249.566ZM302.504 249.566H299.203V247.925H302.504V249.566ZM309.105 249.566H305.804V247.925H309.105V249.566ZM315.707 249.566H312.406V247.925H315.707V249.566ZM322.308 249.566H319.007V247.925H322.308V249.566ZM328.91 249.566H325.609V247.925H328.91V249.566ZM335.511 249.566H332.21V247.925H335.511V249.566ZM342.113 249.566H338.812V247.925H342.113V249.566ZM348.714 249.566H345.413V247.925H348.714V249.566ZM355.316 249.566H352.015V247.925H355.316V249.566ZM360.267 249.566H358.616V247.925H360.267V249.566Z" fill="#1A1A19"/>
<path d="M31.2459 54.7738H35.7097V79.3965H31.2459V54.7738Z" fill="#FF3737"/>
<path d="M93.7379 159.83H98.2016V184.453H93.7379V159.83Z" fill="#2FB66D"/>
<path d="M46.8689 90.887H51.3326V112.227H46.8689V90.887Z" fill="#2FB66D"/>
<path d="M210.352 129.736H214.816V151.076H210.352V129.736Z" fill="#FF3737"/>
<path d="M140.049 184.453H145.07V205.793H140.049V184.453Z" fill="#FF3737"/>
<path d="M62.4919 149.434H66.9556V189.378H62.4919V149.434Z" fill="#FF3737"/>
<path d="M264.475 198.679H269.496V238.623H264.475V198.679Z" fill="#FF3737"/>
<path d="M15.6229 41.6418H20.0866V49.8493H15.6229V41.6418Z" fill="#2FB66D"/>
<path d="M124.426 192.113H129.448V200.321H124.426V192.113Z" fill="#FF3737"/>
<path d="M78.1149 195.944H82.5786V204.151H78.1149V195.944Z" fill="#FF3737"/>
<path d="M0 48.755H5.206V60.7927H0V48.755Z" fill="#2FB66D"/>
<path d="M101.549 165.302H106.013V173.51H101.549V165.302Z" fill="#FF3737"/>
<path d="M108.803 181.717H113.825V189.925H108.803V181.717Z" fill="#FF3737"/>
<path d="M39.0574 70.0946H43.5212V87.0568H39.0574V70.0946Z" fill="#2FB66D"/>
<path d="M202.541 175.151H207.004V158.189H202.541V175.151Z" fill="#2FB66D"/>
<path d="M132.237 203.057H137.259V220.019H132.237V203.057Z" fill="#FF3737"/>
<path d="M54.6804 114.962H59.1441V149.434H54.6804V114.962Z" fill="#FF3737"/>
<path d="M218.164 125.906H222.627V160.378H218.164V125.906Z" fill="#2FB66D"/>
<path d="M70.3034 160.925H74.7671V200.868H70.3034V160.925Z" fill="#FF3737"/>
<path d="M272.286 210.17H277.308V250.113H272.286V210.17Z" fill="#FF3737"/>
<path d="M7.8115 33.4342H12.8332V42.1889H7.8115V33.4342Z" fill="#2FB66D"/>
<path d="M23.4345 43.8305H27.8982V52.5852H23.4345V43.8305Z" fill="#FF3737"/>
<path d="M85.9263 185H90.39V193.755H85.9263V185Z" fill="#2FB66D"/>
<path d="M116.614 176.793H121.636V204.698H116.614V176.793Z" fill="#FF3737"/>
<path d="M32.9198 50.9437H34.0358V82.1323H32.9198V50.9437Z" fill="#FF3737"/>
<path d="M17.2968 40.0003H18.4128V50.9437H17.2968V40.0003Z" fill="#2FB66D"/>
<path d="M95.4118 156H96.5277V187.189H95.4118V156Z" fill="#2FB66D"/>
<path d="M48.5428 87.0568H49.6587V114.962H48.5428V87.0568Z" fill="#2FB66D"/>
<path d="M212.026 125.906H213.142V153.811H212.026V125.906Z" fill="#FF3737"/>
<path d="M142.281 180.623H142.839V208.528H142.281V180.623Z" fill="#FF3737"/>
<path d="M2.36637 46.5663H3.31292V62.4342H2.36637V46.5663Z" fill="#2FB66D"/>
<path d="M64.1658 142.868H65.2817V194.302H64.1658V142.868Z" fill="#FF3737"/>
<path d="M266.706 192.113H267.264V243.547H266.706V192.113Z" fill="#FF3737"/>
<path d="M126.658 190.472H127.216V201.415H126.658V190.472Z" fill="#FF3737"/>
<path d="M79.7888 194.302H80.9047V205.245H79.7888V194.302Z" fill="#FF3737"/>
<path d="M103.223 163.661H104.339V174.604H103.223V163.661Z" fill="#FF3737"/>
<path d="M111.035 180.076H111.593V191.019H111.035V180.076Z" fill="#FF3737"/>
<path d="M9.48538 32.3399H10.6013V43.2833H9.48538V32.3399Z" fill="#2FB66D"/>
<path d="M40.7313 67.3587H41.8473V88.6983H40.7313V67.3587Z" fill="#2FB66D"/>
<path d="M204.215 177.887H205.331V156.547H204.215V177.887Z" fill="#2FB66D"/>
<path d="M134.469 200.321H135.027V221.66H134.469V200.321Z" fill="#FF3737"/>
<path d="M56.3543 110.038H57.4702V154.359H56.3543V110.038Z" fill="#FF3737"/>
<path d="M219.838 120.981H220.954V165.302H219.838V120.981Z" fill="#2FB66D"/>
<path d="M71.9773 154.359H73.0932V205.793H71.9773V154.359Z" fill="#FF3737"/>
<path d="M274.518 203.604H275.076V255.038H274.518V203.604Z" fill="#FF3737"/>
<path d="M25.1084 42.7361H26.2243V53.6795H25.1084V42.7361Z" fill="#FF3737"/>
<path d="M87.6003 183.906H88.7162V194.849H87.6003V183.906Z" fill="#2FB66D"/>
<path d="M118.846 173.51H119.404V207.981H118.846V173.51Z" fill="#FF3737"/>
<path d="M183.57 164.208H179.106V188.83H183.57V164.208Z" fill="#2FB66D"/>
<path d="M246.062 210.717H241.04V186.094H246.062V210.717Z" fill="#FF3737"/>
<path d="M310.228 280.208H305.206V340.943H310.228V280.208Z" fill="#FF3737"/>
<path d="M152.882 207.434H147.86V215.642H152.882V207.434Z" fill="#2FB66D"/>
<path d="M199.193 183.359H194.729V191.566H199.193V183.359Z" fill="#2FB66D"/>
<path d="M294.605 286.774H290.141V260.51H294.605V286.774Z" fill="#FF3737"/>
<path d="M261.685 197.585H256.663V189.378H261.685V197.585Z" fill="#2FB66D"/>
<path d="M175.758 180.623H171.295V188.83H175.758V180.623Z" fill="#2FB66D"/>
<path d="M238.25 182.264H233.229V174.057H238.25V182.264Z" fill="#FF3737"/>
<path d="M302.416 272.547H297.952V315.226H302.416V272.547Z" fill="#FF3737"/>
<path d="M168.505 197.038H163.483V205.245H168.505V197.038Z" fill="#FF3737"/>
<path d="M230.439 169.132H225.975V160.925H230.439V169.132Z" fill="#FF3737"/>
<path d="M191.381 174.604H186.918V183.359H191.381V174.604Z" fill="#FF3737"/>
<path d="M286.793 261.057H282.329V252.302H286.793V261.057Z" fill="#FF3737"/>
<path d="M253.873 206.34H248.852V197.585H253.873V206.34Z" fill="#FF3737"/>
<path d="M318.039 301H313.017V352.434H318.039V301Z" fill="#FF3737"/>
<path d="M160.693 192.113H155.672V220.019H160.693V192.113Z" fill="#FF3737"/>
<path d="M181.896 160.378H180.78V191.566H181.896V160.378Z" fill="#2FB66D"/>
<path d="M243.83 214.547H243.272V183.359H243.83V214.547Z" fill="#FF3737"/>
<path d="M308.554 270.906H307.438V347.509H308.554V270.906Z" fill="#FF3737"/>
<path d="M150.65 205.793H150.092V216.736H150.65V205.793Z" fill="#FF3737"/>
<path d="M197.519 181.717H196.403V192.661H197.519V181.717Z" fill="#2FB66D"/>
<path d="M292.931 292.245H291.815V256.679H292.931V292.245Z" fill="#FF3737"/>
<path d="M259.453 199.227H258.895V188.283H259.453V199.227Z" fill="#2FB66D"/>
<path d="M174.085 178.981H172.969V189.925H174.085V178.981Z" fill="#2FB66D"/>
<path d="M236.018 183.906H235.46V172.962H236.018V183.906Z" fill="#FF3737"/>
<path d="M300.742 264.34H299.626V321.245H300.742V264.34Z" fill="#FF3737"/>
<path d="M166.273 195.396H165.715V206.34H166.273V195.396Z" fill="#FF3737"/>
<path d="M228.765 170.774H227.649V159.83H228.765V170.774Z" fill="#FF3737"/>
<path d="M189.708 173.51H188.592V184.453H189.708V173.51Z" fill="#FF3737"/>
<path d="M285.119 262.151H284.003V251.208H285.119V262.151Z" fill="#FF3737"/>
<path d="M251.642 207.434H251.084V196.491H251.642V207.434Z" fill="#FF3737"/>
<path d="M315.807 294.434H314.691V359H315.807V294.434Z" fill="#FF3737"/>
<path d="M158.462 188.83H157.904V223.302H158.462V188.83Z" fill="#FF3737"/>
<path d="M151.064 276.377L148.195 267.623H149.665L151.869 274.907H151.746L154.143 267.623H155.438L157.834 274.907H157.694L159.899 267.623H161.351L158.482 276.377H157.047L154.703 269.339H154.843L152.499 276.377H151.064Z" fill="#1A1A19"/>
<path d="M142.695 276.623C142.03 276.623 141.424 276.506 140.876 276.272C140.328 276.039 139.849 275.718 139.441 275.309C139.045 274.889 138.736 274.399 138.514 273.839C138.292 273.267 138.182 272.654 138.182 272C138.182 271.346 138.292 270.739 138.514 270.179C138.736 269.607 139.045 269.117 139.441 268.708C139.849 268.288 140.328 267.961 140.876 267.728C141.424 267.494 142.03 267.378 142.695 267.378C143.36 267.378 143.966 267.494 144.514 267.728C145.063 267.961 145.535 268.288 145.931 268.708C146.34 269.117 146.655 269.607 146.876 270.179C147.098 270.739 147.209 271.346 147.209 272C147.209 272.654 147.098 273.267 146.876 273.839C146.655 274.399 146.34 274.889 145.931 275.309C145.535 275.718 145.063 276.039 144.514 276.272C143.966 276.506 143.36 276.623 142.695 276.623ZM142.695 275.292C143.15 275.292 143.564 275.21 143.937 275.047C144.322 274.883 144.649 274.656 144.917 274.364C145.185 274.06 145.395 273.71 145.547 273.313C145.698 272.905 145.774 272.467 145.774 272C145.774 271.521 145.698 271.084 145.547 270.687C145.395 270.29 145.185 269.946 144.917 269.654C144.649 269.35 144.322 269.117 143.937 268.953C143.564 268.79 143.15 268.708 142.695 268.708C142.24 268.708 141.82 268.79 141.436 268.953C141.062 269.117 140.742 269.35 140.473 269.654C140.205 269.946 139.995 270.29 139.844 270.687C139.692 271.084 139.616 271.521 139.616 272C139.616 272.467 139.692 272.905 139.844 273.313C139.995 273.71 140.205 274.06 140.473 274.364C140.742 274.656 141.062 274.883 141.436 275.047C141.82 275.21 142.24 275.292 142.695 275.292Z" fill="#1A1A19"/>
<path d="M129.406 276.377V264.121H130.876V275.012H136.894V276.377H129.406Z" fill="#1A1A19"/>
<path d="M116.855 272.298L117.782 272.911C117.514 273.004 117.316 273.132 117.188 273.296C117.071 273.448 117.013 273.634 117.013 273.856C117.013 274.206 117.193 274.475 117.555 274.662C117.916 274.848 118.535 274.942 119.409 274.942C120.727 274.953 121.718 275.163 122.383 275.572C123.048 275.981 123.38 276.57 123.38 277.34C123.38 278.204 122.984 278.881 122.191 279.372C121.398 279.874 120.319 280.124 118.954 280.124C117.683 280.124 116.698 279.909 115.998 279.477C115.298 279.056 114.948 278.467 114.948 277.708C114.948 277.148 115.141 276.669 115.526 276.272C115.91 275.864 116.441 275.578 117.118 275.414V275.695C116.698 275.578 116.365 275.374 116.12 275.082C115.887 274.778 115.771 274.422 115.771 274.014C115.771 273.687 115.858 273.378 116.033 273.086C116.208 272.782 116.482 272.52 116.855 272.298ZM115.508 270.337C115.508 269.905 115.59 269.508 115.753 269.146C115.928 268.784 116.167 268.475 116.47 268.218C116.774 267.95 117.147 267.745 117.59 267.605C118.033 267.453 118.523 267.378 119.059 267.378C119.596 267.378 120.08 267.453 120.511 267.605C120.955 267.745 121.328 267.95 121.631 268.218C121.946 268.475 122.185 268.784 122.348 269.146C122.523 269.508 122.611 269.905 122.611 270.337C122.611 270.769 122.523 271.165 122.348 271.527C122.185 271.889 121.946 272.204 121.631 272.473C121.328 272.73 120.955 272.934 120.511 273.086C120.08 273.226 119.596 273.296 119.059 273.296C118.523 273.296 118.033 273.226 117.59 273.086C117.158 272.934 116.785 272.73 116.47 272.473C116.167 272.204 115.928 271.889 115.753 271.527C115.59 271.165 115.508 270.769 115.508 270.337ZM116.838 270.337C116.838 270.897 117.042 271.329 117.45 271.632C117.858 271.924 118.395 272.07 119.059 272.07C119.712 272.07 120.243 271.924 120.651 271.632C121.071 271.329 121.281 270.897 121.281 270.337C121.281 269.776 121.071 269.35 120.651 269.059C120.243 268.755 119.712 268.603 119.059 268.603C118.395 268.603 117.858 268.755 117.45 269.059C117.042 269.35 116.838 269.776 116.838 270.337ZM116.313 277.551C116.313 277.959 116.54 278.274 116.995 278.496C117.45 278.73 118.097 278.846 118.937 278.846C119.87 278.846 120.605 278.712 121.141 278.444C121.689 278.187 121.963 277.848 121.963 277.428C121.963 277.031 121.724 276.722 121.246 276.5C120.768 276.278 120.092 276.167 119.217 276.167C118.284 276.167 117.567 276.29 117.065 276.535C116.564 276.78 116.313 277.119 116.313 277.551ZM121.788 268.901L120.879 268.13L122.366 266.607L123.24 267.465L121.788 268.901Z" fill="#1A1A19"/>
<path d="M112.18 276.377V271.44C112.18 270.553 111.993 269.876 111.62 269.409C111.258 268.93 110.728 268.691 110.028 268.691C109.655 268.691 109.311 268.761 108.996 268.901C108.692 269.029 108.43 269.216 108.208 269.461C107.998 269.706 107.829 269.998 107.701 270.337C107.584 270.675 107.526 271.049 107.526 271.457L107.351 269.496C107.608 268.784 107.975 268.253 108.453 267.903C108.943 267.553 109.55 267.378 110.273 267.378C110.786 267.378 111.247 267.465 111.655 267.64C112.063 267.815 112.407 268.066 112.687 268.393C112.978 268.708 113.2 269.099 113.352 269.566C113.503 270.022 113.579 270.529 113.579 271.09V276.377H112.18ZM106.127 276.377V267.623H107.526V276.377H106.127Z" fill="#1A1A19"/>
<path d="M102.236 267.623H103.635V276.377H102.236V267.623ZM101.991 264.734C101.991 264.465 102.078 264.243 102.253 264.068C102.44 263.882 102.667 263.788 102.935 263.788C103.204 263.788 103.425 263.882 103.6 264.068C103.787 264.243 103.88 264.465 103.88 264.734C103.88 265.002 103.787 265.23 103.6 265.417C103.425 265.592 103.204 265.679 102.935 265.679C102.667 265.679 102.44 265.592 102.253 265.417C102.078 265.23 101.991 265.002 101.991 264.734Z" fill="#1A1A19"/>
<path d="M90.4448 276.377L87.5758 267.623H89.0453L91.2495 274.907H91.1271L93.5237 267.623H94.8183L97.215 274.907H97.075L99.2793 267.623H100.731L97.8623 276.377H96.4277L94.0835 269.339H94.2235L91.8793 276.377H90.4448Z" fill="#1A1A19"/>
<path d="M82.4281 276.658C81.2385 276.658 80.2238 276.401 79.3841 275.887C78.5444 275.362 77.8913 274.586 77.4248 273.558L78.7543 272.858C79.1392 273.687 79.629 274.3 80.2238 274.697C80.8303 275.082 81.5767 275.274 82.4631 275.274C83.3611 275.274 84.0608 275.093 84.5623 274.732C85.0755 274.358 85.3321 273.844 85.3321 273.191C85.3321 272.63 85.1513 272.199 84.7897 271.895C84.4282 271.58 83.9734 271.323 83.4252 271.125C82.8887 270.926 82.2998 270.751 81.6583 270.599C81.0285 270.448 80.4396 270.249 79.8914 270.004C79.3549 269.747 78.9059 269.415 78.5444 269.006C78.1829 268.586 78.0021 268.014 78.0021 267.29C78.0021 266.776 78.1012 266.31 78.2995 265.889C78.4977 265.469 78.7776 265.107 79.1392 264.804C79.5007 264.5 79.9381 264.267 80.4512 264.103C80.9761 263.928 81.5534 263.841 82.1831 263.841C83.2794 263.841 84.2183 264.086 84.9997 264.576C85.7927 265.055 86.3934 265.738 86.8016 266.625L85.5245 267.308C85.2096 266.631 84.7664 266.111 84.195 265.749C83.6351 265.387 82.9645 265.206 82.1831 265.206C81.3551 265.206 80.6903 265.393 80.1888 265.767C79.699 266.129 79.4541 266.607 79.4541 267.202C79.4541 267.704 79.6348 268.095 79.9964 268.376C80.3579 268.644 80.8128 268.872 81.3609 269.059C81.9091 269.234 82.498 269.397 83.1278 269.549C83.7576 269.701 84.3466 269.911 84.8947 270.179C85.4429 270.448 85.8977 270.804 86.2592 271.247C86.6208 271.691 86.8016 272.298 86.8016 273.068C86.8016 273.628 86.6966 274.13 86.4867 274.574C86.2884 275.018 85.9968 275.397 85.612 275.712C85.2388 276.016 84.7781 276.249 84.2299 276.412C83.6935 276.576 83.0928 276.658 82.4281 276.658Z" fill="#1A1A19"/>
<path d="M336.683 149.591L338.06 150.487L349.173 133.963L347.796 133.067L336.683 149.591ZM338.267 141.708C337.747 141.708 337.264 141.609 336.82 141.409C336.392 141.195 336.017 140.911 335.695 140.559C335.374 140.191 335.121 139.762 334.938 139.272C334.769 138.782 334.685 138.253 334.685 137.686C334.685 137.12 334.769 136.591 334.938 136.101C335.121 135.61 335.374 135.189 335.695 134.837C336.017 134.469 336.392 134.186 336.82 133.986C337.264 133.772 337.747 133.665 338.267 133.665C338.787 133.665 339.262 133.772 339.691 133.986C340.134 134.186 340.517 134.469 340.839 134.837C341.16 135.189 341.405 135.61 341.573 136.101C341.757 136.591 341.849 137.12 341.849 137.686C341.849 138.253 341.757 138.782 341.573 139.272C341.405 139.762 341.16 140.191 340.839 140.559C340.517 140.911 340.134 141.195 339.691 141.409C339.262 141.609 338.787 141.708 338.267 141.708ZM338.267 140.145C338.803 140.145 339.262 139.923 339.645 139.479C340.043 139.019 340.242 138.422 340.242 137.686C340.242 136.951 340.043 136.361 339.645 135.917C339.262 135.457 338.803 135.227 338.267 135.227C337.731 135.227 337.264 135.457 336.866 135.917C336.484 136.361 336.292 136.951 336.292 137.686C336.292 138.422 336.484 139.019 336.866 139.479C337.264 139.923 337.731 140.145 338.267 140.145ZM347.589 150.211C347.069 150.211 346.586 150.112 346.143 149.912C345.714 149.698 345.339 149.414 345.017 149.062C344.696 148.694 344.443 148.265 344.26 147.775C344.091 147.285 344.007 146.756 344.007 146.189C344.007 145.623 344.091 145.094 344.26 144.604C344.443 144.113 344.696 143.692 345.017 143.34C345.339 142.972 345.714 142.689 346.143 142.489C346.586 142.275 347.069 142.168 347.589 142.168C348.11 142.168 348.584 142.275 349.013 142.489C349.457 142.689 349.839 142.972 350.161 143.34C350.482 143.692 350.727 144.113 350.895 144.604C351.079 145.094 351.171 145.623 351.171 146.189C351.171 146.756 351.079 147.285 350.895 147.775C350.727 148.265 350.482 148.694 350.161 149.062C349.839 149.414 349.457 149.698 349.013 149.912C348.584 150.112 348.11 150.211 347.589 150.211ZM347.589 148.648C348.125 148.648 348.584 148.426 348.967 147.982C349.365 147.522 349.564 146.925 349.564 146.189C349.564 145.454 349.365 144.864 348.967 144.42C348.584 143.96 348.125 143.73 347.589 143.73C347.053 143.73 346.586 143.96 346.188 144.42C345.806 144.864 345.614 145.454 345.614 146.189C345.614 146.925 345.806 147.522 346.188 147.982C346.586 148.426 347.053 148.648 347.589 148.648Z" fill="#00B2FD"/>
<path d="M332.254 141.938C332.254 143.133 332.116 144.244 331.841 145.27C331.581 146.297 331.183 147.185 330.647 147.936C330.126 148.687 329.468 149.277 328.672 149.706C327.892 150.134 326.981 150.349 325.94 150.349C324.899 150.349 323.981 150.134 323.185 149.706C322.404 149.277 321.746 148.687 321.21 147.936C320.674 147.185 320.269 146.297 319.993 145.27C319.717 144.244 319.58 143.133 319.58 141.938C319.58 140.743 319.717 139.632 319.993 138.606C320.269 137.579 320.674 136.691 321.21 135.94C321.746 135.189 322.404 134.599 323.185 134.17C323.981 133.741 324.899 133.527 325.94 133.527C326.981 133.527 327.892 133.741 328.672 134.17C329.468 134.599 330.126 135.189 330.647 135.94C331.183 136.691 331.581 137.579 331.841 138.606C332.116 139.632 332.254 140.743 332.254 141.938ZM321.508 141.938C321.508 142.827 321.593 143.669 321.761 144.466C321.929 145.263 322.19 145.96 322.542 146.557C322.909 147.155 323.368 147.63 323.919 147.982C324.486 148.334 325.159 148.51 325.94 148.51C326.721 148.51 327.386 148.334 327.938 147.982C328.489 147.63 328.94 147.155 329.292 146.557C329.644 145.96 329.904 145.263 330.073 144.466C330.241 143.669 330.325 142.827 330.325 141.938C330.325 141.049 330.241 140.207 330.073 139.41C329.904 138.613 329.644 137.916 329.292 137.319C328.94 136.721 328.489 136.246 327.938 135.894C327.386 135.541 326.721 135.365 325.94 135.365C325.159 135.365 324.486 135.541 323.919 135.894C323.368 136.246 322.909 136.721 322.542 137.319C322.19 137.916 321.929 138.613 321.761 139.41C321.593 140.207 321.508 141.049 321.508 141.938Z" fill="#00B2FD"/>
<path d="M311.815 140.858C312.841 140.858 313.652 140.613 314.249 140.122C314.861 139.617 315.167 138.958 315.167 138.146C315.167 137.349 314.861 136.691 314.249 136.17C313.652 135.633 312.841 135.365 311.815 135.365C310.789 135.365 309.97 135.633 309.358 136.17C308.761 136.691 308.463 137.349 308.463 138.146C308.463 138.958 308.761 139.617 309.358 140.122C309.97 140.613 310.789 140.858 311.815 140.858ZM311.815 148.51C312.963 148.51 313.866 148.235 314.524 147.683C315.198 147.116 315.535 146.396 315.535 145.523C315.535 144.665 315.198 143.96 314.524 143.409C313.851 142.842 312.948 142.558 311.815 142.558C310.682 142.558 309.779 142.842 309.106 143.409C308.432 143.96 308.095 144.665 308.095 145.523C308.095 146.396 308.424 147.116 309.083 147.683C309.756 148.235 310.667 148.51 311.815 148.51ZM311.815 150.349C310.973 150.349 310.2 150.234 309.496 150.004C308.807 149.79 308.218 149.483 307.728 149.085C307.238 148.671 306.855 148.181 306.58 147.614C306.304 147.032 306.167 146.389 306.167 145.684C306.167 144.673 306.442 143.822 306.993 143.133C307.544 142.428 308.325 141.93 309.335 141.639V141.846C308.417 141.54 307.72 141.057 307.246 140.398C306.771 139.724 306.534 138.927 306.534 138.008C306.534 137.349 306.656 136.744 306.901 136.193C307.162 135.641 307.521 135.174 307.981 134.791C308.44 134.392 308.991 134.086 309.634 133.872C310.292 133.642 311.019 133.527 311.815 133.527C312.611 133.527 313.33 133.642 313.973 133.872C314.632 134.086 315.19 134.392 315.649 134.791C316.109 135.174 316.461 135.641 316.706 136.193C316.966 136.744 317.096 137.349 317.096 138.008C317.096 138.927 316.859 139.724 316.384 140.398C315.91 141.057 315.213 141.54 314.295 141.846V141.639C315.305 141.93 316.086 142.428 316.637 143.133C317.188 143.822 317.463 144.673 317.463 145.684C317.463 146.389 317.326 147.032 317.05 147.614C316.775 148.181 316.392 148.671 315.902 149.085C315.412 149.483 314.815 149.79 314.111 150.004C313.422 150.234 312.657 150.349 311.815 150.349Z" fill="#00B2FD"/>
<path d="M301.206 148.763C301.206 148.411 301.328 148.105 301.573 147.844C301.818 147.584 302.132 147.453 302.515 147.453C302.943 147.453 303.288 147.63 303.548 147.982C303.824 148.319 303.961 148.763 303.961 149.315C303.961 149.897 303.808 150.51 303.502 151.153C303.196 151.797 302.729 152.433 302.101 153.061L301.229 152.256C301.627 151.858 301.941 151.46 302.17 151.061C302.4 150.663 302.568 150.242 302.675 149.797L302.905 149.889C302.859 149.935 302.79 149.966 302.698 149.981C302.622 150.012 302.538 150.027 302.446 150.027C302.094 150.027 301.795 149.905 301.55 149.66C301.321 149.414 301.206 149.116 301.206 148.763Z" fill="#00B2FD"/>
<path d="M296.023 149.981V135.457L296.391 135.733L292.464 138.376L291.592 136.859L296 133.895H297.86V149.981H296.023Z" fill="#00B2FD"/>
<path d="M284.741 148.51C285.277 148.51 285.767 148.419 286.21 148.235C286.67 148.051 287.06 147.798 287.381 147.476C287.703 147.155 287.955 146.779 288.139 146.35C288.323 145.906 288.415 145.423 288.415 144.902C288.415 144.382 288.323 143.907 288.139 143.478C287.955 143.049 287.695 142.681 287.358 142.375C287.037 142.053 286.647 141.808 286.187 141.639C285.744 141.471 285.254 141.386 284.718 141.386C283.616 141.386 282.736 141.716 282.077 142.375C281.419 143.018 281.09 143.861 281.09 144.902C281.09 145.423 281.174 145.906 281.343 146.35C281.526 146.779 281.779 147.155 282.1 147.476C282.422 147.798 282.805 148.051 283.248 148.235C283.692 148.419 284.19 148.51 284.741 148.51ZM284.741 150.349C282.797 150.349 281.304 149.629 280.264 148.189C279.223 146.749 278.702 144.688 278.702 142.007C278.702 140.628 278.84 139.41 279.116 138.353C279.406 137.296 279.82 136.415 280.355 135.71C280.891 134.99 281.549 134.446 282.33 134.078C283.126 133.711 284.029 133.527 285.039 133.527C286.203 133.527 287.205 133.78 288.047 134.285C288.889 134.775 289.601 135.549 290.183 136.606L288.552 137.549C288.154 136.813 287.665 136.269 287.083 135.917C286.501 135.549 285.805 135.365 284.993 135.365C283.57 135.365 282.483 135.879 281.733 136.905C280.998 137.916 280.631 139.372 280.631 141.271C280.631 141.471 280.631 141.677 280.631 141.892C280.631 142.106 280.646 142.344 280.677 142.604H280.378C280.776 141.639 281.373 140.911 282.169 140.421C282.981 139.931 283.922 139.686 284.993 139.686C285.789 139.686 286.517 139.816 287.175 140.076C287.833 140.337 288.392 140.705 288.851 141.18C289.325 141.639 289.693 142.191 289.953 142.834C290.213 143.478 290.343 144.182 290.343 144.948C290.343 145.73 290.206 146.458 289.93 147.132C289.67 147.79 289.287 148.357 288.782 148.832C288.292 149.307 287.703 149.683 287.014 149.958C286.325 150.219 285.568 150.349 284.741 150.349Z" fill="#00B2FD"/>
<path d="M92.9461 12.6418V7.70414C92.9461 6.817 92.7595 6.13997 92.3863 5.67305C92.0247 5.19446 91.4941 4.95517 90.7943 4.95517C90.4211 4.95517 90.0771 5.0252 89.7622 5.16528C89.4589 5.29368 89.1965 5.48045 88.9749 5.72558C88.765 5.97071 88.5959 6.26254 88.4676 6.60105C88.351 6.93957 88.2927 7.3131 88.2927 7.72165L88.0828 5.7606C88.3393 5.04855 88.7125 4.51743 89.2024 4.16724C89.6922 3.81705 90.2987 3.64196 91.0217 3.64196C91.5349 3.64196 91.9956 3.72951 92.4038 3.9046C92.812 4.0797 93.1618 4.33066 93.4534 4.65751C93.745 4.97268 93.9666 5.36372 94.1182 5.83064C94.2698 6.28588 94.3456 6.79365 94.3456 7.35396V12.6418H92.9461ZM86.8932 12.6418V0H88.2927V12.6418H86.8932Z" fill="#1A1A19"/>
<path d="M78.9913 8.5621L79.9185 9.17493C79.6502 9.26831 79.452 9.39671 79.3237 9.56013C79.207 9.71188 79.1487 9.89865 79.1487 10.1204C79.1487 10.4706 79.3295 10.7391 79.691 10.9259C80.0526 11.1126 80.6707 11.206 81.5454 11.206C82.8633 11.2177 83.8546 11.4278 84.5194 11.8364C85.1842 12.2449 85.5165 12.8344 85.5165 13.6048C85.5165 14.4686 85.12 15.1456 84.327 15.6359C83.5339 16.1378 82.4551 16.3888 81.0906 16.3888C79.8193 16.3888 78.8338 16.1729 78.1341 15.741C77.4343 15.3207 77.0844 14.7312 77.0844 13.9725C77.0844 13.4122 77.2769 12.9336 77.6617 12.5367C78.0466 12.1282 78.5773 11.8422 79.2537 11.6788V11.9589C78.8338 11.8422 78.5015 11.6379 78.2565 11.3461C78.0233 11.0426 77.9067 10.6866 77.9067 10.278C77.9067 9.95118 77.9941 9.64185 78.1691 9.35002C78.344 9.04653 78.6181 8.78388 78.9913 8.5621ZM77.6442 6.60104C77.6442 6.16914 77.7259 5.77226 77.8892 5.4104C78.0641 5.04854 78.3032 4.73921 78.6064 4.4824C78.9096 4.21393 79.2828 4.00965 79.726 3.86957C80.1692 3.71783 80.659 3.64195 81.1955 3.64195C81.732 3.64195 82.216 3.71783 82.6475 3.86957C83.0907 4.00965 83.4639 4.21393 83.7671 4.4824C84.082 4.73921 84.3211 5.04854 84.4844 5.4104C84.6593 5.77226 84.7468 6.16914 84.7468 6.60104C84.7468 7.03294 84.6593 7.42982 84.4844 7.79168C84.3211 8.15355 84.082 8.46871 83.7671 8.73719C83.4639 8.994 83.0907 9.19827 82.6475 9.35002C82.216 9.4901 81.732 9.56013 81.1955 9.56013C80.659 9.56013 80.1692 9.4901 79.726 9.35002C79.2945 9.19827 78.9213 8.994 78.6064 8.73719C78.3032 8.46871 78.0641 8.15355 77.8892 7.79168C77.7259 7.42982 77.6442 7.03294 77.6442 6.60104ZM78.9738 6.60104C78.9738 7.16134 79.1779 7.59324 79.5861 7.89674C79.9943 8.18856 80.5308 8.33448 81.1955 8.33448C81.8486 8.33448 82.3793 8.18856 82.7875 7.89674C83.2073 7.59324 83.4173 7.16134 83.4173 6.60104C83.4173 6.04074 83.2073 5.61468 82.7875 5.32286C82.3793 5.01936 81.8486 4.86761 81.1955 4.86761C80.5308 4.86761 79.9943 5.01936 79.5861 5.32286C79.1779 5.61468 78.9738 6.04074 78.9738 6.60104ZM78.449 13.8149C78.449 14.2235 78.6764 14.5386 79.1312 14.7604C79.5861 14.9939 80.2333 15.1106 81.0731 15.1106C82.0061 15.1106 82.7408 14.9764 83.2773 14.7079C83.8254 14.4511 84.0995 14.1126 84.0995 13.6924C84.0995 13.2955 83.8605 12.9861 83.3823 12.7644C82.9041 12.5426 82.2277 12.4317 81.353 12.4317C80.42 12.4317 79.7027 12.5542 79.2012 12.7994C78.6997 13.0445 78.449 13.383 78.449 13.8149ZM83.9246 5.16527L83.0149 4.39486L84.5019 2.87154L85.3766 3.7295L83.9246 5.16527Z" fill="#1A1A19"/>
<path d="M74.208 3.8871H75.6075V12.6418H74.208V3.8871ZM73.9631 0.998042C73.9631 0.729564 74.0505 0.507778 74.2255 0.332684C74.4121 0.145917 74.6395 0.0525328 74.9077 0.0525328C75.176 0.0525328 75.3976 0.145917 75.5725 0.332684C75.7591 0.507778 75.8524 0.729564 75.8524 0.998042C75.8524 1.26652 75.7591 1.49414 75.5725 1.68091C75.3976 1.856 75.176 1.94355 74.9077 1.94355C74.6395 1.94355 74.4121 1.856 74.2255 1.68091C74.0505 1.49414 73.9631 1.26652 73.9631 0.998042Z" fill="#1A1A19"/>
<path d="M62.1403 12.6418V0.385196H63.6098V5.46293H69.9776V0.385196H71.4471V12.6418H69.9776V6.82866H63.6098V12.6418H62.1403Z" fill="#1A1A19"/>
<path d="M49.5891 8.5621L50.5162 9.17493C50.248 9.26831 50.0497 9.39671 49.9214 9.56013C49.8048 9.71188 49.7465 9.89865 49.7465 10.1204C49.7465 10.4706 49.9273 10.7391 50.2888 10.9259C50.6504 11.1126 51.2685 11.206 52.1432 11.206C53.461 11.2177 54.4524 11.4278 55.1171 11.8364C55.7819 12.2449 56.1143 12.8344 56.1143 13.6048C56.1143 14.4686 55.7178 15.1456 54.9247 15.6359C54.1316 16.1378 53.0529 16.3888 51.6883 16.3888C50.4171 16.3888 49.4316 16.1729 48.7318 15.741C48.0321 15.3207 47.6822 14.7312 47.6822 13.9725C47.6822 13.4122 47.8746 12.9336 48.2595 12.5367C48.6444 12.1282 49.175 11.8422 49.8515 11.6788V11.9589C49.4316 11.8422 49.0992 11.6379 48.8543 11.3461C48.6211 11.0426 48.5044 10.6866 48.5044 10.278C48.5044 9.95118 48.5919 9.64185 48.7668 9.35002C48.9418 9.04653 49.2158 8.78388 49.5891 8.5621ZM48.242 6.60104C48.242 6.16914 48.3237 5.77226 48.4869 5.4104C48.6619 5.04854 48.901 4.73921 49.2042 4.4824C49.5074 4.21393 49.8806 4.00965 50.3238 3.86957C50.767 3.71783 51.2568 3.64195 51.7933 3.64195C52.3298 3.64195 52.8138 3.71783 53.2453 3.86957C53.6885 4.00965 54.0617 4.21393 54.3649 4.4824C54.6798 4.73921 54.9189 5.04854 55.0822 5.4104C55.2571 5.77226 55.3446 6.16914 55.3446 6.60104C55.3446 7.03294 55.2571 7.42982 55.0822 7.79168C54.9189 8.15355 54.6798 8.46871 54.3649 8.73719C54.0617 8.994 53.6885 9.19827 53.2453 9.35002C52.8138 9.4901 52.3298 9.56013 51.7933 9.56013C51.2568 9.56013 50.767 9.4901 50.3238 9.35002C49.8923 9.19827 49.5191 8.994 49.2042 8.73719C48.901 8.46871 48.6619 8.15355 48.4869 7.79168C48.3237 7.42982 48.242 7.03294 48.242 6.60104ZM49.5716 6.60104C49.5716 7.16134 49.7757 7.59324 50.1838 7.89674C50.592 8.18856 51.1285 8.33448 51.7933 8.33448C52.4464 8.33448 52.9771 8.18856 53.3852 7.89674C53.8051 7.59324 54.015 7.16134 54.015 6.60104C54.015 6.04074 53.8051 5.61468 53.3852 5.32286C52.9771 5.01936 52.4464 4.86761 51.7933 4.86761C51.1285 4.86761 50.592 5.01936 50.1838 5.32286C49.7757 5.61468 49.5716 6.04074 49.5716 6.60104ZM49.0467 13.8149C49.0467 14.2235 49.2742 14.5386 49.729 14.7604C50.1838 14.9939 50.8311 15.1106 51.6708 15.1106C52.6038 15.1106 53.3386 14.9764 53.8751 14.7079C54.4232 14.4511 54.6973 14.1126 54.6973 13.6924C54.6973 13.2955 54.4582 12.9861 53.98 12.7644C53.5019 12.5426 52.8254 12.4317 51.9507 12.4317C51.0177 12.4317 50.3005 12.5542 49.799 12.7994C49.2975 13.0445 49.0467 13.383 49.0467 13.8149ZM54.5224 5.16527L53.6127 4.39486L55.0997 2.87154L55.9744 3.7295L54.5224 5.16527Z" fill="#1A1A19"/>
<path d="M44.9135 12.6418V7.70415C44.9135 6.817 44.7269 6.13997 44.3537 5.67305C43.9922 5.19446 43.4615 4.95517 42.7618 4.95517C42.3886 4.95517 42.0445 5.02521 41.7296 5.16528C41.4264 5.29368 41.164 5.48045 40.9424 5.72558C40.7325 5.97072 40.5634 6.26254 40.4351 6.60105C40.3184 6.93957 40.2601 7.3131 40.2601 7.72166L40.0852 5.7606C40.3418 5.04855 40.7091 4.51743 41.1873 4.16724C41.6771 3.81706 42.2836 3.64196 43.0067 3.64196C43.5198 3.64196 43.9805 3.72951 44.3887 3.9046C44.7969 4.0797 45.1409 4.33067 45.4208 4.65751C45.7124 4.97268 45.934 5.36372 46.0856 5.83064C46.2372 6.28588 46.313 6.79366 46.313 7.35396V12.6418H44.9135ZM38.8606 12.6418V3.88709H40.2601V12.6418H38.8606Z" fill="#1A1A19"/>
<path d="M34.9696 3.8871H36.3691V12.6418H34.9696V3.8871ZM34.7247 0.998042C34.7247 0.729564 34.8122 0.507778 34.9871 0.332684C35.1737 0.145917 35.4011 0.0525328 35.6694 0.0525328C35.9376 0.0525328 36.1592 0.145917 36.3341 0.332684C36.5207 0.507778 36.614 0.729564 36.614 0.998042C36.614 1.26652 36.5207 1.49414 36.3341 1.68091C36.1592 1.856 35.9376 1.94355 35.6694 1.94355C35.4011 1.94355 35.1737 1.856 34.9871 1.68091C34.8122 1.49414 34.7247 1.26652 34.7247 0.998042Z" fill="#1A1A19"/>
<path d="M23.1788 12.6418L20.3098 3.88709H21.7793L23.9835 11.171H23.861L26.2577 3.88709H27.5523L29.9489 11.171H29.809L32.0132 3.88709H33.4652L30.5962 12.6418H29.1617L26.8175 5.60302H26.9575L24.6133 12.6418H23.1788Z" fill="#1A1A19"/>
<path d="M15.162 12.922C13.9724 12.922 12.9578 12.6652 12.1181 12.1515C11.2784 11.6263 10.6253 10.85 10.1588 9.82279L11.4883 9.12242C11.8732 9.9512 12.363 10.564 12.9578 10.9609C13.5642 11.3461 14.3107 11.5387 15.197 11.5387C16.095 11.5387 16.7948 11.3578 17.2963 10.9959C17.8095 10.6224 18.066 10.1088 18.066 9.45509C18.066 8.89479 17.8853 8.46289 17.5237 8.1594C17.1622 7.84423 16.7073 7.58742 16.1592 7.38898C15.6227 7.19054 15.0337 7.01545 14.3923 6.8637C13.7625 6.71195 13.1735 6.51351 12.6254 6.26838C12.0889 6.01158 11.6399 5.6789 11.2784 5.27034C10.9168 4.85012 10.7361 4.27814 10.7361 3.55442C10.7361 3.04081 10.8352 2.57389 11.0335 2.15367C11.2317 1.73344 11.5116 1.37158 11.8732 1.06808C12.2347 0.764587 12.6721 0.531128 13.1852 0.367707C13.71 0.192613 14.2873 0.105066 14.9171 0.105066C16.0134 0.105066 16.9522 0.350197 17.7336 0.840461C18.5267 1.31905 19.1273 2.00192 19.5355 2.88906L18.2585 3.57193C17.9436 2.8949 17.5004 2.37545 16.9289 2.01359C16.3691 1.65173 15.6985 1.4708 14.9171 1.4708C14.0891 1.4708 13.4243 1.65757 12.9228 2.0311C12.433 2.39296 12.1881 2.87155 12.1881 3.46687C12.1881 3.96881 12.3688 4.35985 12.7304 4.64001C13.0919 4.90848 13.5468 5.13611 14.0949 5.32287C14.643 5.49797 15.232 5.66139 15.8618 5.81314C16.4916 5.96489 17.0805 6.175 17.6287 6.44348C18.1768 6.71195 18.6317 7.06798 18.9932 7.51155C19.3548 7.95512 19.5355 8.56211 19.5355 9.33253C19.5355 9.89283 19.4306 10.3948 19.2206 10.8383C19.0224 11.2819 18.7308 11.6613 18.3459 11.9765C17.9727 12.2799 17.5121 12.5134 16.9639 12.6768C16.4274 12.8402 15.8268 12.922 15.162 12.922Z" fill="#1A1A19"/>
<path d="M118.631 247.377H119.724V207.981H118.631V247.377Z" fill="#1A1A19"/>
<path d="M237.262 110.585C237.262 119.953 229.674 127.547 220.315 127.547C210.955 127.547 203.367 119.953 203.367 110.585C203.367 101.217 210.955 93.6229 220.315 93.6229C229.674 93.6229 237.262 101.217 237.262 110.585Z" fill="#F9BE08"/>
<path fill-rule="evenodd" clip-rule="evenodd" d="M220.315 125.906C228.769 125.906 235.622 119.047 235.622 110.585C235.622 102.124 228.769 95.2644 220.315 95.2644C211.861 95.2644 205.008 102.124 205.008 110.585C205.008 119.047 211.861 125.906 220.315 125.906ZM220.315 127.547C229.674 127.547 237.262 119.953 237.262 110.585C237.262 101.217 229.674 93.6229 220.315 93.6229C210.955 93.6229 203.367 101.217 203.367 110.585C203.367 119.953 210.955 127.547 220.315 127.547Z" fill="#1A1A19"/>
</svg>
