<svg width="372" height="376" viewBox="0 0 372 376" fill="none" xmlns="http://www.w3.org/2000/svg">
<path fill-rule="evenodd" clip-rule="evenodd" d="M15.0504 343.514H13.4219V341.873H15.0504V343.514ZM21.5647 343.514H18.3076V341.873H21.5647V343.514ZM28.0789 343.514H24.8218V341.873H28.0789V343.514ZM34.5932 343.514H31.336V341.873H34.5932V343.514ZM41.1074 343.514H37.8503V341.873H41.1074V343.514ZM47.6216 343.514H44.3645V341.873H47.6216V343.514ZM54.1359 343.514H50.8788V341.873H54.1359V343.514ZM60.6501 343.514H57.393V341.873H60.6501V343.514ZM67.1644 343.514H63.9072V341.873H67.1644V343.514ZM73.6786 343.514H70.4215V341.873H73.6786V343.514ZM80.1928 343.514H76.9357V341.873H80.1928V343.514ZM86.7071 343.514H83.45V341.873H86.7071V343.514ZM93.2213 343.514H89.9642V341.873H93.2213V343.514ZM99.7356 343.514H96.4784V341.873H99.7356V343.514ZM106.25 343.514H102.993V341.873H106.25V343.514ZM112.764 343.514H109.507V341.873H112.764V343.514ZM119.278 343.514H116.021V341.873H119.278V343.514ZM125.793 343.514H122.535V341.873H125.793V343.514ZM132.307 343.514H129.05V341.873H132.307V343.514ZM138.821 343.514H135.564V341.873H138.821V343.514ZM145.335 343.514H142.078V341.873H145.335V343.514ZM151.849 343.514H148.592V341.873H151.849V343.514ZM158.364 343.514H155.107V341.873H158.364V343.514ZM164.878 343.514H161.621V341.873H164.878V343.514ZM171.392 343.514H168.135V341.873H171.392V343.514ZM177.907 343.514H174.649V341.873H177.907V343.514ZM184.421 343.514H181.164V341.873H184.421V343.514ZM190.935 343.514H187.678V341.873H190.935V343.514ZM197.449 343.514H194.192V341.873H197.449V343.514ZM203.964 343.514H200.706V341.873H203.964V343.514ZM210.478 343.514H207.221V341.873H210.478V343.514ZM216.992 343.514H213.735V341.873H216.992V343.514ZM223.506 343.514H220.249V341.873H223.506V343.514ZM230.021 343.514H226.763V341.873H230.021V343.514ZM236.535 343.514H233.278V341.873H236.535V343.514ZM243.049 343.514H239.792V341.873H243.049V343.514ZM249.563 343.514H246.306V341.873H249.563V343.514ZM256.078 343.514H252.82V341.873H256.078V343.514ZM262.592 343.514H259.335V341.873H262.592V343.514ZM269.106 343.514H265.849V341.873H269.106V343.514ZM275.62 343.514H272.363V341.873H275.62V343.514ZM282.135 343.514H278.877V341.873H282.135V343.514ZM288.649 343.514H285.392V341.873H288.649V343.514ZM295.163 343.514H291.906V341.873H295.163V343.514ZM301.677 343.514H298.42V341.873H301.677V343.514ZM308.192 343.514H304.934V341.873H308.192V343.514ZM314.706 343.514H311.449V341.873H314.706V343.514ZM321.22 343.514H317.963V341.873H321.22V343.514ZM327.734 343.514H324.477V341.873H327.734V343.514ZM334.248 343.514H330.991V341.873H334.248V343.514ZM340.763 343.514H337.506V341.873H340.763V343.514ZM347.277 343.514H344.02V341.873H347.277V343.514ZM353.791 343.514H350.534V341.873H353.791V343.514ZM360.305 343.514H357.048V341.873H360.305V343.514ZM366.82 343.514H363.562V341.873H366.82V343.514ZM371.705 343.514H370.077V341.873H371.705V343.514Z" fill="#1A1A19"/>
<path fill-rule="evenodd" clip-rule="evenodd" d="M15.0504 252.713H13.4219V251.072H15.0504V252.713ZM21.5647 252.713H18.3076V251.072H21.5647V252.713ZM28.0789 252.713H24.8218V251.072H28.0789V252.713ZM34.5932 252.713H31.336V251.072H34.5932V252.713ZM41.1074 252.713H37.8503V251.072H41.1074V252.713ZM47.6216 252.713H44.3645V251.072H47.6216V252.713ZM54.1359 252.713H50.8788V251.072H54.1359V252.713ZM60.6501 252.713H57.393V251.072H60.6501V252.713ZM67.1644 252.713H63.9072V251.072H67.1644V252.713ZM73.6786 252.713H70.4215V251.072H73.6786V252.713ZM80.1928 252.713H76.9357V251.072H80.1928V252.713ZM86.7071 252.713H83.45V251.072H86.7071V252.713ZM93.2213 252.713H89.9642V251.072H93.2213V252.713ZM99.7356 252.713H96.4784V251.072H99.7356V252.713ZM106.25 252.713H102.993V251.072H106.25V252.713ZM112.764 252.713H109.507V251.072H112.764V252.713ZM119.278 252.713H116.021V251.072H119.278V252.713ZM125.793 252.713H122.535V251.072H125.793V252.713ZM132.307 252.713H129.05V251.072H132.307V252.713ZM138.821 252.713H135.564V251.072H138.821V252.713ZM145.335 252.713H142.078V251.072H145.335V252.713ZM151.849 252.713H148.592V251.072H151.849V252.713ZM158.364 252.713H155.107V251.072H158.364V252.713ZM164.878 252.713H161.621V251.072H164.878V252.713ZM171.392 252.713H168.135V251.072H171.392V252.713ZM177.907 252.713H174.649V251.072H177.907V252.713ZM184.421 252.713H181.164V251.072H184.421V252.713ZM190.935 252.713H187.678V251.072H190.935V252.713ZM197.449 252.713H194.192V251.072H197.449V252.713ZM203.964 252.713H200.706V251.072H203.964V252.713ZM210.478 252.713H207.221V251.072H210.478V252.713ZM216.992 252.713H213.735V251.072H216.992V252.713ZM223.506 252.713H220.249V251.072H223.506V252.713ZM230.021 252.713H226.763V251.072H230.021V252.713ZM236.535 252.713H233.278V251.072H236.535V252.713ZM243.049 252.713H239.792V251.072H243.049V252.713ZM249.563 252.713H246.306V251.072H249.563V252.713ZM256.078 252.713H252.82V251.072H256.078V252.713ZM262.592 252.713H259.335V251.072H262.592V252.713ZM269.106 252.713H265.849V251.072H269.106V252.713ZM275.62 252.713H272.363V251.072H275.62V252.713ZM282.135 252.713H278.877V251.072H282.135V252.713ZM288.649 252.713H285.392V251.072H288.649V252.713ZM295.163 252.713H291.906V251.072H295.163V252.713ZM301.677 252.713H298.42V251.072H301.677V252.713ZM308.192 252.713H304.934V251.072H308.192V252.713ZM314.706 252.713H311.449V251.072H314.706V252.713ZM321.22 252.713H317.963V251.072H321.22V252.713ZM327.734 252.713H324.477V251.072H327.734V252.713ZM334.248 252.713H330.991V251.072H334.248V252.713ZM340.763 252.713H337.506V251.072H340.763V252.713ZM347.277 252.713H344.02V251.072H347.277V252.713ZM353.791 252.713H350.534V251.072H353.791V252.713ZM360.305 252.713H357.048V251.072H360.305V252.713ZM366.82 252.713H363.562V251.072H366.82V252.713ZM371.705 252.713H370.077V251.072H371.705V252.713Z" fill="#1A1A19"/>
<path fill-rule="evenodd" clip-rule="evenodd" d="M7.93948 181.603H6.31092V179.962H7.93948V181.603ZM14.4537 181.603H11.1966V179.962H14.4537V181.603ZM20.968 181.603H17.7108V179.962H20.968V181.603ZM27.4822 181.603H24.2251V179.962H27.4822V181.603ZM33.9964 181.603H30.7393V179.962H33.9964V181.603ZM40.5107 181.603H37.2536V179.962H40.5107V181.603ZM47.0249 181.603H43.7678V179.962H47.0249V181.603ZM53.5392 181.603H50.282V179.962H53.5392V181.603ZM60.0534 181.603H56.7963V179.962H60.0534V181.603ZM66.5676 181.603H63.3105V179.962H66.5676V181.603ZM73.0819 181.603H69.8248V179.962H73.0819V181.603ZM79.5961 181.603H76.339V179.962H79.5961V181.603ZM86.1104 181.603H82.8532V179.962H86.1104V181.603ZM92.6246 181.603H89.3675V179.962H92.6246V181.603ZM99.1388 181.603H95.8817V179.962H99.1388V181.603ZM105.653 181.603H102.396V179.962H105.653V181.603ZM112.167 181.603H108.91V179.962H112.167V181.603ZM118.682 181.603H115.424V179.962H118.682V181.603ZM125.196 181.603H121.939V179.962H125.196V181.603ZM131.71 181.603H128.453V179.962H131.71V181.603ZM138.224 181.603H134.967V179.962H138.224V181.603ZM144.739 181.603H141.481V179.962H144.739V181.603ZM151.253 181.603H147.996V179.962H151.253V181.603ZM157.767 181.603H154.51V179.962H157.767V181.603ZM164.281 181.603H161.024V179.962H164.281V181.603ZM170.796 181.603H167.538V179.962H170.796V181.603ZM177.31 181.603H174.053V179.962H177.31V181.603ZM183.824 181.603H180.567V179.962H183.824V181.603ZM190.338 181.603H187.081V179.962H190.338V181.603ZM196.853 181.603H193.595V179.962H196.853V181.603ZM203.367 181.603H200.11V179.962H203.367V181.603ZM209.881 181.603H206.624V179.962H209.881V181.603ZM216.395 181.603H213.138V179.962H216.395V181.603ZM222.91 181.603H219.652V179.962H222.91V181.603ZM229.424 181.603H226.167V179.962H229.424V181.603ZM235.938 181.603H232.681V179.962H235.938V181.603ZM242.452 181.603H239.195V179.962H242.452V181.603ZM248.967 181.603H245.709V179.962H248.967V181.603ZM255.481 181.603H252.224V179.962H255.481V181.603ZM261.995 181.603H258.738V179.962H261.995V181.603ZM268.509 181.603H265.252V179.962H268.509V181.603ZM275.024 181.603H271.767V179.962H275.024V181.603ZM281.538 181.603H278.281V179.962H281.538V181.603ZM288.052 181.603H284.795V179.962H288.052V181.603ZM294.566 181.603H291.309V179.962H294.566V181.603ZM301.081 181.603H297.823V179.962H301.081V181.603ZM307.595 181.603H304.338V179.962H307.595V181.603ZM314.109 181.603H310.852V179.962H314.109V181.603ZM320.623 181.603H317.366V179.962H320.623V181.603ZM327.137 181.603H323.88V179.962H327.137V181.603ZM333.652 181.603H330.395V179.962H333.652V181.603ZM340.166 181.603H336.909V179.962H340.166V181.603ZM346.68 181.603H343.423V179.962H346.68V181.603ZM353.194 181.603H349.937V179.962H353.194V181.603ZM359.709 181.603H356.452V179.962H359.709V181.603ZM364.594 181.603H362.966V179.962H364.594V181.603Z" fill="#00B2FD"/>
<path fill-rule="evenodd" clip-rule="evenodd" d="M15.0504 36.1018H13.4219V34.4608H15.0504V36.1018ZM21.5647 36.1018H18.3076V34.4608H21.5647V36.1018ZM28.0789 36.1018H24.8218V34.4608H28.0789V36.1018ZM34.5932 36.1018H31.336V34.4608H34.5932V36.1018ZM41.1074 36.1018H37.8503V34.4608H41.1074V36.1018ZM47.6216 36.1018H44.3645V34.4608H47.6216V36.1018ZM54.1359 36.1018H50.8788V34.4608H54.1359V36.1018ZM60.6501 36.1018H57.393V34.4608H60.6501V36.1018ZM67.1644 36.1018H63.9072V34.4608H67.1644V36.1018ZM73.6786 36.1018H70.4215V34.4608H73.6786V36.1018ZM80.1928 36.1018H76.9357V34.4608H80.1928V36.1018ZM86.7071 36.1018H83.45V34.4608H86.7071V36.1018ZM93.2213 36.1018H89.9642V34.4608H93.2213V36.1018ZM99.7356 36.1018H96.4784V34.4608H99.7356V36.1018ZM106.25 36.1018H102.993V34.4608H106.25V36.1018ZM112.764 36.1018H109.507V34.4608H112.764V36.1018ZM119.278 36.1018H116.021V34.4608H119.278V36.1018ZM125.793 36.1018H122.535V34.4608H125.793V36.1018ZM132.307 36.1018H129.05V34.4608H132.307V36.1018ZM138.821 36.1018H135.564V34.4608H138.821V36.1018ZM145.335 36.1018H142.078V34.4608H145.335V36.1018ZM151.849 36.1018H148.592V34.4608H151.849V36.1018ZM158.364 36.1018H155.107V34.4608H158.364V36.1018ZM164.878 36.1018H161.621V34.4608H164.878V36.1018ZM171.392 36.1018H168.135V34.4608H171.392V36.1018ZM177.907 36.1018H174.649V34.4608H177.907V36.1018ZM184.421 36.1018H181.164V34.4608H184.421V36.1018ZM190.935 36.1018H187.678V34.4608H190.935V36.1018ZM197.449 36.1018H194.192V34.4608H197.449V36.1018ZM203.964 36.1018H200.706V34.4608H203.964V36.1018ZM210.478 36.1018H207.221V34.4608H210.478V36.1018ZM216.992 36.1018H213.735V34.4608H216.992V36.1018ZM223.506 36.1018H220.249V34.4608H223.506V36.1018ZM230.021 36.1018H226.763V34.4608H230.021V36.1018ZM236.535 36.1018H233.278V34.4608H236.535V36.1018ZM243.049 36.1018H239.792V34.4608H243.049V36.1018ZM249.563 36.1018H246.306V34.4608H249.563V36.1018ZM256.078 36.1018H252.82V34.4608H256.078V36.1018ZM262.592 36.1018H259.335V34.4608H262.592V36.1018ZM269.106 36.1018H265.849V34.4608H269.106V36.1018ZM275.62 36.1018H272.363V34.4608H275.62V36.1018ZM282.135 36.1018H278.877V34.4608H282.135V36.1018ZM288.649 36.1018H285.392V34.4608H288.649V36.1018ZM295.163 36.1018H291.906V34.4608H295.163V36.1018ZM301.677 36.1018H298.42V34.4608H301.677V36.1018ZM308.192 36.1018H304.934V34.4608H308.192V36.1018ZM314.706 36.1018H311.449V34.4608H314.706V36.1018ZM321.22 36.1018H317.963V34.4608H321.22V36.1018ZM327.734 36.1018H324.477V34.4608H327.734V36.1018ZM334.248 36.1018H330.991V34.4608H334.248V36.1018ZM340.763 36.1018H337.506V34.4608H340.763V36.1018ZM347.277 36.1018H344.02V34.4608H347.277V36.1018ZM353.791 36.1018H350.534V34.4608H353.791V36.1018ZM360.305 36.1018H357.048V34.4608H360.305V36.1018ZM366.82 36.1018H363.562V34.4608H366.82V36.1018ZM371.705 36.1018H370.077V34.4608H371.705V36.1018Z" fill="#1A1A19"/>
<path d="M57.1817 256.542H62.1047V231.927H57.1817V256.542Z" fill="#2FB66D"/>
<path d="M120.633 151.518H125.556V126.903H120.633V151.518Z" fill="#FF3737"/>
<path d="M73.5916 220.44H77.9676V199.107H73.5916V220.44Z" fill="#FF3737"/>
<path d="M240.973 181.603H245.349V160.27H240.973V181.603Z" fill="#2FB66D"/>
<path d="M168.769 126.903H173.692V105.57H168.769V126.903Z" fill="#2FB66D"/>
<path d="M89.4545 161.911H93.8305V121.98H89.4545V161.911Z" fill="#2FB66D"/>
<path d="M295.673 112.681H301.143V72.7507H295.673V112.681Z" fill="#2FB66D"/>
<path d="M41.3187 311.242H45.6947V288.815H41.3187V311.242Z" fill="#FF3737"/>
<path d="M16.1569 304.131H21.6268V326.557H16.1569V304.131Z" fill="#FF3737"/>
<path d="M152.906 119.245H157.829V111.04H152.906V119.245Z" fill="#2FB66D"/>
<path d="M105.317 115.416H110.24V107.211H105.317V115.416Z" fill="#2FB66D"/>
<path d="M25.4558 339.138H30.9258V317.259H25.4558V339.138Z" fill="#FF3737"/>
<path d="M0.293945 276.234H5.76392V298.114H0.293945V276.234Z" fill="#FF3737"/>
<path d="M129.385 146.048H133.761V137.843H129.385V146.048Z" fill="#2FB66D"/>
<path d="M137.043 129.638H142.513V121.433H137.043V129.638Z" fill="#2FB66D"/>
<path d="M65.9336 241.226H69.7626V224.269H65.9336V241.226Z" fill="#FF3737"/>
<path d="M232.221 136.202H237.144V153.159H232.221V136.202Z" fill="#FF3737"/>
<path d="M161.111 108.305H166.034V91.3486H161.111V108.305Z" fill="#2FB66D"/>
<path d="M81.2496 196.372H86.1725V161.911H81.2496V196.372Z" fill="#2FB66D"/>
<path d="M249.178 185.432H253.007V150.971H249.178V185.432Z" fill="#FF3737"/>
<path d="M97.6595 150.424H101.488V110.493H97.6595V150.424Z" fill="#2FB66D"/>
<path d="M303.878 95.1775H309.347V63.9987H303.878V95.1775Z" fill="#2FB66D"/>
<path d="M33.6608 333.121H39.1308V309.601H33.6608V333.121Z" fill="#2FB66D"/>
<path d="M9.0459 282.251H13.4219V305.772H9.0459V282.251Z" fill="#2FB66D"/>
<path d="M49.5237 287.174H54.4467V262.012H49.5237V287.174Z" fill="#2FB66D"/>
<path d="M113.522 126.356H118.445V117.604H113.522V126.356Z" fill="#FF3737"/>
<path d="M144.701 134.561H149.624V106.665H144.701V134.561Z" fill="#2FB66D"/>
<path d="M59.3697 260.371H60.4637V229.192H59.3697V260.371Z" fill="#2FB66D"/>
<path d="M42.9597 315.617H44.0537V286.08H42.9597V315.617Z" fill="#FF3737"/>
<path d="M17.7979 299.755H18.8919V329.292H17.7979V299.755Z" fill="#FF3737"/>
<path d="M122.821 155.347H123.915V124.168H122.821V155.347Z" fill="#FF3737"/>
<path d="M75.2326 224.269H76.3266V196.372H75.2326V224.269Z" fill="#FF3737"/>
<path d="M242.614 185.432H243.708V157.535H242.614V185.432Z" fill="#2FB66D"/>
<path d="M170.957 130.732H172.051V102.835H170.957V130.732Z" fill="#2FB66D"/>
<path d="M27.6438 343.514H28.7378V313.977H27.6438V343.514Z" fill="#FF3737"/>
<path d="M2.48193 271.858H3.57593V301.396H2.48193V271.858Z" fill="#FF3737"/>
<path d="M91.6425 168.475H92.7365V117.057H91.6425V168.475Z" fill="#2FB66D"/>
<path d="M298.408 119.245H298.955V67.8277H298.408V119.245Z" fill="#2FB66D"/>
<path d="M155.094 120.886H155.641V109.946H155.094V120.886Z" fill="#2FB66D"/>
<path d="M106.958 117.057H108.052V106.117H106.958V117.057Z" fill="#2FB66D"/>
<path d="M131.026 147.689H132.12V136.749H131.026V147.689Z" fill="#2FB66D"/>
<path d="M139.231 131.279H139.778V120.339H139.231V131.279Z" fill="#2FB66D"/>
<path d="M35.8488 336.403H36.3958V306.866H35.8488V336.403Z" fill="#2FB66D"/>
<path d="M10.6869 278.969H11.2339V308.507H10.6869V278.969Z" fill="#2FB66D"/>
<path d="M67.0276 243.961H68.1216V222.628H67.0276V243.961Z" fill="#FF3737"/>
<path d="M234.409 133.467H235.503V154.8H234.409V133.467Z" fill="#FF3737"/>
<path d="M163.299 111.04H163.846V89.7076H163.299V111.04Z" fill="#2FB66D"/>
<path d="M82.8905 201.295H84.5315V156.988H82.8905V201.295Z" fill="#2FB66D"/>
<path d="M250.819 190.355H251.913V146.048H250.819V190.355Z" fill="#FF3737"/>
<path d="M98.7535 156.988H99.8475V105.57H98.7535V156.988Z" fill="#2FB66D"/>
<path d="M306.065 100.101H306.612V60.1697H306.065V100.101Z" fill="#2FB66D"/>
<path d="M51.1647 290.456H52.2587V258.73H51.1647V290.456Z" fill="#2FB66D"/>
<path d="M51.1647 341.326H52.2587V289.909H51.1647V341.326Z" fill="#1A1A19"/>
<path d="M98.7535 104.477H99.8475V38.8368H98.7535V104.477Z" fill="#1A1A19"/>
<path d="M115.163 127.45H116.804V116.51H115.163V127.45Z" fill="#FF3737"/>
<path d="M146.889 137.843H147.436V103.383H146.889V137.843Z" fill="#2FB66D"/>
<path d="M213.076 147.142H208.153V122.527H213.076V147.142Z" fill="#FF3737"/>
<path d="M277.075 100.648H272.699V125.262H277.075V100.648Z" fill="#2FB66D"/>
<path d="M342.714 56.3407H337.791V31.7258H342.714V56.3407Z" fill="#FF3737"/>
<path d="M181.897 103.93H176.427V95.7245H181.897V103.93Z" fill="#FF3737"/>
<path d="M229.486 127.997H225.11V119.792H229.486V127.997Z" fill="#FF3737"/>
<path d="M326.851 28.9909H322.475V41.5718H326.851V28.9909Z" fill="#2FB66D"/>
<path d="M293.485 113.775H288.015V121.98H293.485V113.775Z" fill="#2FB66D"/>
<path d="M205.418 130.732H200.495V122.527H205.418V130.732Z" fill="#FF3737"/>
<path d="M269.417 129.091H263.947V137.296H269.417V129.091Z" fill="#2FB66D"/>
<path d="M335.056 45.4008H330.68V25.1619H335.056V45.4008Z" fill="#2FB66D"/>
<path d="M198.307 114.322H192.837V106.117H198.307V114.322Z" fill="#2FB66D"/>
<path d="M261.212 142.219H256.289V150.424H261.212V142.219Z" fill="#2FB66D"/>
<path d="M221.281 136.749H216.905V127.997H221.281V136.749Z" fill="#2FB66D"/>
<path d="M318.646 38.8368H313.723V68.9217H318.646V38.8368Z" fill="#2FB66D"/>
<path d="M285.28 105.023H279.81V113.775H285.28V105.023Z" fill="#2FB66D"/>
<path d="M350.919 24.6149H345.449V2.73499H350.919V24.6149Z" fill="#2FB66D"/>
<path d="M189.555 119.245H185.179V91.3486H189.555V119.245Z" fill="#2FB66D"/>
<path d="M211.435 150.971H210.341V119.792H211.435V150.971Z" fill="#FF3737"/>
<path d="M274.887 96.8185H274.34V127.997H274.887V96.8185Z" fill="#2FB66D"/>
<path d="M341.073 60.1697H339.432V28.9909H341.073V60.1697Z" fill="#FF3737"/>
<path d="M179.709 105.57H179.162V94.6305H179.709V105.57Z" fill="#2FB66D"/>
<path d="M227.298 129.638H226.204V118.698H227.298V129.638Z" fill="#FF3737"/>
<path d="M325.21 26.8029H324.116V43.2128H325.21V26.8029Z" fill="#2FB66D"/>
<path d="M291.297 112.134H290.75V123.074H291.297V112.134Z" fill="#2FB66D"/>
<path d="M203.777 132.373H202.136V121.433H203.777V132.373Z" fill="#FF3737"/>
<path d="M267.229 127.45H266.682V138.39H267.229V127.45Z" fill="#2FB66D"/>
<path d="M332.868 49.2298H331.774V22.4269H332.868V49.2298Z" fill="#2FB66D"/>
<path d="M195.572 115.963H195.025V105.023H195.572V115.963Z" fill="#2FB66D"/>
<path d="M259.571 140.578H257.93V151.518H259.571V140.578Z" fill="#2FB66D"/>
<path d="M219.64 137.843H218.546V126.903H219.64V137.843Z" fill="#2FB66D"/>
<path d="M316.458 35.0078H315.911V72.7507H316.458V35.0078Z" fill="#2FB66D"/>
<path d="M282.545 103.93H281.998V114.869H282.545V103.93Z" fill="#2FB66D"/>
<path d="M348.731 27.3499H347.637V0H348.731V27.3499Z" fill="#2FB66D"/>
<path d="M187.367 122.527H186.82V88.0666H187.367V122.527Z" fill="#2FB66D"/>
<path d="M87.4453 371.411L84.5746 362.659H86.0449L88.2504 369.941H88.1279L90.5259 362.659H91.8212L94.2193 369.941H94.0792L96.2847 362.659H97.7375L94.8669 371.411H93.4316L91.0861 364.375H91.2261L88.8806 371.411H87.4453Z" fill="#1A1A19"/>
<path d="M79.0714 371.657C78.4062 371.657 77.7994 371.54 77.251 371.307C76.7025 371.073 76.2241 370.752 75.8157 370.344C75.4189 369.924 75.1097 369.434 74.888 368.874C74.6662 368.302 74.5554 367.689 74.5554 367.036C74.5554 366.382 74.6662 365.776 74.888 365.215C75.1097 364.644 75.4189 364.154 75.8157 363.745C76.2241 363.325 76.7025 362.998 77.251 362.765C77.7994 362.531 78.4062 362.415 79.0714 362.415C79.7365 362.415 80.3433 362.531 80.8918 362.765C81.4403 362.998 81.9129 363.325 82.3096 363.745C82.718 364.154 83.0331 364.644 83.2548 365.215C83.4765 365.776 83.5874 366.382 83.5874 367.036C83.5874 367.689 83.4765 368.302 83.2548 368.874C83.0331 369.434 82.718 369.924 82.3096 370.344C81.9129 370.752 81.4403 371.073 80.8918 371.307C80.3433 371.54 79.7365 371.657 79.0714 371.657ZM79.0714 370.327C79.5265 370.327 79.9408 370.245 80.3142 370.081C80.6993 369.918 81.026 369.691 81.2944 369.399C81.5628 369.095 81.7728 368.745 81.9245 368.349C82.0762 367.94 82.1521 367.503 82.1521 367.036C82.1521 366.557 82.0762 366.12 81.9245 365.723C81.7728 365.326 81.5628 364.982 81.2944 364.69C81.026 364.387 80.6993 364.154 80.3142 363.99C79.9408 363.827 79.5265 363.745 79.0714 363.745C78.6163 363.745 78.1962 363.827 77.8111 363.99C77.4377 364.154 77.1168 364.387 76.8484 364.69C76.58 364.982 76.37 365.326 76.2183 365.723C76.0666 366.12 75.9907 366.557 75.9907 367.036C75.9907 367.503 76.0666 367.94 76.2183 368.349C76.37 368.745 76.58 369.095 76.8484 369.399C77.1168 369.691 77.4377 369.918 77.8111 370.081C78.1962 370.245 78.6163 370.327 79.0714 370.327Z" fill="#1A1A19"/>
<path d="M65.7751 371.412V359.159H67.2455V370.046H73.2668V371.412H65.7751Z" fill="#1A1A19"/>
<path d="M53.2168 367.333L54.1445 367.946C53.8761 368.039 53.6777 368.168 53.5493 368.331C53.4326 368.483 53.3743 368.669 53.3743 368.891C53.3743 369.241 53.5552 369.51 53.9169 369.696C54.2787 369.883 54.8971 369.976 55.7723 369.976C57.091 369.988 58.0828 370.198 58.748 370.607C59.4131 371.015 59.7457 371.604 59.7457 372.374C59.7457 373.238 59.349 373.915 58.5555 374.405C57.7619 374.907 56.6825 375.158 55.3172 375.158C54.0453 375.158 53.0592 374.942 52.3591 374.51C51.6589 374.09 51.3088 373.5 51.3088 372.742C51.3088 372.182 51.5014 371.703 51.8865 371.307C52.2715 370.898 52.8025 370.612 53.4793 370.449V370.729C53.0592 370.612 52.7267 370.408 52.4816 370.116C52.2482 369.813 52.1315 369.457 52.1315 369.049C52.1315 368.722 52.219 368.413 52.3941 368.121C52.5691 367.818 52.8433 367.555 53.2168 367.333ZM51.869 365.373C51.869 364.941 51.9506 364.544 52.114 364.183C52.289 363.821 52.5283 363.512 52.8317 363.255C53.1351 362.986 53.5085 362.782 53.9519 362.642C54.3954 362.491 54.8855 362.415 55.4223 362.415C55.959 362.415 56.4433 362.491 56.8751 362.642C57.3185 362.782 57.6919 362.986 57.9953 363.255C58.3104 363.512 58.5496 363.821 58.713 364.183C58.888 364.544 58.9755 364.941 58.9755 365.373C58.9755 365.805 58.888 366.201 58.713 366.563C58.5496 366.925 58.3104 367.24 57.9953 367.508C57.6919 367.765 57.3185 367.969 56.8751 368.121C56.4433 368.261 55.959 368.331 55.4223 368.331C54.8855 368.331 54.3954 368.261 53.9519 368.121C53.5202 367.969 53.1467 367.765 52.8317 367.508C52.5283 367.24 52.289 366.925 52.114 366.563C51.9506 366.201 51.869 365.805 51.869 365.373ZM53.1993 365.373C53.1993 365.933 53.4035 366.365 53.8119 366.668C54.2203 366.96 54.7571 367.106 55.4223 367.106C56.0757 367.106 56.6067 366.96 57.0151 366.668C57.4352 366.365 57.6453 365.933 57.6453 365.373C57.6453 364.813 57.4352 364.387 57.0151 364.095C56.6067 363.792 56.0757 363.64 55.4223 363.64C54.7571 363.64 54.2203 363.792 53.8119 364.095C53.4035 364.387 53.1993 364.813 53.1993 365.373ZM52.6741 372.584C52.6741 372.993 52.9017 373.308 53.3568 373.53C53.8119 373.763 54.4595 373.88 55.2997 373.88C56.2333 373.88 56.9684 373.746 57.5052 373.477C58.0537 373.22 58.3279 372.882 58.3279 372.462C58.3279 372.065 58.0887 371.756 57.6102 371.534C57.1318 371.312 56.455 371.202 55.5798 371.202C54.6462 371.202 53.9286 371.324 53.4268 371.569C52.925 371.814 52.6741 372.153 52.6741 372.584ZM58.1529 363.938L57.2427 363.167L58.7305 361.645L59.6057 362.502L58.1529 363.938Z" fill="#1A1A19"/>
<path d="M48.5385 371.412V366.476C48.5385 365.589 48.3518 364.912 47.9784 364.445C47.6167 363.967 47.0857 363.728 46.3856 363.728C46.0121 363.728 45.6679 363.798 45.3528 363.938C45.0494 364.066 44.7869 364.253 44.5652 364.498C44.3551 364.743 44.1859 365.035 44.0575 365.373C43.9408 365.711 43.8825 366.085 43.8825 366.493L43.7075 364.533C43.9642 363.821 44.3318 363.29 44.8102 362.94C45.3003 362.59 45.9071 362.415 46.6306 362.415C47.1441 362.415 47.605 362.502 48.0134 362.677C48.4218 362.852 48.7661 363.103 49.0462 363.43C49.3379 363.745 49.5596 364.136 49.7113 364.603C49.863 365.058 49.9389 365.565 49.9389 366.126V371.412H48.5385ZM42.4822 371.412V362.66H43.8825V371.412H42.4822Z" fill="#1A1A19"/>
<path d="M38.5889 362.66H39.9893V371.411H38.5889V362.66ZM38.3439 359.771C38.3439 359.503 38.4314 359.281 38.6064 359.106C38.7931 358.92 39.0207 358.826 39.2891 358.826C39.5575 358.826 39.7792 358.92 39.9542 359.106C40.1409 359.281 40.2343 359.503 40.2343 359.771C40.2343 360.04 40.1409 360.267 39.9542 360.454C39.7792 360.629 39.5575 360.717 39.2891 360.717C39.0207 360.717 38.7931 360.629 38.6064 360.454C38.4314 360.267 38.3439 360.04 38.3439 359.771Z" fill="#1A1A19"/>
<path d="M26.7914 371.411L23.9208 362.659H25.3911L27.5966 369.941H27.4741L29.8721 362.659H31.1674L33.5655 369.941H33.4254L35.6309 362.659H37.0837L34.2131 371.411H32.7778L30.4323 364.375H30.5723L28.2268 371.411H26.7914Z" fill="#1A1A19"/>
<path d="M18.7701 371.691C17.5799 371.691 16.5647 371.435 15.7245 370.921C14.8843 370.396 14.2308 369.62 13.764 368.593L15.0943 367.893C15.4794 368.722 15.9695 369.334 16.5647 369.731C17.1715 370.116 17.9183 370.309 18.8052 370.309C19.7037 370.309 20.4038 370.128 20.9056 369.766C21.4191 369.393 21.6758 368.879 21.6758 368.226C21.6758 367.665 21.4949 367.234 21.1332 366.93C20.7714 366.615 20.3163 366.358 19.7679 366.16C19.2311 365.962 18.6418 365.787 18 365.635C17.3698 365.483 16.7805 365.285 16.2321 365.04C15.6953 364.783 15.246 364.451 14.8843 364.042C14.5225 363.622 14.3417 363.05 14.3417 362.327C14.3417 361.813 14.4408 361.347 14.6392 360.926C14.8376 360.506 15.1177 360.145 15.4794 359.841C15.8412 359.538 16.2788 359.304 16.7922 359.141C17.3173 358.966 17.895 358.878 18.5251 358.878C19.622 358.878 20.5614 359.124 21.3432 359.614C22.1367 360.092 22.7377 360.775 23.1461 361.662L21.8683 362.344C21.5533 361.667 21.1098 361.148 20.538 360.786C19.9779 360.425 19.3069 360.244 18.5251 360.244C17.6966 360.244 17.0314 360.431 16.5296 360.804C16.0395 361.166 15.7945 361.644 15.7945 362.239C15.7945 362.741 15.9754 363.132 16.3371 363.412C16.6989 363.68 17.154 363.908 17.7024 364.095C18.2509 364.27 18.8402 364.433 19.4703 364.585C20.1004 364.736 20.6897 364.947 21.2382 365.215C21.7867 365.483 22.2418 365.839 22.6035 366.283C22.9653 366.726 23.1461 367.333 23.1461 368.103C23.1461 368.663 23.0411 369.165 22.8311 369.608C22.6327 370.052 22.3409 370.431 21.9559 370.746C21.5824 371.05 21.1215 371.283 20.5731 371.446C20.0363 371.61 19.4353 371.691 18.7701 371.691Z" fill="#1A1A19"/>
<path d="M343.185 211.844L344.563 212.74L355.683 196.222L354.304 195.326L343.185 211.844ZM344.77 203.964C344.249 203.964 343.767 203.865 343.323 203.665C342.894 203.451 342.519 203.168 342.197 202.815C341.875 202.448 341.623 202.019 341.439 201.529C341.27 201.039 341.186 200.51 341.186 199.944C341.186 199.377 341.27 198.849 341.439 198.358C341.623 197.868 341.875 197.447 342.197 197.095C342.519 196.727 342.894 196.444 343.323 196.245C343.767 196.03 344.249 195.923 344.77 195.923C345.291 195.923 345.766 196.03 346.194 196.245C346.639 196.444 347.022 196.727 347.343 197.095C347.665 197.447 347.91 197.868 348.078 198.358C348.262 198.849 348.354 199.377 348.354 199.944C348.354 200.51 348.262 201.039 348.078 201.529C347.91 202.019 347.665 202.448 347.343 202.815C347.022 203.168 346.639 203.451 346.194 203.665C345.766 203.865 345.291 203.964 344.77 203.964ZM344.77 202.402C345.306 202.402 345.766 202.18 346.149 201.736C346.547 201.276 346.746 200.679 346.746 199.944C346.746 199.209 346.547 198.619 346.149 198.175C345.766 197.715 345.306 197.485 344.77 197.485C344.234 197.485 343.767 197.715 343.369 198.175C342.986 198.619 342.794 199.209 342.794 199.944C342.794 200.679 342.986 201.276 343.369 201.736C343.767 202.18 344.234 202.402 344.77 202.402ZM354.098 212.464C353.577 212.464 353.094 212.365 352.65 212.166C352.221 211.951 351.846 211.668 351.524 211.316C351.203 210.948 350.95 210.519 350.766 210.029C350.598 209.539 350.514 209.011 350.514 208.444C350.514 207.877 350.598 207.349 350.766 206.859C350.95 206.369 351.203 205.948 351.524 205.595C351.846 205.228 352.221 204.944 352.65 204.745C353.094 204.531 353.577 204.424 354.098 204.424C354.618 204.424 355.093 204.531 355.522 204.745C355.966 204.944 356.349 205.228 356.671 205.595C356.992 205.948 357.237 206.369 357.406 206.859C357.59 207.349 357.681 207.877 357.681 208.444C357.681 209.011 357.59 209.539 357.406 210.029C357.237 210.519 356.992 210.948 356.671 211.316C356.349 211.668 355.966 211.951 355.522 212.166C355.093 212.365 354.618 212.464 354.098 212.464ZM354.098 210.902C354.634 210.902 355.093 210.68 355.476 210.236C355.874 209.777 356.073 209.179 356.073 208.444C356.073 207.709 355.874 207.119 355.476 206.675C355.093 206.216 354.634 205.986 354.098 205.986C353.561 205.986 353.094 206.216 352.696 206.675C352.313 207.119 352.122 207.709 352.122 208.444C352.122 209.179 352.313 209.777 352.696 210.236C353.094 210.68 353.561 210.902 354.098 210.902Z" fill="#00B2FD"/>
<path d="M338.754 204.194C338.754 205.388 338.616 206.499 338.34 207.525C338.08 208.551 337.682 209.439 337.146 210.19C336.625 210.94 335.966 211.53 335.17 211.959C334.389 212.388 333.477 212.602 332.436 212.602C331.395 212.602 330.476 212.388 329.679 211.959C328.898 211.53 328.239 210.94 327.703 210.19C327.167 209.439 326.761 208.551 326.486 207.525C326.21 206.499 326.072 205.388 326.072 204.194C326.072 202.999 326.21 201.889 326.486 200.863C326.761 199.836 327.167 198.948 327.703 198.198C328.239 197.447 328.898 196.857 329.679 196.429C330.476 196 331.395 195.785 332.436 195.785C333.477 195.785 334.389 196 335.17 196.429C335.966 196.857 336.625 197.447 337.146 198.198C337.682 198.948 338.08 199.836 338.34 200.863C338.616 201.889 338.754 202.999 338.754 204.194ZM328.002 204.194C328.002 205.082 328.086 205.924 328.255 206.721C328.423 207.517 328.684 208.214 329.036 208.812C329.403 209.409 329.863 209.884 330.414 210.236C330.981 210.588 331.655 210.764 332.436 210.764C333.217 210.764 333.883 210.588 334.435 210.236C334.986 209.884 335.438 209.409 335.79 208.812C336.142 208.214 336.403 207.517 336.571 206.721C336.74 205.924 336.824 205.082 336.824 204.194C336.824 203.305 336.74 202.463 336.571 201.667C336.403 200.87 336.142 200.173 335.79 199.576C335.438 198.979 334.986 198.504 334.435 198.152C333.883 197.799 333.217 197.623 332.436 197.623C331.655 197.623 330.981 197.799 330.414 198.152C329.863 198.504 329.403 198.979 329.036 199.576C328.684 200.173 328.423 200.87 328.255 201.667C328.086 202.463 328.002 203.305 328.002 204.194Z" fill="#00B2FD"/>
<path d="M318.303 203.114C319.329 203.114 320.141 202.869 320.738 202.379C321.351 201.873 321.657 201.215 321.657 200.403C321.657 199.607 321.351 198.948 320.738 198.427C320.141 197.891 319.329 197.623 318.303 197.623C317.277 197.623 316.458 197.891 315.845 198.427C315.248 198.948 314.949 199.607 314.949 200.403C314.949 201.215 315.248 201.873 315.845 202.379C316.458 202.869 317.277 203.114 318.303 203.114ZM318.303 210.764C319.452 210.764 320.355 210.489 321.014 209.937C321.688 209.371 322.025 208.651 322.025 207.778C322.025 206.92 321.688 206.215 321.014 205.664C320.34 205.097 319.436 204.814 318.303 204.814C317.17 204.814 316.266 205.097 315.592 205.664C314.918 206.215 314.581 206.92 314.581 207.778C314.581 208.651 314.911 209.371 315.569 209.937C316.243 210.489 317.154 210.764 318.303 210.764ZM318.303 212.602C317.461 212.602 316.687 212.487 315.983 212.258C315.294 212.043 314.704 211.737 314.214 211.339C313.724 210.925 313.341 210.435 313.065 209.868C312.789 209.286 312.652 208.643 312.652 207.939C312.652 206.928 312.927 206.078 313.479 205.388C314.03 204.684 314.811 204.186 315.822 203.895V204.102C314.903 203.796 314.206 203.313 313.731 202.655C313.257 201.981 313.019 201.184 313.019 200.265C313.019 199.607 313.142 199.002 313.387 198.45C313.647 197.899 314.007 197.432 314.466 197.049C314.926 196.651 315.477 196.344 316.121 196.13C316.779 195.9 317.507 195.785 318.303 195.785C319.1 195.785 319.819 195.9 320.463 196.13C321.121 196.344 321.68 196.651 322.14 197.049C322.599 197.432 322.951 197.899 323.197 198.45C323.457 199.002 323.587 199.607 323.587 200.265C323.587 201.184 323.35 201.981 322.875 202.655C322.4 203.313 321.703 203.796 320.784 204.102V203.895C321.795 204.186 322.576 204.684 323.128 205.388C323.679 206.078 323.955 206.928 323.955 207.939C323.955 208.643 323.817 209.286 323.541 209.868C323.265 210.435 322.883 210.925 322.392 211.339C321.902 211.737 321.305 212.043 320.6 212.258C319.911 212.487 319.145 212.602 318.303 212.602Z" fill="#00B2FD"/>
<path d="M307.688 211.017C307.688 210.665 307.811 210.359 308.056 210.098C308.301 209.838 308.615 209.708 308.998 209.708C309.426 209.708 309.771 209.884 310.031 210.236C310.307 210.573 310.445 211.017 310.445 211.568C310.445 212.15 310.292 212.763 309.985 213.406C309.679 214.05 309.212 214.685 308.584 215.313L307.711 214.509C308.109 214.111 308.423 213.713 308.653 213.314C308.883 212.916 309.051 212.495 309.158 212.051L309.388 212.143C309.342 212.189 309.273 212.219 309.181 212.235C309.105 212.265 309.021 212.281 308.929 212.281C308.576 212.281 308.278 212.158 308.033 211.913C307.803 211.668 307.688 211.369 307.688 211.017Z" fill="#00B2FD"/>
<path d="M302.502 212.235V197.715L302.87 197.991L298.941 200.633L298.068 199.116L302.479 196.153H304.34V212.235H302.502Z" fill="#00B2FD"/>
<path d="M291.214 210.764C291.75 210.764 292.24 210.672 292.684 210.489C293.143 210.305 293.534 210.052 293.856 209.73C294.177 209.409 294.43 209.034 294.614 208.605C294.798 208.161 294.889 207.678 294.889 207.157C294.889 206.637 294.798 206.162 294.614 205.733C294.43 205.304 294.17 204.937 293.833 204.63C293.511 204.309 293.12 204.064 292.661 203.895C292.217 203.727 291.727 203.642 291.191 203.642C290.088 203.642 289.207 203.972 288.549 204.63C287.89 205.274 287.561 206.116 287.561 207.157C287.561 207.678 287.645 208.161 287.814 208.605C287.997 209.034 288.25 209.409 288.572 209.73C288.893 210.052 289.276 210.305 289.72 210.489C290.164 210.672 290.662 210.764 291.214 210.764ZM291.214 212.602C289.269 212.602 287.775 211.882 286.734 210.443C285.692 209.003 285.172 206.943 285.172 204.263C285.172 202.884 285.309 201.667 285.585 200.61C285.876 199.553 286.29 198.672 286.826 197.968C287.362 197.248 288.02 196.704 288.801 196.337C289.598 195.969 290.501 195.785 291.512 195.785C292.676 195.785 293.68 196.038 294.522 196.543C295.364 197.034 296.076 197.807 296.658 198.864L295.027 199.806C294.629 199.071 294.139 198.527 293.557 198.175C292.975 197.807 292.278 197.623 291.466 197.623C290.042 197.623 288.955 198.136 288.204 199.162C287.469 200.173 287.101 201.628 287.101 203.528C287.101 203.727 287.101 203.933 287.101 204.148C287.101 204.362 287.117 204.6 287.147 204.86H286.849C287.247 203.895 287.844 203.168 288.641 202.677C289.452 202.187 290.394 201.942 291.466 201.942C292.263 201.942 292.99 202.073 293.649 202.333C294.307 202.593 294.867 202.961 295.326 203.436C295.801 203.895 296.168 204.446 296.429 205.09C296.689 205.733 296.819 206.438 296.819 207.203C296.819 207.984 296.681 208.712 296.406 209.386C296.145 210.044 295.762 210.611 295.257 211.086C294.767 211.561 294.177 211.936 293.488 212.212C292.799 212.472 292.041 212.602 291.214 212.602Z" fill="#00B2FD"/>
<path d="M98.2159 17.5041V12.568C98.2159 11.6811 98.0291 11.0043 97.6557 10.5375C97.294 10.0591 96.763 9.81988 96.0629 9.81988C95.6894 9.81988 95.3452 9.8899 95.0301 10.0299C94.7267 10.1583 94.4642 10.345 94.2425 10.5901C94.0324 10.8351 93.8632 11.1268 93.7348 11.4653C93.6182 11.8037 93.5598 12.1771 93.5598 12.5855L93.3498 10.6251C93.6065 9.91324 93.9799 9.38229 94.47 9.03221C94.9601 8.68213 95.5669 8.50709 96.2904 8.50709C96.8039 8.50709 97.2648 8.59461 97.6732 8.76965C98.0816 8.94469 98.4317 9.19558 98.7235 9.52232C99.0152 9.83739 99.2369 10.2283 99.3886 10.6951C99.5403 11.1502 99.6162 11.6578 99.6162 12.2179V17.5041H98.2159ZM92.1595 17.5041V4.86628H93.5598V17.5041H92.1595Z" fill="#1A1A19"/>
<path d="M84.2531 13.4257L85.1808 14.0384C84.9124 14.1317 84.714 14.2601 84.5856 14.4234C84.4689 14.5751 84.4106 14.7618 84.4106 14.9836C84.4106 15.3336 84.5915 15.602 84.9532 15.7887C85.315 15.9755 85.9334 16.0688 86.8086 16.0688C88.1273 16.0805 89.1191 16.2905 89.7843 16.6989C90.4494 17.1074 90.782 17.6967 90.782 18.4668C90.782 19.3304 90.3853 20.0072 89.5918 20.4973C88.7982 20.9991 87.7188 21.25 86.3535 21.25C85.0816 21.25 84.0955 21.0341 83.3954 20.6023C82.6952 20.1822 82.3451 19.5929 82.3451 18.8344C82.3451 18.2743 82.5377 17.7959 82.9228 17.3991C83.3078 16.9907 83.8388 16.7048 84.5156 16.5414V16.8215C84.0955 16.7048 83.7629 16.5006 83.5179 16.2088C83.2845 15.9054 83.1678 15.5495 83.1678 15.1411C83.1678 14.8144 83.2553 14.5051 83.4304 14.2134C83.6054 13.91 83.8796 13.6474 84.2531 13.4257ZM82.9053 11.4653C82.9053 11.0335 82.9869 10.6368 83.1503 10.275C83.3253 9.91326 83.5646 9.60403 83.868 9.3473C84.1714 9.07891 84.5448 8.8747 84.9882 8.73467C85.4317 8.58297 85.9218 8.50712 86.4586 8.50712C86.9953 8.50712 87.4796 8.58297 87.9114 8.73467C88.3548 8.8747 88.7282 9.07891 89.0316 9.3473C89.3467 9.60403 89.5859 9.91326 89.7493 10.275C89.9243 10.6368 90.0118 11.0335 90.0118 11.4653C90.0118 11.897 89.9243 12.2938 89.7493 12.6555C89.5859 13.0173 89.3467 13.3324 89.0316 13.6008C88.7282 13.8575 88.3548 14.0617 87.9114 14.2134C87.4796 14.3534 86.9953 14.4234 86.4586 14.4234C85.9218 14.4234 85.4317 14.3534 84.9882 14.2134C84.5565 14.0617 84.183 13.8575 83.868 13.6008C83.5646 13.3324 83.3253 13.0173 83.1503 12.6555C82.9869 12.2938 82.9053 11.897 82.9053 11.4653ZM84.2355 11.4653C84.2355 12.0254 84.4398 12.4572 84.8482 12.7606C85.2566 13.0523 85.7934 13.1982 86.4586 13.1982C87.112 13.1982 87.643 13.0523 88.0514 12.7606C88.4715 12.4572 88.6815 12.0254 88.6815 11.4653C88.6815 10.9052 88.4715 10.4792 88.0514 10.1875C87.643 9.88409 87.112 9.73239 86.4586 9.73239C85.7934 9.73239 85.2566 9.88409 84.8482 10.1875C84.4398 10.4792 84.2355 10.9052 84.2355 11.4653ZM83.7104 18.6769C83.7104 19.0853 83.938 19.4004 84.3931 19.6221C84.8482 19.8555 85.4958 19.9722 86.336 19.9722C87.2696 19.9722 88.0047 19.838 88.5415 19.5696C89.09 19.3129 89.3642 18.9745 89.3642 18.5544C89.3642 18.1576 89.125 17.8484 88.6465 17.6267C88.1681 17.4049 87.4913 17.2941 86.6161 17.2941C85.6825 17.2941 84.9649 17.4166 84.4631 17.6617C83.9613 17.9067 83.7104 18.2451 83.7104 18.6769ZM89.1892 10.03L88.279 9.25978L89.7668 7.73694L90.642 8.59464L89.1892 10.03Z" fill="#1A1A19"/>
<path d="M79.4671 8.75225H80.8674V17.5042H79.4671V8.75225ZM79.2221 5.8641C79.2221 5.59571 79.3096 5.37399 79.4846 5.19896C79.6713 5.01225 79.8989 4.91889 80.1673 4.91889C80.4357 4.91889 80.6574 5.01225 80.8324 5.19896C81.0191 5.37399 81.1125 5.59571 81.1125 5.8641C81.1125 6.1325 81.0191 6.36005 80.8324 6.54676C80.6574 6.7218 80.4357 6.80932 80.1673 6.80932C79.8989 6.80932 79.6713 6.7218 79.4846 6.54676C79.3096 6.36005 79.2221 6.1325 79.2221 5.8641Z" fill="#1A1A19"/>
<path d="M67.3925 17.5042V5.25142H68.8629V10.3276H75.2343V5.25142H76.7046V17.5042H75.2343V11.6929H68.8629V17.5042H67.3925Z" fill="#1A1A19"/>
<path d="M54.8342 13.4257L55.7619 14.0384C55.4935 14.1317 55.2951 14.2601 55.1668 14.4234C55.0501 14.5751 54.9917 14.7618 54.9917 14.9836C54.9917 15.3336 55.1726 15.602 55.5343 15.7887C55.8961 15.9755 56.5146 16.0688 57.3898 16.0688C58.7084 16.0805 59.7003 16.2905 60.3654 16.6989C61.0306 17.1074 61.3631 17.6967 61.3631 18.4668C61.3631 19.3304 60.9664 20.0072 60.1729 20.4973C59.3794 20.9991 58.3 21.25 56.9347 21.25C55.6627 21.25 54.6767 21.0341 53.9765 20.6023C53.2763 20.1822 52.9263 19.5929 52.9263 18.8344C52.9263 18.2743 53.1188 17.7959 53.5039 17.3991C53.889 16.9907 54.4199 16.7048 55.0967 16.5414V16.8215C54.6767 16.7048 54.3441 16.5006 54.099 16.2088C53.8656 15.9054 53.7489 15.5495 53.7489 15.1411C53.7489 14.8144 53.8365 14.5051 54.0115 14.2134C54.1865 13.91 54.4608 13.6474 54.8342 13.4257ZM53.4864 11.4653C53.4864 11.0335 53.5681 10.6368 53.7314 10.275C53.9065 9.91326 54.1457 9.60403 54.4491 9.3473C54.7525 9.07891 55.1259 8.8747 55.5693 8.73467C56.0128 8.58297 56.5029 8.50712 57.0397 8.50712C57.5765 8.50712 58.0607 8.58297 58.4925 8.73467C58.9359 8.8747 59.3094 9.07891 59.6128 9.3473C59.9278 9.60403 60.167 9.91326 60.3304 10.275C60.5055 10.6368 60.593 11.0335 60.593 11.4653C60.593 11.897 60.5055 12.2938 60.3304 12.6555C60.167 13.0173 59.9278 13.3324 59.6128 13.6008C59.3094 13.8575 58.9359 14.0617 58.4925 14.2134C58.0607 14.3534 57.5765 14.4234 57.0397 14.4234C56.5029 14.4234 56.0128 14.3534 55.5693 14.2134C55.1376 14.0617 54.7642 13.8575 54.4491 13.6008C54.1457 13.3324 53.9065 13.0173 53.7314 12.6555C53.5681 12.2938 53.4864 11.897 53.4864 11.4653ZM54.8167 11.4653C54.8167 12.0254 55.0209 12.4572 55.4293 12.7606C55.8377 13.0523 56.3745 13.1982 57.0397 13.1982C57.6932 13.1982 58.2241 13.0523 58.6325 12.7606C59.0526 12.4572 59.2627 12.0254 59.2627 11.4653C59.2627 10.9052 59.0526 10.4792 58.6325 10.1875C58.2241 9.88409 57.6932 9.73239 57.0397 9.73239C56.3745 9.73239 55.8377 9.88409 55.4293 10.1875C55.0209 10.4792 54.8167 10.9052 54.8167 11.4653ZM54.2916 18.6769C54.2916 19.0853 54.5191 19.4004 54.9742 19.6221C55.4293 19.8555 56.077 19.9722 56.9172 19.9722C57.8507 19.9722 58.5859 19.838 59.1226 19.5696C59.6711 19.3129 59.9453 18.9745 59.9453 18.5544C59.9453 18.1576 59.7061 17.8484 59.2277 17.6267C58.7492 17.4049 58.0724 17.2941 57.1972 17.2941C56.2637 17.2941 55.546 17.4166 55.0442 17.6617C54.5425 17.9067 54.2916 18.2451 54.2916 18.6769ZM59.7703 10.03L58.8601 9.25978L60.3479 7.73694L61.2231 8.59464L59.7703 10.03Z" fill="#1A1A19"/>
<path d="M50.156 17.504V12.5679C50.156 11.681 49.9693 11.0042 49.5958 10.5374C49.2341 10.059 48.7031 9.81975 48.003 9.81975C47.6296 9.81975 47.2853 9.88977 46.9703 10.0298C46.6669 10.1582 46.4043 10.3449 46.1826 10.5899C45.9725 10.835 45.8033 11.1267 45.675 11.4651C45.5583 11.8035 45.4999 12.1769 45.4999 12.5854L45.3249 10.6249C45.5816 9.91311 45.9492 9.38216 46.4276 9.03208C46.9177 8.682 47.5245 8.50696 48.248 8.50696C48.7615 8.50696 49.2224 8.59448 49.6309 8.76952C50.0393 8.94456 50.3835 9.19545 50.6636 9.52219C50.9553 9.83726 51.177 10.2282 51.3287 10.6949C51.4804 11.1501 51.5563 11.6577 51.5563 12.2178V17.504H50.156ZM44.0996 17.504V8.75201H45.4999V17.504H44.0996Z" fill="#1A1A19"/>
<path d="M40.2064 8.75225H41.6067V17.5042H40.2064V8.75225ZM39.9613 5.8641C39.9613 5.59571 40.0488 5.37399 40.2239 5.19896C40.4106 5.01225 40.6381 4.91889 40.9065 4.91889C41.1749 4.91889 41.3966 5.01225 41.5717 5.19896C41.7584 5.37399 41.8517 5.59571 41.8517 5.8641C41.8517 6.1325 41.7584 6.36005 41.5717 6.54676C41.3966 6.7218 41.1749 6.80932 40.9065 6.80932C40.6381 6.80932 40.4106 6.7218 40.2239 6.54676C40.0488 6.36005 39.9613 6.1325 39.9613 5.8641Z" fill="#1A1A19"/>
<path d="M28.4089 17.5041L25.5382 8.75215H27.0086L29.2141 16.0338H29.0915L31.4896 8.75215H32.7849L35.1829 16.0338H35.0429L37.2483 8.75215H38.7012L35.8305 17.5041H34.3952L32.0497 10.4675H32.1897L29.8442 17.5041H28.4089Z" fill="#1A1A19"/>
<path d="M20.3876 17.7841C19.1973 17.7841 18.1821 17.5274 17.3419 17.0139C16.5017 16.4888 15.8482 15.7128 15.3815 14.6859L16.7117 13.9858C17.0968 14.8143 17.5869 15.4269 18.1821 15.8237C18.7889 16.2088 19.5357 16.4013 20.4226 16.4013C21.3211 16.4013 22.0213 16.2204 22.523 15.8587C23.0365 15.4853 23.2932 14.9718 23.2932 14.3183C23.2932 13.7582 23.1123 13.3264 22.7506 13.023C22.3889 12.708 21.9338 12.4512 21.3853 12.2529C20.8485 12.0545 20.2592 11.8795 19.6174 11.7278C18.9873 11.5761 18.398 11.3777 17.8495 11.1326C17.3127 10.8759 16.8634 10.5433 16.5017 10.1349C16.14 9.7148 15.9591 9.14301 15.9591 8.41951C15.9591 7.90606 16.0583 7.43929 16.2566 7.0192C16.455 6.5991 16.7351 6.23736 17.0968 5.93396C17.4586 5.63056 17.8962 5.39717 18.4096 5.2338C18.9347 5.05876 19.5124 4.97124 20.1425 4.97124C21.2394 4.97124 22.1788 5.2163 22.9606 5.70641C23.7542 6.18485 24.3551 6.8675 24.7635 7.75436L23.4858 8.43702C23.1707 7.7602 22.7273 7.24092 22.1555 6.87917C21.5953 6.51742 20.9244 6.33655 20.1425 6.33655C19.314 6.33655 18.6488 6.52326 18.1471 6.89667C17.657 7.25842 17.4119 7.73686 17.4119 8.33199C17.4119 8.83377 17.5928 9.22469 17.9545 9.50476C18.3163 9.77315 18.7714 10.0007 19.3198 10.1874C19.8683 10.3624 20.4576 10.5258 21.0877 10.6775C21.7179 10.8292 22.3072 11.0393 22.8556 11.3077C23.4041 11.5761 23.8592 11.932 24.2209 12.3754C24.5827 12.8188 24.7635 13.4256 24.7635 14.1958C24.7635 14.7559 24.6585 15.2577 24.4485 15.7011C24.2501 16.1446 23.9584 16.5238 23.5733 16.8389C23.1999 17.1423 22.7389 17.3757 22.1905 17.5391C21.6537 17.7024 21.0527 17.7841 20.3876 17.7841Z" fill="#1A1A19"/>
<path d="M263.4 183.244C263.4 192.609 255.808 200.201 246.443 200.201C237.078 200.201 229.486 192.609 229.486 183.244C229.486 173.879 237.078 166.287 246.443 166.287C255.808 166.287 263.4 173.879 263.4 183.244Z" fill="#F9BE08"/>
<path fill-rule="evenodd" clip-rule="evenodd" d="M246.443 198.56C254.902 198.56 261.759 191.703 261.759 183.244C261.759 174.785 254.902 167.928 246.443 167.928C237.984 167.928 231.127 174.785 231.127 183.244C231.127 191.703 237.984 198.56 246.443 198.56ZM246.443 200.201C255.808 200.201 263.4 192.609 263.4 183.244C263.4 173.879 255.808 166.287 246.443 166.287C237.078 166.287 229.486 173.879 229.486 183.244C229.486 192.609 237.078 200.201 246.443 200.201Z" fill="#1A1A19"/>
</svg>
