<svg width="22" height="23" viewBox="0 0 22 23" fill="none" xmlns="http://www.w3.org/2000/svg">
<path d="M5.25 9.375H17.75M9.41667 9.375V17.875M8.58333 5.125H14.4167C15.5835 5.125 16.1668 5.125 16.6125 5.35661C17.0045 5.56034 17.3232 5.88542 17.5229 6.28527C17.75 6.73983 17.75 7.33489 17.75 8.525V14.475C17.75 15.6651 17.75 16.2601 17.5229 16.7147C17.3232 17.1146 17.0045 17.4397 16.6125 17.6434C16.1668 17.875 15.5835 17.875 14.4167 17.875H8.58333C7.41656 17.875 6.83317 17.875 6.38752 17.6434C5.99551 17.4397 5.67681 17.1146 5.47707 16.7147C5.25 16.2601 5.25 15.6651 5.25 14.475V8.525C5.25 7.33489 5.25 6.73983 5.47707 6.28527C5.67681 5.88542 5.99551 5.56034 6.38752 5.35661C6.83317 5.125 7.41656 5.125 8.58333 5.125Z" stroke="#1A1A19" stroke-width="2" stroke-linecap="round" stroke-linejoin="round"/>
</svg>
