<svg width="48" height="48" viewBox="0 0 48 48" fill="none" xmlns="http://www.w3.org/2000/svg">
<path fill-rule="evenodd" clip-rule="evenodd" d="M8.80016 24.0701C8.80017 24.07 8.80019 24.0698 8.8002 24.0697L8.80016 24.0701ZM8.8002 24.0697L8.80088 24.0629C8.80151 24.0568 8.80253 24.0468 8.80397 24.0331C8.80684 24.0057 8.81136 23.9635 8.81762 23.9074C8.83015 23.7951 8.84965 23.6275 8.87688 23.4124C8.93138 22.982 9.01666 22.3632 9.1388 21.6191C9.384 20.1253 9.77356 18.1524 10.3518 16.1952C10.9366 14.216 11.6829 12.3632 12.5961 11.0384C13.5174 9.7021 14.4027 9.17959 15.2544 9.17959C16.2803 9.17959 17.1165 9.63807 17.8806 10.571C18.6807 11.5481 19.3336 12.9774 19.8611 14.6816C20.6146 17.1159 21.0074 19.6865 21.3302 21.7988C21.4694 22.7096 21.5955 23.5351 21.732 24.2278L21.7381 24.2591C22.1407 26.3029 22.9695 30.5111 24.4347 34.2305C25.1691 36.0947 26.1047 37.9466 27.3047 39.3582C28.5111 40.7774 30.1271 41.9069 32.1758 41.9069C34.4418 41.9069 36.0217 40.2599 37.0551 38.5809C38.122 36.8476 38.9018 34.6238 39.4709 32.5226C40.0461 30.3985 40.4349 28.2889 40.6796 26.7196C40.8024 25.9324 40.8898 25.2753 40.9467 24.813C40.9752 24.5816 40.996 24.3987 41.01 24.2722C41.0169 24.209 41.0221 24.1598 41.0257 24.1257C41.0274 24.1087 41.0288 24.0954 41.0298 24.086L41.0312 24.0715L41.0313 24.0704C41.0314 24.07 41.0314 24.0697 39.55 23.9193L41.0314 24.0697C41.1199 23.1704 40.4738 22.3685 39.5882 22.2786C38.7027 22.1887 37.913 22.8446 37.8243 23.7437M37.8243 23.744L37.8242 23.7448L37.8235 23.7514C37.8229 23.7578 37.8218 23.768 37.8204 23.7819C37.8175 23.8097 37.813 23.8524 37.8067 23.909C37.7943 24.0222 37.7751 24.1909 37.7484 24.407C37.6952 24.8395 37.6126 25.4609 37.4962 26.2078C37.2624 27.7067 36.8958 29.6879 36.3631 31.6548C35.8242 33.6445 35.1435 35.5116 34.3219 36.8464C33.4668 38.2357 32.7301 38.6341 32.1758 38.6341C31.4043 38.6341 30.6029 38.2295 29.7446 37.2197C28.8797 36.2024 28.103 34.7303 27.4273 33.015C26.0798 29.5944 25.2981 25.645 24.8925 23.5859C24.7974 23.1031 24.6941 22.4294 24.5716 21.631C24.2396 19.4666 23.7669 16.3851 22.9359 13.7003C22.3555 11.825 21.5479 9.93042 20.3588 8.47849C19.1336 6.98247 17.4517 5.90686 15.2544 5.90686C12.883 5.90686 11.1496 7.4298 9.95566 9.16165C8.75377 10.9051 7.8885 13.1432 7.26461 15.2548C6.63417 17.3886 6.21796 19.5067 5.95954 21.081C5.82987 21.871 5.73889 22.5306 5.68008 22.9951C5.65065 23.2274 5.62923 23.4114 5.615 23.5388C5.60789 23.6025 5.60258 23.6522 5.59896 23.6867C5.59816 23.6943 5.59745 23.7011 5.59682 23.7072C5.59601 23.715 5.59533 23.7217 5.59478 23.7271L5.59363 23.7385L5.59316 23.7432C5.59312 23.7437 5.59308 23.744 7.19664 23.9069L5.59308 23.744C5.50452 24.6433 6.15066 25.4452 7.03628 25.5351C7.92176 25.625 8.71138 24.9692 8.80016 24.0701" fill="#1A1A19"/>
<path fill-rule="evenodd" clip-rule="evenodd" d="M11.2255 23.9069C11.2255 23.0031 11.9471 22.2705 12.8371 22.2705H17.6718C18.5618 22.2705 19.2833 23.0031 19.2833 23.9069C19.2833 24.8106 18.5618 25.5432 17.6718 25.5432H12.8371C11.9471 25.5432 11.2255 24.8106 11.2255 23.9069Z" fill="#1A1A19"/>
<path fill-rule="evenodd" clip-rule="evenodd" d="M27.3411 23.9069C27.3411 23.0031 28.0627 22.2705 28.9527 22.2705H33.7874C34.6774 22.2705 35.3989 23.0031 35.3989 23.9069C35.3989 24.8106 34.6774 25.5432 33.7874 25.5432H28.9527C28.0627 25.5432 27.3411 24.8106 27.3411 23.9069Z" fill="#1A1A19"/>
</svg>
