<svg width="19" height="19" viewBox="0 0 19 19" fill="none" xmlns="http://www.w3.org/2000/svg">
<path d="M3.06431 7.91729V12.8872H4.22477V7.91729H3.06431ZM8.08036 7.04088C9.27017 7.04088 10.0345 7.99953 10.0345 9.49953C10.0345 11.0113 9.27017 11.9699 8.08036 11.9699C6.8789 11.9699 6.12017 11.0113 6.12017 9.49953C6.12017 7.99953 6.87843 7.04088 8.08036 7.04088ZM14.4037 6.01175C12.9454 6.01175 11.9071 6.82331 11.9071 8.02914C11.9071 8.98778 12.4961 9.58788 13.733 9.87594L14.6022 10.0879C15.4481 10.282 15.792 10.5644 15.792 11.0526C15.792 11.6175 15.2262 12.0174 14.4214 12.0174C13.5988 12.0174 12.9804 11.6114 12.9165 10.9883H11.75C11.7966 12.2354 12.8117 13 14.3515 13C15.9789 13 17 12.1941 17 10.9121C17 9.90649 16.4165 9.336 15.0636 9.02397L14.2876 8.84727C13.465 8.64709 13.1267 8.38252 13.1267 7.93562C13.1267 7.37077 13.6398 6.99436 14.3985 6.99436C15.1628 6.99436 15.6876 7.37688 15.7459 8.00611H16.8891C16.8597 6.81814 15.8857 6.01222 14.4041 6.01222L14.4037 6.01175ZM8.08036 6.01175C6.12064 6.01175 4.89541 7.35855 4.89541 9.49953C4.89541 11.6584 6.12017 12.9991 8.08036 12.9991C10.0289 12.9991 11.2593 11.6579 11.2593 9.49953C11.2593 7.35855 10.0284 6.01175 8.07989 6.01175H8.08036ZM3.64128 6C3.63802 6 3.63382 6 3.63009 6C3.28196 6 3 6.2843 3 6.63534C3 6.98637 3.28196 7.27068 3.63009 7.27068C3.63429 7.27068 3.63802 7.27068 3.64221 7.27068C3.64734 7.27068 3.65293 7.27115 3.65899 7.27115C4.00712 7.27115 4.28908 6.98684 4.28908 6.63581C4.28908 6.28477 4.00712 6.00047 3.65899 6.00047C3.65293 6.00047 3.64687 6.00047 3.64081 6.00094H3.64174L3.64128 6Z" fill="white"/>
</svg>
