<svg width="22" height="22" viewBox="0 0 22 22" fill="none" xmlns="http://www.w3.org/2000/svg">
<path fill-rule="evenodd" clip-rule="evenodd" d="M11.9588 2.31185C12.2644 2.44425 12.4461 2.76235 12.4049 3.09285L11.7243 8.55004L16.6313 8.55004C16.8214 8.55001 17.0117 8.54997 17.1668 8.56405C17.3139 8.5774 17.5887 8.61242 17.8261 8.80474C18.0992 9.02593 18.2551 9.36021 18.2499 9.71101C18.2453 10.0158 18.0968 10.249 18.0129 10.3707C17.9245 10.499 17.8027 10.6454 17.681 10.7918L10.6661 19.2295C10.4531 19.4856 10.0968 19.5706 9.7912 19.4382C9.48558 19.3058 9.3039 18.9877 9.34511 18.6572L10.0257 13.2L5.14605 13.2C5.13692 13.2 5.12779 13.2 5.11865 13.2C4.92862 13.2001 4.73828 13.2001 4.58318 13.186C4.43607 13.1727 4.16129 13.1377 3.92386 12.9453C3.65077 12.7241 3.49485 12.3899 3.50013 12.0391C3.50471 11.7343 3.65318 11.5011 3.73706 11.3794C3.82548 11.2511 3.94727 11.1046 4.069 10.9583C4.07483 10.9513 4.08066 10.9443 4.08648 10.9373L11.0839 2.52057C11.2969 2.26446 11.6532 2.17945 11.9588 2.31185ZM5.403 11.7L10.875 11.7C11.0901 11.7 11.2948 11.7924 11.4372 11.9536C11.5796 12.1148 11.6459 12.3294 11.6192 12.5429L11.1507 16.3003L16.347 10.05L10.875 10.05C10.6599 10.05 10.4552 9.9577 10.3128 9.79647C10.1704 9.63525 10.1041 9.42066 10.1308 9.20723L10.5993 5.44977L5.403 11.7Z" fill="#E6AE00"/>
</svg>
