<svg width="26" height="27" viewBox="0 0 26 27" fill="none" xmlns="http://www.w3.org/2000/svg">
<path fill-rule="evenodd" clip-rule="evenodd" d="M7.68716 21.4715V8.43697H3.51565V21.4715H7.68716V21.4715ZM5.60184 6.65798C7.05608 6.65798 7.96195 5.65624 7.96195 4.40544C7.93446 3.12684 7.05608 2.15338 5.62911 2.15338C4.20192 2.15342 3.26904 3.12688 3.26904 4.40548C3.26904 5.65628 4.17442 6.65802 5.57438 6.65802L5.60184 6.65798ZM9.99593 21.4715C9.99593 21.4715 10.0507 9.65996 9.99593 8.43701H14.1681V10.3273H14.1404C14.689 9.43781 15.6773 8.13093 17.9277 8.13093C20.6731 8.13093 22.7309 9.99389 22.7309 13.9976V21.4716H18.5594V14.4984C18.5594 12.7463 17.9559 11.5507 16.4458 11.5507C15.2935 11.5507 14.6068 12.3567 14.3053 13.1359C14.1949 13.4132 14.1681 13.8027 14.1681 14.1923V21.4715H9.99593Z" fill="white"/>
</svg>
