<svg width="22" height="22" viewBox="0 0 22 22" fill="none" xmlns="http://www.w3.org/2000/svg">
<path fill-rule="evenodd" clip-rule="evenodd" d="M11 4.75C7.54822 4.75 4.75 7.54822 4.75 11C4.75 14.4517 7.54822 17.25 11 17.25C14.4517 17.25 17.25 14.4517 17.25 11C17.25 7.54822 14.4517 4.75 11 4.75ZM3.25 11C3.25 6.71979 6.71979 3.25 11 3.25C15.2802 3.25 18.75 6.71979 18.75 11C18.75 15.2802 15.2802 18.75 11 18.75C6.71979 18.75 3.25 15.2802 3.25 11ZM14.3303 7.66967C14.6232 7.96256 14.6232 8.43744 14.3303 8.73033L8.73033 14.3303C8.43744 14.6232 7.96256 14.6232 7.66967 14.3303C7.37678 14.0374 7.37678 13.5626 7.66967 13.2697L13.2697 7.66967C13.5626 7.37678 14.0374 7.37678 14.3303 7.66967ZM7.8 8.9C7.8 8.29249 8.29249 7.8 8.9 7.8C9.50751 7.8 10 8.29249 10 8.9C10 9.50751 9.50751 10 8.9 10C8.29249 10 7.8 9.50751 7.8 8.9ZM12 13.1C12 12.4925 12.4925 12 13.1 12C13.7075 12 14.2 12.4925 14.2 13.1C14.2 13.7075 13.7075 14.2 13.1 14.2C12.4925 14.2 12 13.7075 12 13.1Z" fill="#E6AE00"/>
</svg>
