<svg width="100" height="67" viewBox="0 0 100 67" fill="none" xmlns="http://www.w3.org/2000/svg">
<rect y="0.941895" width="100" height="65.1163" rx="12" fill="#00916D"/>
<path fill-rule="evenodd" clip-rule="evenodd" d="M73.2559 31.1743V19.5464H76.7442V31.1743H73.2559Z" fill="white"/>
<path fill-rule="evenodd" clip-rule="evenodd" d="M74.7719 18.158C74.2654 18.1637 73.7592 18.1694 73.2561 18.1694L73.2559 14.918C73.6831 14.918 74.1485 14.9129 74.6341 14.9075C75.6811 14.8959 76.8222 14.8833 77.8787 14.9187C79.4002 14.9697 81.0684 15.1216 82.337 15.6547C82.9914 15.9297 83.6882 16.3664 84.1569 17.0861C84.6545 17.8502 84.7646 18.731 84.5865 19.6091C84.3203 20.9219 83.3843 22.365 81.9028 23.9866L87.2093 31.1746H83.0282L77.6203 23.7062L78.6192 22.7092C78.7588 22.5699 79.3952 21.9389 80.0502 21.1866C81.622 19.3813 80.1642 18.2485 77.7694 18.1683Lnan nanL77.7694 18.1683C76.7839 18.1353 75.7773 18.1466 74.7719 18.158Z" fill="white"/>
</svg>
