<svg width="83" height="82" viewBox="0 0 83 82" fill="none" xmlns="http://www.w3.org/2000/svg">
<path d="M8.78906 17.4893V34.867H27.1891" stroke="#00916D" stroke-width="4" stroke-linecap="round" stroke-linejoin="round"/>
<path d="M74.2115 64.5116V47.1338H55.8115" stroke="#00916D" stroke-width="4" stroke-linecap="round" stroke-linejoin="round"/>
<path d="M66.7472 32.1386C65.239 27.905 62.6758 24.12 59.2966 21.1366C55.9174 18.1533 51.8325 16.0688 47.423 15.0778C43.0135 14.0868 38.4231 14.2214 34.0801 15.4692C29.7372 16.717 25.7832 19.0373 22.5872 22.2136L8.78906 35.0924M74.2113 46.9079L60.4131 59.7867C57.2171 62.963 53.2632 65.2832 48.9202 66.531C44.5773 67.7789 39.9869 67.9135 35.5773 66.9225C31.1678 65.9314 27.0829 63.847 23.7037 60.8636C20.3246 57.8803 17.7613 54.0952 16.2531 49.8617" stroke="#00916D" stroke-width="4" stroke-linecap="round" stroke-linejoin="round"/>
</svg>
