<svg width="48" height="48" viewBox="0 0 48 48" fill="none" xmlns="http://www.w3.org/2000/svg">
<path fill-rule="evenodd" clip-rule="evenodd" d="M25.531 9.7251C27.5795 9.7251 29.6079 10.1286 31.5004 10.9125C33.3929 11.6964 35.1125 12.8454 36.5609 14.2938C38.0094 15.7423 39.1584 17.4619 39.9423 19.3544C40.7262 21.2469 41.1297 23.2753 41.1297 25.3237C41.1297 28.7086 39.785 31.9548 37.3916 34.3482C34.9982 36.7416 31.752 38.0862 28.3671 38.0862C25.5825 38.0862 22.9118 36.98 20.9428 35.011C18.9737 33.0419 17.8675 30.3713 17.8675 27.5866C17.8675 25.282 18.783 23.0718 20.4125 21.4423C22.0421 19.8127 24.2523 18.8972 26.5569 18.8972C28.4773 18.8972 30.3191 19.6601 31.6771 21.0181C33.0351 22.3761 33.798 24.2179 33.798 26.1384C33.798 27.7508 33.1575 29.2971 32.0173 30.4372C30.8772 31.5774 29.3309 32.2179 27.7185 32.2179C26.3538 32.2179 25.0446 31.6772 24.0777 30.7142C23.1107 29.7512 22.5647 28.4443 22.5592 27.0796L22.5591 27.0766V27.0737C22.5591 25.8894 23.0296 24.7536 23.867 23.9162C24.7044 23.0788 25.8402 22.6083 27.0245 22.6083C27.8244 22.6083 28.4727 23.2567 28.4727 24.0565C28.4727 24.8564 27.8244 25.5048 27.0245 25.5048C26.6084 25.5048 26.2094 25.6701 25.9151 25.9643C25.6216 26.2579 25.4563 26.6558 25.4556 27.0709C25.4589 27.6683 25.6982 28.2403 26.1216 28.6619C26.5457 29.0843 27.1199 29.3214 27.7185 29.3214C28.5627 29.3214 29.3723 28.9861 29.9692 28.3891C30.5662 27.7922 30.9015 26.9826 30.9015 26.1384C30.9015 24.9861 30.4438 23.881 29.629 23.0662C28.8142 22.2514 27.7091 21.7937 26.5569 21.7937C25.0205 21.7937 23.547 22.404 22.4607 23.4904C21.3743 24.5768 20.7639 26.0502 20.7639 27.5866C20.7639 29.6031 21.565 31.537 22.9909 32.9629C24.4167 34.3887 26.3507 35.1898 28.3671 35.1898C30.9838 35.1898 33.4933 34.1503 35.3435 32.3001C37.1937 30.4498 38.2332 27.9404 38.2332 25.3237C38.2332 23.6557 37.9047 22.0039 37.2663 20.4628C36.628 18.9217 35.6923 17.5214 34.5128 16.3419C33.3333 15.1624 31.933 14.2268 30.3919 13.5885C28.851 12.9502 27.1995 12.6216 25.5317 12.6216C21.2252 12.6254 17.0965 14.3388 14.0526 17.3852C11.0087 20.4317 9.2988 24.5622 9.2988 28.8689C9.2988 29.6687 8.65041 30.3171 7.85057 30.3171C7.05074 30.3171 6.40234 29.6687 6.40234 28.8689C6.40234 23.7945 8.41703 18.9276 12.0037 15.3379C15.5903 11.7483 20.4554 9.72942 25.5298 9.7251L25.531 9.7251Z" fill="#1A1A19"/>
</svg>
