<svg width="88" height="88" viewBox="0 0 88 88" fill="none" xmlns="http://www.w3.org/2000/svg">
<path fill-rule="evenodd" clip-rule="evenodd" d="M11 17.3333C11 15.4924 12.4941 14 14.3371 14H73.6629C75.5059 14 77 15.4924 77 17.3333C77 19.0491 75.7022 20.4621 74.0337 20.6463V41.7649C74.0338 44.1389 74.0338 46.1204 73.9014 47.7392C73.7633 49.4276 73.4647 51.0127 72.7001 52.5117C71.527 54.8114 69.6551 56.6812 67.3528 57.853C65.8521 58.6167 64.2652 58.915 62.5749 59.0529C60.9543 59.1852 58.9706 59.1852 56.5939 59.1851H53.2172L63.9341 68.1059C65.3499 69.2844 65.5412 71.3863 64.3614 72.8005C63.1815 74.2148 61.0773 74.4059 59.6614 73.2273L47.3371 62.9686V70.6666C47.3371 72.5075 45.843 73.9999 44 73.9999C42.157 73.9999 40.6629 72.5075 40.6629 70.6666V62.9686L28.3386 73.2273C26.9227 74.4059 24.8185 74.2148 23.6386 72.8005C22.4588 71.3863 22.6501 69.2844 24.0659 68.1059L34.7828 59.1851H31.4061C29.0294 59.1852 27.0457 59.1852 25.4251 59.0529C23.7348 58.915 22.1479 58.6167 20.6472 57.853C18.3449 56.6812 16.473 54.8114 15.2999 52.5117C14.5353 51.0127 14.2367 49.4276 14.0986 47.7392C13.9662 46.1204 13.9662 44.1389 13.9663 41.7649L13.9663 20.6463C12.2978 20.4621 11 19.0491 11 17.3333ZM20.6404 20.6667V41.6296C20.6404 44.1737 20.643 45.8813 20.7506 47.1964C20.855 48.4725 21.0413 49.0826 21.2466 49.4851C21.7799 50.5304 22.6307 51.3803 23.6772 51.9129C24.0802 52.118 24.691 52.3042 25.9686 52.4084C27.285 52.5159 28.9946 52.5185 31.5416 52.5185H56.4584C59.0054 52.5185 60.715 52.5159 62.0314 52.4084C63.309 52.3042 63.9198 52.118 64.3228 51.9129C65.3693 51.3803 66.2201 50.5304 66.7533 49.4851C66.9587 49.0826 67.145 48.4725 67.2494 47.1964C67.357 45.8813 67.3596 44.1737 67.3596 41.6296V20.6667H20.6404ZM44 25.8518C45.843 25.8518 47.3371 27.3442 47.3371 29.1852V44C47.3371 45.8409 45.843 47.3333 44 47.3333C42.157 47.3333 40.6629 45.8409 40.6629 44V29.1852C40.6629 27.3442 42.157 25.8518 44 25.8518ZM32.1348 31.7778C33.9778 31.7778 35.4719 33.2701 35.4719 35.1111V44C35.4719 45.8409 33.9778 47.3333 32.1348 47.3333C30.2918 47.3333 28.7978 45.8409 28.7978 44V35.1111C28.7978 33.2701 30.2918 31.7778 32.1348 31.7778ZM55.8652 37.7037C57.7082 37.7037 59.2023 39.1961 59.2023 41.037V44C59.2023 45.8409 57.7082 47.3333 55.8652 47.3333C54.0222 47.3333 52.5281 45.8409 52.5281 44V41.037C52.5281 39.1961 54.0222 37.7037 55.8652 37.7037Z" fill="#1A1A19"/>
</svg>
