<svg width="44" height="44" viewBox="0 0 44 44" fill="none" xmlns="http://www.w3.org/2000/svg">
<path d="M39.559 4.25411C39.838 4.47108 40 4.79773 40 5.14287V20H21V7.64754L38.5636 4.02538C38.9144 3.95306 39.2801 4.03713 39.559 4.25411Z" fill="#7FBA00"/>
<path d="M19 8L5.92221 10.777C5.3843 10.8912 5 11.3623 5 11.9074V20H19V8Z" fill="#F25022"/>
<path d="M5 23V33.1022C5 33.6608 5.42692 34.1345 6.00167 34.2135L19 36V23H5Z" fill="#01A4EF"/>
<path d="M21 36.5627L38.6446 38.9885C38.9854 39.0354 39.3305 38.9375 39.5905 38.7204C39.8506 38.5035 40 38.1885 40 37.8571V23H21V36.5627Z" fill="#FFB901"/>
</svg>
