<svg width="128" height="35" viewBox="0 0 128 35" fill="none" xmlns="http://www.w3.org/2000/svg">
<g clip-path="url(#clip0_2001_764)">
<path d="M53.0211 14.2057C50.3068 14.2057 48.0977 16.4538 48.0977 19.2445C48.0977 22.0351 50.3068 24.2849 53.0211 24.2849C55.7354 24.2849 58.0989 22.0368 58.0989 19.2445C58.0989 16.4522 55.8118 14.2057 53.0211 14.2057ZM53.0211 21.4731C51.7232 21.4731 50.9078 20.5034 50.9078 19.2445C50.9078 17.8881 51.7216 16.8404 53.0211 16.8404C54.3969 16.8404 55.2887 17.8865 55.2887 19.2445C55.2887 20.505 54.3969 21.4731 53.0211 21.4731Z" fill="#F9BE08"/>
<path d="M124.066 17.7907L127.807 14.399H124.491L121.139 17.4609V10.5216H118.29V24.09H121.139V20.466L122.011 19.6522L124.821 24.09H128L124.066 17.7907Z" fill="#F9BE08"/>
<path d="M115.192 14.2431C113.313 14.3015 112.575 15.7943 112.517 16.0851V14.399H109.687V24.09H112.517V19.0691C112.525 18.866 112.577 18.161 113.129 17.6039C113.508 17.2205 113.933 17.0987 114.141 17.0418C115.236 16.7413 116.201 17.2871 116.446 17.4349V14.3194C115.983 14.2431 115.52 14.2236 115.192 14.2431Z" fill="#F9BE08"/>
<path d="M46.3806 12.4579C45.4807 11.2266 44.0578 10.5216 42.4789 10.5216H37.5229V24.09H40.3721V23.8479C40.3753 23.7635 40.3802 23.6693 40.39 23.5637C40.3981 23.4743 40.4159 23.268 40.4468 23.1137C40.5167 22.7645 40.6905 22.516 40.7847 22.3828C41.4458 21.439 43.7638 19.9657 43.7638 19.9657C43.7638 19.9657 44.4866 19.5076 45.3378 18.8416C45.458 18.7474 45.6773 18.5752 45.9242 18.3072C45.9242 18.3072 46.2539 17.9531 46.5089 17.5308C47.0222 16.6796 47.2626 15.783 47.2188 14.8684C47.196 14.3633 47.0547 13.3789 46.3822 12.4579H46.3806ZM44.0529 16.0494C43.7215 16.6163 43.2797 16.9265 42.8622 17.2124C42.8622 17.2124 41.8568 17.867 40.5573 18.7864C40.4939 18.8319 40.4322 18.8758 40.3705 18.9196V13.3903H42.4773C42.7875 13.3903 43.5623 13.465 44.0643 14.1521C44.3031 14.4786 44.3453 14.8555 44.3518 15.0033C44.3567 15.1251 44.3632 15.5166 44.0513 16.051L44.0529 16.0494Z" fill="#F9BE08"/>
<path d="M75.3448 14.2057C72.6305 14.2057 70.4214 16.4538 70.4214 19.2445C70.4214 22.0351 72.6305 24.2849 75.3448 24.2849C78.0592 24.2849 80.4226 22.0368 80.4226 19.2445C80.4226 16.4522 78.1355 14.2057 75.3448 14.2057ZM75.3448 21.4731C74.047 21.4731 73.2315 20.5034 73.2315 19.2445C73.2315 17.8881 74.0453 16.8404 75.3448 16.8404C76.7207 16.8404 77.6125 17.8865 77.6125 19.2445C77.6125 20.505 76.7207 21.4731 75.3448 21.4731Z" fill="#F9BE08"/>
<path d="M68.7043 12.4579C67.8044 11.2266 66.3815 10.5216 64.8026 10.5216H59.8467V24.09H62.6958V23.8479C62.6991 23.7635 62.7039 23.6693 62.7137 23.5637C62.7218 23.4743 62.7397 23.268 62.7705 23.1137C62.8404 22.7645 63.0142 22.516 63.1084 22.3828C63.7695 21.439 66.0875 19.9657 66.0875 19.9657C66.0875 19.9657 66.8103 19.5076 67.6615 18.8416C67.7817 18.7474 68.001 18.5752 68.2479 18.3072C68.2479 18.3072 68.5776 17.9531 68.8327 17.5308C69.346 16.6796 69.5864 15.783 69.5425 14.8684C69.5198 14.3633 69.3785 13.3789 68.706 12.4579H68.7043ZM66.3766 16.0494C66.0453 16.6163 65.6034 16.9265 65.186 17.2124C65.186 17.2124 64.1805 17.867 62.881 18.7864C62.8176 18.8319 62.7559 18.8758 62.6942 18.9196V13.3903H64.801C65.1112 13.3903 65.8861 13.465 66.388 14.1521C66.6268 14.4786 66.669 14.8555 66.6755 15.0033C66.6804 15.1251 66.6869 15.5166 66.375 16.051L66.3766 16.0494Z" fill="#F9BE08"/>
<path d="M102.286 14.2057C100.912 14.2057 99.8109 14.5241 99.3626 14.6865C98.8916 14.8587 98.505 15.0504 98.2158 15.2128V17.7679C99.3155 16.9834 100.305 16.7186 100.885 16.6146C101.439 16.5156 101.825 16.5269 101.939 16.5318C102.514 16.5562 103.49 16.587 104.187 17.292C104.647 17.7566 104.924 18.4632 104.924 19.4979L104.929 20.5586C104.801 18.9489 103.862 17.638 101.645 17.638C99.1856 17.638 98.2191 19.1503 98.2191 20.9533C98.2191 22.7564 99.1856 24.2865 101.645 24.2865C103.88 24.2865 104.817 22.9367 104.933 21.3074L104.944 24.0916H107.793V18.4892C107.793 15.5036 105.293 14.2057 102.288 14.2057H102.286ZM101.643 22.2301C101.034 22.2301 100.823 21.668 100.823 20.9501C100.823 20.2321 101.032 19.6896 101.643 19.6896C102.254 19.6896 102.464 20.2321 102.464 20.9501C102.464 21.668 102.254 22.2301 101.643 22.2301Z" fill="#F9BE08"/>
<path d="M93.4902 18.3137V18.5265V23.8788V24.09H96.3394V23.8788V14.209V13.9978H96.2955L93.4902 18.3137Z" fill="#F9BE08"/>
<path d="M95.0563 10.5216L88.7018 20.3653V13.3529H85.6967C84.4589 15.9015 83.2228 18.4502 81.985 20.9988C81.4392 22.1229 80.8934 23.2485 80.3477 24.3726H83.3121C84.1584 22.628 85.0047 20.8851 85.851 19.1405V24.0883H89.2378C92.1779 19.5661 95.118 15.0423 98.0597 10.52H95.0547L95.0563 10.5216Z" fill="#F9BE08"/>
<path d="M18.3487 18.8087C19.372 18.081 21.1994 16.4631 21.9369 13.8121C22.1935 12.8927 23.3046 8.19346 20.0283 5.95509C17.9003 4.50128 15.4069 5.15752 14.434 5.50676L14.2683 5.56686L7.11131 9.70087L3.87395 11.5494V10.6235L11.7131 6.09316C11.7131 6.09316 11.7196 6.08991 11.7229 6.08991L13.8589 4.85701L13.9223 4.81965L13.9921 4.79529L14.1578 4.73519C14.7962 4.50615 15.8017 4.23326 16.968 4.23326C17.0216 4.23326 17.0752 4.23326 17.1271 4.23651C16.6431 3.57377 15.9836 2.97113 15.0837 2.54067C12.9623 1.52706 10.8928 2.18818 10.1018 2.52118L9.98644 2.56991L1.0037 7.75976L1.02157 7.78899L0.582988 8.04239C0.222379 8.25031 0.00146484 8.63529 0.00146484 9.05275V18.2678L9.05893 13.099L15.9056 9.14371C16.4384 8.97965 17.314 8.84158 17.8224 9.1892C18.6735 9.77072 18.4234 11.8483 18.1684 12.7628C17.7704 14.1906 16.7682 15.1149 16.1558 15.5648L6.0636 21.3037V28.3486L8.41405 29.7082L9.97994 30.613V23.5811L18.2707 18.8655L18.3519 18.8087H18.3487Z" fill="#F9BE08"/>
<path d="M17.1062 12.9366C17.4392 12.2917 17.5431 11.6582 17.5431 11.6582C17.5935 11.3496 17.5919 11.1336 17.587 10.8639C17.5756 10.1687 17.4132 9.90392 17.3563 9.86493C17.3385 9.85194 17.2361 9.79184 16.9616 9.79184C16.744 9.79184 16.4808 9.83082 16.2274 9.90067L12.4264 12.0968C12.3078 12.1797 12.186 12.2592 12.0577 12.3356L0 19.348V24.1707C0 24.5866 0.222538 24.9732 0.581523 25.1811L3.87249 27.0848V21.627C7.26579 19.6534 10.6607 17.6814 14.054 15.7078C15.68 14.7591 16.7277 13.6676 17.1046 12.9399L17.1062 12.9366Z" fill="#F9BE08"/>
<path d="M28.3958 4.80666L25.5954 2.04036C25.1357 3.81417 24.6743 5.58798 24.2146 7.36341C22.6894 13.2111 21.1625 19.0588 19.6372 24.9066L14.7933 22.0266C14.7202 21.9843 14.6471 21.9421 14.574 21.8999C14.1972 22.1191 13.8203 22.3368 13.4435 22.5561L12.2788 23.2188V31.9482L13.6498 32.7409C13.8301 32.8448 14.0315 32.8968 14.2313 32.8968C14.4311 32.8968 14.6325 32.8448 14.8128 32.7409L16.1935 31.9417V27.3983L20.0628 29.6984C20.6037 29.3849 21.1462 29.0698 21.6871 28.7563C22.103 28.5159 22.5188 28.2739 22.9346 28.0335L23.5454 25.6895C23.7663 24.8611 23.9889 24.0343 24.2098 23.2058L24.5688 21.8268L27.4 10.9549L27.9539 8.82534C26.825 13.9665 25.6961 19.1076 24.5688 24.2487V27.0995L27.889 25.1795C28.2496 24.9715 28.4705 24.5866 28.4705 24.1691V9.05275C28.4705 8.73275 28.3389 8.43224 28.1147 8.2162C28.3145 7.46412 28.5143 6.71204 28.7141 5.96158C28.8213 5.54737 28.7011 5.10717 28.3974 4.80828L28.3958 4.80666Z" fill="#F9BE08"/>
</g>
<defs>
<clipPath id="clip0_2001_764">
<rect width="128" height="35" fill="white"/>
</clipPath>
</defs>
</svg>
