<svg width="29" height="31" viewBox="0 0 29 31" fill="none" xmlns="http://www.w3.org/2000/svg">
<path d="M18.3487 16.8087C19.372 16.081 21.1994 14.4631 21.9369 11.8121C22.1935 10.8927 23.3046 6.19346 20.0283 3.95509C17.9003 2.50128 15.4069 3.15752 14.434 3.50676L14.2683 3.56686L7.11131 7.70087L3.87395 9.5494V8.62351L11.7131 4.09316C11.7131 4.09316 11.7196 4.08991 11.7229 4.08991L13.8589 2.85701L13.9223 2.81965L13.9921 2.79529L14.1578 2.73519C14.7962 2.50615 15.8017 2.23326 16.968 2.23326C17.0216 2.23326 17.0752 2.23326 17.1271 2.23651C16.6431 1.57377 15.9836 0.971126 15.0837 0.540669C12.9623 -0.472935 10.8928 0.188181 10.1018 0.521176L9.98644 0.569907L1.0037 5.75976L1.02157 5.78899L0.582988 6.04239C0.222379 6.25031 0.00146484 6.63529 0.00146484 7.05275V16.2678L9.05893 11.099L15.9056 7.14371C16.4384 6.97965 17.314 6.84158 17.8224 7.1892C18.6735 7.77072 18.4234 9.84828 18.1684 10.7628C17.7704 12.1906 16.7682 13.1149 16.1558 13.5648L6.0636 19.3037V26.3486L8.41405 27.7082L9.97994 28.613V21.5811L18.2707 16.8655L18.3519 16.8087H18.3487Z" fill="#F9BE08"/>
<path d="M17.1062 10.9366C17.4392 10.2917 17.5431 9.65823 17.5431 9.65823C17.5935 9.3496 17.5919 9.13356 17.587 8.86392C17.5756 8.16869 17.4132 7.90392 17.3563 7.86493C17.3385 7.85194 17.2361 7.79184 16.9616 7.79184C16.744 7.79184 16.4808 7.83082 16.2274 7.90067L12.4264 10.0968C12.3078 10.1797 12.186 10.2592 12.0577 10.3356L0 17.348V22.1707C0 22.5866 0.222538 22.9732 0.581523 23.1811L3.87249 25.0848V19.627C7.26579 17.6534 10.6607 15.6814 14.054 13.7078C15.68 12.7591 16.7277 11.6676 17.1046 10.9399L17.1062 10.9366Z" fill="#F9BE08"/>
<path d="M28.3958 2.80666L25.5954 0.0403633C25.1357 1.81417 24.6743 3.58798 24.2146 5.36341C22.6894 11.2111 21.1625 17.0588 19.6372 22.9066L14.7933 20.0266C14.7202 19.9843 14.6471 19.9421 14.574 19.8999C14.1972 20.1191 13.8203 20.3368 13.4435 20.5561L12.2788 21.2188V29.9482L13.6498 30.7409C13.8301 30.8448 14.0315 30.8968 14.2313 30.8968C14.4311 30.8968 14.6325 30.8448 14.8128 30.7409L16.1935 29.9417V25.3983L20.0628 27.6984C20.6037 27.3849 21.1462 27.0698 21.6871 26.7563C22.103 26.5159 22.5188 26.2739 22.9346 26.0335L23.5454 23.6895C23.7663 22.8611 23.9889 22.0343 24.2098 21.2058L24.5688 19.8268L27.4 8.95488L27.9539 6.82534C26.825 11.9665 25.6961 17.1076 24.5688 22.2487V25.0995L27.889 23.1795C28.2496 22.9715 28.4705 22.5866 28.4705 22.1691V7.05275C28.4705 6.73275 28.3389 6.43224 28.1147 6.2162C28.3145 5.46412 28.5143 4.71204 28.7141 3.96158C28.8213 3.54737 28.7011 3.10717 28.3974 2.80828L28.3958 2.80666Z" fill="#F9BE08"/>
</svg>
