<svg width="29" height="31" viewBox="0 0 29 31" fill="none" xmlns="http://www.w3.org/2000/svg">
<path d="M18.3488 16.8087C19.3721 16.081 21.1996 14.4631 21.937 11.8121C22.1937 10.8927 23.3047 6.19346 20.0284 3.95509C17.9005 2.50128 15.4071 3.15752 14.4341 3.50676L14.2684 3.56686L7.11143 7.70087L3.87407 9.5494V8.62351L11.7133 4.09316C11.7133 4.09316 11.7198 4.08991 11.723 4.08991L13.859 2.85701L13.9224 2.81965L13.9922 2.79529L14.1579 2.73519C14.7963 2.50615 15.8018 2.23326 16.9681 2.23326C17.0217 2.23326 17.0753 2.23326 17.1273 2.23651C16.6432 1.57377 15.9837 0.971126 15.0838 0.540669C12.9624 -0.472935 10.893 0.188181 10.1019 0.521176L9.98656 0.569907L1.00382 5.75976L1.02169 5.78899L0.58311 6.04239C0.222501 6.25031 0.00158691 6.63529 0.00158691 7.05275V16.2678L9.05905 11.099L15.9057 7.14371C16.4385 6.97965 17.3141 6.84158 17.8225 7.1892C18.6737 7.77072 18.4235 9.84828 18.1685 10.7628C17.7705 12.1906 16.7683 13.1149 16.1559 13.5648L6.06372 19.3037V26.3486L8.41418 27.7082L9.98006 28.613V21.5811L18.2708 16.8655L18.352 16.8087H18.3488Z" fill="#F9BE08"/>
<path d="M17.1062 10.9366C17.4392 10.2917 17.5431 9.6582 17.5431 9.6582C17.5935 9.34958 17.5919 9.13353 17.587 8.86389C17.5756 8.16866 17.4132 7.90389 17.3563 7.86491C17.3385 7.85191 17.2361 7.79181 16.9616 7.79181C16.744 7.79181 16.4808 7.83079 16.2274 7.90064L12.4264 10.0968C12.3078 10.1796 12.186 10.2592 12.0577 10.3356L0 17.348V22.1707C0 22.5865 0.222538 22.9731 0.581523 23.181L3.87249 25.0848V19.6269C7.26579 17.6533 10.6607 15.6814 14.054 13.7077C15.68 12.7591 16.7277 11.6675 17.1046 10.9398L17.1062 10.9366Z" fill="#F9BE08"/>
<path d="M28.3955 2.80664L25.5951 0.0403442C25.1354 1.81415 24.6741 3.58796 24.2144 5.36339C22.6891 11.2111 21.1622 17.0588 19.6369 22.9065L14.7931 20.0265C14.72 19.9843 14.6469 19.9421 14.5738 19.8998C14.1969 20.1191 13.8201 20.3368 13.4432 20.5561L12.2786 21.2188V29.9482L13.6495 30.7409C13.8298 30.8448 14.0313 30.8968 14.2311 30.8968C14.4308 30.8968 14.6323 30.8448 14.8126 30.7409L16.1933 29.9417V25.3983L20.0625 27.6984C20.6034 27.3849 21.146 27.0698 21.6869 26.7563C22.1027 26.5159 22.5186 26.2738 22.9344 26.0334L23.5452 23.6895C23.7661 22.8611 23.9886 22.0343 24.2095 21.2058L24.5685 19.8267L27.3998 8.95486L27.9537 6.82532C26.8248 11.9664 25.6958 17.1076 24.5685 22.2487V25.0994L27.8887 23.1794C28.2493 22.9715 28.4702 22.5865 28.4702 22.1691V7.05273C28.4702 6.73273 28.3387 6.43222 28.1145 6.21618C28.3143 5.4641 28.5141 4.71202 28.7139 3.96156C28.8211 3.54735 28.7009 3.10715 28.3971 2.80826L28.3955 2.80664Z" fill="#F9BE08"/>
</svg>
