<svg width="21.556152" height="21.556274" viewBox="0 0 21.5562 21.5563" fill="none" xmlns="http://www.w3.org/2000/svg" xmlns:xlink="http://www.w3.org/1999/xlink">
	<desc>
			Created with Pixso.
	</desc>
	<defs/>
	<rect id="Rectangle 1" rx="10.778125" width="21.556250" height="21.556250" fill="#F9BE08" fill-opacity="1.000000"/>
	<path id="Union" d="M12.63 6.25L9.23 6.25L8.74 9.01L13.12 9.01L12.63 6.25ZM12.62 12.23L9.22 12.23L8.74 14.96L8.26 12.23L4.86 12.23L4.37 15L13.11 15L12.62 12.23ZM11.43 9.24L14.83 9.24L15.31 12L10.94 12L11.43 9.24ZM10.44 9.24L7.04 9.24L6.55 12L10.93 12L10.44 9.24ZM13.61 12.23L17.01 12.23L17.5 15L13.12 15L13.61 12.23Z" fill="#FFFFFF" fill-opacity="1.000000" fill-rule="evenodd"/>
</svg>
