<svg width="128" height="35" viewBox="0 0 128 35" fill="none" xmlns="http://www.w3.org/2000/svg">
<g clip-path="url(#clip0_128_3083)">
<path d="M53.021 14.2057C50.3067 14.2057 48.0975 16.4538 48.0975 19.2445C48.0975 22.0351 50.3067 24.2849 53.021 24.2849C55.7353 24.2849 58.0988 22.0368 58.0988 19.2445C58.0988 16.4522 55.8116 14.2057 53.021 14.2057ZM53.021 21.4731C51.7231 21.4731 50.9077 20.5034 50.9077 19.2445C50.9077 17.8881 51.7215 16.8404 53.021 16.8404C54.3968 16.8404 55.2886 17.8865 55.2886 19.2445C55.2886 20.505 54.3968 21.4731 53.021 21.4731Z" fill="#F9BE08"/>
<path d="M124.066 17.7907L127.807 14.399H124.492L121.139 17.461V10.5217H118.29V24.09H121.139V20.466L122.011 19.6522L124.821 24.09H128L124.066 17.7907Z" fill="#F9BE08"/>
<path d="M115.192 14.2431C113.313 14.3016 112.575 15.7943 112.517 16.0851V14.399H109.687V24.09H112.517V19.0691C112.525 18.866 112.577 18.161 113.129 17.6039C113.508 17.2205 113.933 17.0987 114.141 17.0419C115.236 16.7413 116.201 17.2871 116.446 17.435V14.3194C115.983 14.2431 115.52 14.2236 115.192 14.2431Z" fill="#F9BE08"/>
<path d="M46.3806 12.4579C45.4807 11.2266 44.0578 10.5217 42.4789 10.5217H37.5229V24.09H40.3721V23.848C40.3753 23.7635 40.3802 23.6693 40.39 23.5637C40.3981 23.4744 40.4159 23.2681 40.4468 23.1137C40.5167 22.7645 40.6905 22.516 40.7847 22.3828C41.4458 21.439 43.7638 19.9657 43.7638 19.9657C43.7638 19.9657 44.4866 19.5077 45.3378 18.8417C45.458 18.7475 45.6773 18.5753 45.9242 18.3073C45.9242 18.3073 46.2539 17.9531 46.5089 17.5308C47.0222 16.6796 47.2626 15.783 47.2188 14.8685C47.196 14.3633 47.0547 13.3789 46.3822 12.4579H46.3806ZM44.0529 16.0494C43.7215 16.6163 43.2797 16.9265 42.8622 17.2124C42.8622 17.2124 41.8568 17.867 40.5573 18.7864C40.4939 18.8319 40.4322 18.8758 40.3705 18.9196V13.3903H42.4773C42.7875 13.3903 43.5623 13.465 44.0643 14.1521C44.3031 14.4786 44.3453 14.8555 44.3518 15.0033C44.3567 15.1251 44.3632 15.5166 44.0513 16.051L44.0529 16.0494Z" fill="#F9BE08"/>
<path d="M75.3447 14.2057C72.6304 14.2057 70.4213 16.4538 70.4213 19.2445C70.4213 22.0351 72.6304 24.2849 75.3447 24.2849C78.059 24.2849 80.4225 22.0368 80.4225 19.2445C80.4225 16.4522 78.1354 14.2057 75.3447 14.2057ZM75.3447 21.4731C74.0468 21.4731 73.2314 20.5034 73.2314 19.2445C73.2314 17.8881 74.0452 16.8404 75.3447 16.8404C76.7206 16.8404 77.6123 17.8865 77.6123 19.2445C77.6123 20.505 76.7206 21.4731 75.3447 21.4731Z" fill="#F9BE08"/>
<path d="M68.7042 12.4579C67.8043 11.2266 66.3814 10.5217 64.8025 10.5217H59.8466V24.09H62.6957V23.848C62.6989 23.7635 62.7038 23.6693 62.7136 23.5637C62.7217 23.4744 62.7396 23.2681 62.7704 23.1137C62.8403 22.7645 63.0141 22.516 63.1083 22.3828C63.7694 21.439 66.0874 19.9657 66.0874 19.9657C66.0874 19.9657 66.8102 19.5077 67.6614 18.8417C67.7816 18.7475 68.0009 18.5753 68.2478 18.3073C68.2478 18.3073 68.5775 17.9531 68.8326 17.5308C69.3458 16.6796 69.5863 15.783 69.5424 14.8685C69.5197 14.3633 69.3783 13.3789 68.7058 12.4579H68.7042ZM66.3765 16.0494C66.0451 16.6163 65.6033 16.9265 65.1858 17.2124C65.1858 17.2124 64.1804 17.867 62.8809 18.7864C62.8175 18.8319 62.7558 18.8758 62.6941 18.9196V13.3903H64.8009C65.1111 13.3903 65.886 13.465 66.3879 14.1521C66.6267 14.4786 66.6689 14.8555 66.6754 15.0033C66.6803 15.1251 66.6868 15.5166 66.3749 16.051L66.3765 16.0494Z" fill="#F9BE08"/>
<path d="M102.286 14.2057C100.912 14.2057 99.8108 14.5241 99.3625 14.6865C98.8914 14.8587 98.5048 15.0504 98.2157 15.2128V17.7679C99.3154 16.9834 100.305 16.7186 100.885 16.6146C101.438 16.5155 101.825 16.5269 101.939 16.5318C102.514 16.5561 103.49 16.587 104.187 17.292C104.647 17.7566 104.924 18.4632 104.924 19.4979L104.929 20.5586C104.801 18.9488 103.862 17.638 101.645 17.638C99.1854 17.638 98.2189 19.1503 98.2189 20.9533C98.2189 22.7563 99.1854 24.2865 101.645 24.2865C103.88 24.2865 104.817 22.9367 104.932 21.3074L104.944 24.0916H107.793V18.4891C107.793 15.5036 105.293 14.2057 102.288 14.2057H102.286ZM101.643 22.2301C101.034 22.2301 100.823 21.668 100.823 20.9501C100.823 20.2321 101.032 19.6895 101.643 19.6895C102.254 19.6895 102.463 20.2321 102.463 20.9501C102.463 21.668 102.254 22.2301 101.643 22.2301Z" fill="#F9BE08"/>
<path d="M93.4905 18.3137V18.5265V23.8788V24.09H96.3396V23.8788V14.209V13.9978H96.2958L93.4905 18.3137Z" fill="#F9BE08"/>
<path d="M95.0564 10.5216L88.7019 20.3653V13.3529H85.6968C84.459 15.9015 83.2229 18.4502 81.9851 20.9988C81.4393 22.1229 80.8936 23.2485 80.3478 24.3726H83.3122C84.1585 22.628 85.0048 20.8851 85.8511 19.1405V24.0883H89.2379C92.178 19.5661 95.1181 15.0423 98.0599 10.52H95.0548L95.0564 10.5216Z" fill="#F9BE08"/>
<path d="M18.3488 18.8087C19.3721 18.081 21.1996 16.4631 21.937 13.8121C22.1937 12.8927 23.3047 8.19346 20.0284 5.95509C17.9005 4.50128 15.4071 5.15752 14.4341 5.50676L14.2684 5.56686L7.11143 9.70087L3.87407 11.5494V10.6235L11.7133 6.09316C11.7133 6.09316 11.7198 6.08991 11.723 6.08991L13.859 4.85701L13.9224 4.81965L13.9922 4.79529L14.1579 4.73519C14.7963 4.50615 15.8018 4.23326 16.9681 4.23326C17.0217 4.23326 17.0753 4.23326 17.1273 4.23651C16.6432 3.57377 15.9837 2.97113 15.0838 2.54067C12.9624 1.52706 10.893 2.18818 10.1019 2.52118L9.98656 2.56991L1.00382 7.75976L1.02169 7.78899L0.58311 8.04239C0.222501 8.25031 0.00158691 8.63529 0.00158691 9.05275V18.2678L9.05905 13.099L15.9057 9.14371C16.4385 8.97965 17.3141 8.84158 17.8225 9.1892C18.6737 9.77072 18.4235 11.8483 18.1685 12.7628C17.7705 14.1906 16.7683 15.1149 16.1559 15.5648L6.06372 21.3037V28.3486L8.41418 29.7082L9.98006 30.613V23.5811L18.2708 18.8655L18.352 18.8087H18.3488Z" fill="#F9BE08"/>
<path d="M17.1062 12.9366C17.4392 12.2917 17.5431 11.6582 17.5431 11.6582C17.5935 11.3496 17.5919 11.1335 17.587 10.8639C17.5756 10.1687 17.4132 9.90389 17.3563 9.86491C17.3385 9.85191 17.2361 9.79181 16.9616 9.79181C16.744 9.79181 16.4808 9.83079 16.2274 9.90064L12.4264 12.0968C12.3078 12.1796 12.186 12.2592 12.0577 12.3356L0 19.348V24.1707C0 24.5865 0.222538 24.9731 0.581523 25.181L3.87249 27.0848V21.6269C7.26579 19.6533 10.6607 17.6814 14.054 15.7077C15.68 14.7591 16.7277 13.6675 17.1046 12.9398L17.1062 12.9366Z" fill="#F9BE08"/>
<path d="M28.3955 4.80664L25.5951 2.04034C25.1354 3.81415 24.6741 5.58796 24.2144 7.36339C22.6891 13.2111 21.1622 19.0588 19.6369 24.9065L14.7931 22.0265C14.72 21.9843 14.6469 21.9421 14.5738 21.8998C14.1969 22.1191 13.8201 22.3368 13.4432 22.5561L12.2786 23.2188V31.9482L13.6495 32.7409C13.8298 32.8448 14.0313 32.8968 14.2311 32.8968C14.4308 32.8968 14.6323 32.8448 14.8126 32.7409L16.1933 31.9417V27.3983L20.0625 29.6984C20.6034 29.3849 21.146 29.0698 21.6869 28.7563C22.1027 28.5159 22.5186 28.2738 22.9344 28.0334L23.5452 25.6895C23.7661 24.8611 23.9886 24.0343 24.2095 23.2058L24.5685 21.8267L27.3998 10.9549L27.9537 8.82532C26.8248 13.9664 25.6958 19.1076 24.5685 24.2487V27.0994L27.8887 25.1794C28.2493 24.9715 28.4702 24.5865 28.4702 24.1691V9.05273C28.4702 8.73273 28.3387 8.43222 28.1145 8.21618C28.3143 7.4641 28.5141 6.71202 28.7139 5.96156C28.8211 5.54735 28.7009 5.10715 28.3971 4.80826L28.3955 4.80664Z" fill="#F9BE08"/>
</g>
<defs>
<clipPath id="clip0_128_3083">
<rect width="128" height="35" fill="white"/>
</clipPath>
</defs>
</svg>
