<svg width="91" height="15" viewBox="0 0 91 15" fill="none" xmlns="http://www.w3.org/2000/svg">
<path d="M16.021 4.20569C13.3067 4.20569 11.0975 6.45381 11.0975 9.24447C11.0975 12.0351 13.3067 14.2849 16.021 14.2849C18.7353 14.2849 21.0988 12.0368 21.0988 9.24447C21.0988 6.45219 18.8116 4.20569 16.021 4.20569ZM16.021 11.4731C14.7231 11.4731 13.9077 10.5034 13.9077 9.24447C13.9077 7.88813 14.7215 6.84041 16.021 6.84041C17.3968 6.84041 18.2886 7.8865 18.2886 9.24447C18.2886 10.505 17.3968 11.4731 16.021 11.4731Z" fill="#F9BE08"/>
<path d="M87.0659 7.7907L90.8068 4.39903H87.4915L84.1388 7.46096V0.521667H81.2897V14.09H84.1388V10.466L85.0111 9.65223L87.8213 14.09H91.0001L87.0659 7.7907Z" fill="#F9BE08"/>
<path d="M78.192 4.24308C76.3126 4.30155 75.5751 5.79434 75.5167 6.0851V4.39901H72.687V14.09H75.5167V9.06906C75.5248 8.86602 75.5768 8.16104 76.129 7.60389C76.5075 7.22054 76.9331 7.09871 77.141 7.04186C78.2358 6.74135 79.2007 7.28713 79.446 7.43495V4.31942C78.983 4.24307 78.5201 4.22358 78.192 4.24308Z" fill="#F9BE08"/>
<path d="M9.38062 2.45791C8.48072 1.22664 7.05777 0.521667 5.47889 0.521667H0.522949V14.09H3.37209V13.848C3.37533 13.7635 3.38021 13.6693 3.38995 13.5637C3.39808 13.4744 3.41594 13.2681 3.44681 13.1137C3.51666 12.7645 3.69046 12.516 3.78468 12.3828C4.44579 11.439 6.76376 9.96573 6.76376 9.96573C6.76376 9.96573 7.4866 9.50766 8.33777 8.84167C8.45797 8.74745 8.67727 8.57527 8.92417 8.30725C8.92417 8.30725 9.25392 7.95314 9.50894 7.5308C10.0222 6.67964 10.2626 5.78299 10.2188 4.86847C10.196 4.36329 10.0547 3.37893 9.38224 2.45791H9.38062ZM7.0529 6.04938C6.72153 6.61629 6.2797 6.92654 5.86224 7.21243C5.86224 7.21243 4.85676 7.86705 3.55726 8.78644C3.49391 8.83192 3.43219 8.87578 3.37046 8.91964V3.3903H5.47726C5.78752 3.3903 6.56234 3.46502 7.06427 4.15212C7.30305 4.47862 7.34529 4.85547 7.35178 5.00329C7.35666 5.12512 7.36315 5.51659 7.05128 6.05101L7.0529 6.04938Z" fill="#F9BE08"/>
<path d="M38.3447 4.20569C35.6304 4.20569 33.4213 6.45381 33.4213 9.24447C33.4213 12.0351 35.6304 14.2849 38.3447 14.2849C41.059 14.2849 43.4225 12.0368 43.4225 9.24447C43.4225 6.45219 41.1354 4.20569 38.3447 4.20569ZM38.3447 11.4731C37.0468 11.4731 36.2314 10.5034 36.2314 9.24447C36.2314 7.88813 37.0452 6.84041 38.3447 6.84041C39.7206 6.84041 40.6123 7.8865 40.6123 9.24447C40.6123 10.505 39.7206 11.4731 38.3447 11.4731Z" fill="#F9BE08"/>
<path d="M31.7042 2.45791C30.8043 1.22664 29.3814 0.521667 27.8025 0.521667H22.8466V14.09H25.6957V13.848C25.6989 13.7635 25.7038 13.6693 25.7136 13.5637C25.7217 13.4744 25.7396 13.2681 25.7704 13.1137C25.8403 12.7645 26.0141 12.516 26.1083 12.3828C26.7694 11.439 29.0874 9.96573 29.0874 9.96573C29.0874 9.96573 29.8102 9.50766 30.6614 8.84167C30.7816 8.74745 31.0009 8.57527 31.2478 8.30725C31.2478 8.30725 31.5775 7.95314 31.8326 7.5308C32.3458 6.67964 32.5863 5.78299 32.5424 4.86847C32.5197 4.36329 32.3783 3.37893 31.7058 2.45791H31.7042ZM29.3765 6.04938C29.0451 6.61629 28.6033 6.92654 28.1858 7.21243C28.1858 7.21243 27.1804 7.86705 25.8809 8.78644C25.8175 8.83192 25.7558 8.87578 25.6941 8.91964V3.3903H27.8009C28.1111 3.3903 28.886 3.46502 29.3879 4.15212C29.6267 4.47862 29.6689 4.85547 29.6754 5.00329C29.6803 5.12512 29.6868 5.51659 29.3749 6.05101L29.3765 6.04938Z" fill="#F9BE08"/>
<path d="M65.2864 4.20569C63.9121 4.20569 62.8108 4.52406 62.3625 4.6865C61.8914 4.85868 61.5048 5.05036 61.2157 5.21279V7.76792C62.3154 6.98335 63.3046 6.71858 63.8845 6.61462C64.4384 6.51554 64.825 6.52691 64.9387 6.53178C65.5138 6.55615 66.49 6.58701 67.1869 7.29198C67.6466 7.75655 67.9243 8.46315 67.9243 9.49787L67.9292 10.5586C67.8009 8.94884 66.862 7.63797 64.6447 7.63797C62.1854 7.63797 61.2189 9.15026 61.2189 10.9533C61.2189 12.7563 62.1854 14.2865 64.6447 14.2865C66.8799 14.2865 67.8171 12.9367 67.9324 11.3074L67.9438 14.0916H70.793V8.48914C70.793 5.50356 68.2931 4.20569 65.288 4.20569H65.2864ZM64.6431 12.2301C64.034 12.2301 63.8228 11.668 63.8228 10.9501C63.8228 10.2321 64.0323 9.68955 64.6431 9.68955C65.2539 9.68955 65.4634 10.2321 65.4634 10.9501C65.4634 11.668 65.2539 12.2301 64.6431 12.2301Z" fill="#F9BE08"/>
<path d="M56.4905 8.31374V8.52653V13.8788V14.09H59.3396V13.8788V4.20897V3.9978H59.2958L56.4905 8.31374Z" fill="#F9BE08"/>
<path d="M58.0564 0.521644L51.7019 10.3653V3.35291H48.6968C47.459 5.90154 46.2229 8.45017 44.9851 10.9988C44.4393 12.1229 43.8936 13.2485 43.3478 14.3726H46.3122C47.1585 12.628 48.0048 10.8851 48.8511 9.14053V14.0883H52.2379C55.178 9.56611 58.1181 5.04225 61.0599 0.52002H58.0548L58.0564 0.521644Z" fill="#F9BE08"/>
</svg>
